<svg xmlns="http://www.w3.org/2000/svg" version="1.1" xmlns:xlink="http://www.w3.org/1999/xlink" xmlns:svgjs="http://svgjs.dev/svgjs" viewBox="0 0 800 800"><defs><linearGradient x1="50%" y1="0%" x2="50%" y2="100%" id="gggyrate-grad"><stop stop-color="hsl(230, 58%, 42%)" stop-opacity="1" offset="0%"></stop><stop stop-color="hsl(195, 83%, 34%)" stop-opacity="1" offset="100%"></stop></linearGradient></defs><g stroke-width="6" stroke="url(#gggyrate-grad)" fill="none"><path d="M332.18750005904235 -751.7664269808365C359.96506394556127 -807.907938465472 440.03481398412623 -807.907938465472 467.81237787064515 -751.7664269808365L1574.5548867015996 1484.653760046007C1599.4383632373278 1534.940892216459 1562.8555858750346 1593.8724552320864 1506.7424477957993 1593.8724552320864H-706.7425698661116C-762.855707945347 1593.8724552320864 -799.4384853076397 1534.940892216459 -774.555008771913 1484.653760046007L332.18750005904235 -751.7664269808365Z " transform="rotate(110, 400, 400)" opacity="0.05"></path><path d="M333.42045349369323 -730.8252081202475C360.6929707640934 -785.9459648506167 439.3069071655941 -785.9459648506167 466.57942443599427 -730.8252081202475L1553.1993421972952 1464.9327936879258C1577.630391886919 1514.3056143643707 1541.712755931213 1572.1656944160773 1486.6198567261454 1572.1656944160773H-686.6199787964579C-741.7128780015254 1572.1656944160773 -777.630513957231 1514.3056143643707 -753.1994642676083 1464.9327936879258L333.42045349369323 -730.8252081202475Z " transform="rotate(108, 400, 400)" opacity="0.07"></path><path d="M334.6534069283441 -709.8839740008693C361.42087758262596 -763.9839759769725 438.57900034706154 -763.9839759769725 465.3464710013434 -709.8839740008693L1531.8437976929904 1445.2118425886342C1555.8224205365104 1493.6703517710707 1520.5699259873913 1550.4589488588567 1466.4972656564914 1550.4589488588567H-666.4973877268042C-720.5700480577037 1550.4589488588567 -755.8225426068221 1493.6703517710707 -731.8439197633036 1445.2118425886342L334.6534069283441 -709.8839740008693Z " transform="rotate(106, 400, 400)" opacity="0.09"></path><path d="M335.8863603629952 -688.9427551402803C362.1487844011583 -742.0220023621174 437.8510935285292 -742.0220023621174 464.1135175666923 -688.9427551402803L1510.488253188686 1425.4908762305536C1534.0144491861015 1473.0350739189817 1499.4270960435697 1528.7521880428471 1446.374674586838 1528.7521880428471H-646.3747966571505C-699.4272181138821 1528.7521880428471 -734.0145712564133 1473.0350739189817 -710.488375258999 1425.4908762305536L335.8863603629952 -688.9427551402803Z " transform="rotate(104, 400, 400)" opacity="0.10"></path><path d="M337.1193137976461 -668.0015362796912C362.8766912196909 -720.0600287472622 437.1231867099966 -720.0600287472622 462.8805641320414 -668.0015362796912L1489.1327086843812 1405.7699098724725C1512.2064778356926 1452.3997960668921 1478.284266099748 1507.0454272268375 1426.252083517184 1507.0454272268375H-626.2522055874967C-678.2843881700604 1507.0454272268375 -712.2065999060046 1452.3997960668921 -689.1328307546943 1405.7699098724725L337.1193137976461 -668.0015362796912Z " transform="rotate(102, 400, 400)" opacity="0.12"></path><path d="M338.352267232297 -647.060317419102C363.60459803822323 -698.098055132407 436.39527989146427 -698.098055132407 461.6476106973905 -647.060317419102L1467.7771641800769 1386.0489435143918C1490.3985064852836 1431.764518214803 1457.1414361559264 1485.338666410828 1406.1294924475305 1485.338666410828H-606.1296145178429C-657.1415582262388 1485.338666410828 -690.3986285555958 1431.764518214803 -667.7772862503896 1386.0489435143918L338.352267232297 -647.060317419102Z " transform="rotate(100, 400, 400)" opacity="0.14"></path><path d="M339.58522066694786 -626.119098558513C364.3325048567556 -676.1360815175519 435.6673730729319 -676.1360815175519 460.41465726273964 -626.119098558513L1446.4216196757716 1366.3279771563111C1468.5905351348752 1411.1292403627144 1435.9986062121047 1463.6319055948184 1386.0069013778766 1463.6319055948184H-586.0070234481892C-635.9987282824171 1463.6319055948184 -668.590657205187 1411.1292403627144 -646.421741746085 1366.3279771563111L339.58522066694786 -626.119098558513Z " transform="rotate(98, 400, 400)" opacity="0.16"></path><path d="M340.81817410159897 -605.1778796979239C365.0604116752879 -654.1741079026967 434.9394662543996 -654.1741079026967 459.18170382808853 -605.1778796979239L1425.0660751714672 1346.60701079823C1446.7825637844662 1390.4939625106254 1414.855776268283 1441.9251447788088 1365.8843103082227 1441.9251447788088H-565.8844323785354C-614.8558983385955 1441.9251447788088 -646.7826858547783 1390.4939625106254 -625.0661972417803 1346.60701079823L340.81817410159897 -605.1778796979239Z " transform="rotate(96, 400, 400)" opacity="0.17"></path><path d="M342.05112753624985 -584.2366608373349C365.7883184938205 -632.2121342878415 434.21155943586723 -632.2121342878415 457.9487503934374 -584.2366608373349L1403.7105306671629 1326.8860444401494C1424.9745924340573 1369.8586846585358 1393.712946324461 1420.2183839627996 1345.7617192385696 1420.2183839627996H-545.7618413088817C-593.7130683947738 1420.2183839627996 -624.9747145043693 1369.8586846585358 -603.7106527374756 1326.8860444401494L342.05112753624985 -584.2366608373349Z " transform="rotate(94, 400, 400)" opacity="0.19"></path><path d="M343.28408097090073 -563.2955487882692C366.5162253123526 -610.2502674845098 433.4836526173349 -610.2502674845098 456.71579695878677 -563.2955487882692L1382.354986162858 1307.1649712705448C1403.1666210836484 1349.2232999949238 1372.5701163806398 1398.5115163352666 1325.6391281689157 1398.5115163352666H-525.639250239228C-572.5702384509522 1398.5115163352666 -603.1667431539606 1349.2232999949238 -582.355108233171 1307.1649712705448L343.28408097090073 -563.2955487882692Z " transform="rotate(92, 400, 400)" opacity="0.21"></path><path d="M344.51703440555184 -542.35432992768C367.2441321308852 -588.2882938696546 432.7557457988023 -588.2882938696546 455.48284352413566 -542.35432992768L1360.9994416585532 1287.4440049124646C1381.3586497332399 1328.5880221428347 1351.4272864368181 1376.804755519257 1305.5165370992618 1376.804755519257H-505.51665916957427C-551.4274085071305 1376.804755519257 -581.3587718035518 1328.5880221428347 -560.9995637288663 1287.4440049124646L344.51703440555184 -542.35432992768Z " transform="rotate(90, 400, 400)" opacity="0.23"></path><path d="M345.7499878402027 -521.413111067091C367.97203894941777 -566.3263202547994 432.02783898026973 -566.3263202547994 454.2498900894848 -521.413111067091L1339.6438971542484 1267.7230385543835C1359.5506783828314 1307.9527442907456 1330.2844564929965 1355.0979947032474 1285.3939460296078 1355.0979947032474H-485.39406809992056C-530.2845785633089 1355.0979947032474 -559.550800453143 1307.9527442907456 -539.6440192245616 1267.7230385543835L345.7499878402027 -521.413111067091Z " transform="rotate(88, 400, 400)" opacity="0.24"></path><path d="M346.9830633451661 -500.471892206502C368.7000678382624 -544.3643466399443 431.3000542320501 -544.3643466399443 453.0170587251464 -500.471892206502L1318.2884747202565 1248.0020721963026C1337.7428291027345 1287.317466438657 1309.1417486194873 1333.3912338872378 1265.2714770302664 1333.3912338872378H-465.2713549599543C-509.1416265491747 1333.3912338872378 -537.7427070324218 1287.317466438657 -518.2883526499445 1248.0020721963026L346.9830633451661 -500.471892206502Z " transform="rotate(86, 400, 400)" opacity="0.26"></path><path d="M348.2158947095045 -479.53067334591293C369.42785258648246 -522.4023730250891 430.57202534320504 -522.4023730250891 451.783983220183 -479.53067334591293L1296.9328081456392 1228.2811058382222C1315.9347356820135 1266.6821885865677 1287.9987966053532 1311.6844730712282 1245.1487638903006 1311.6844730712282H-445.1488859606131C-487.99891867566555 1311.6844730712282 -515.9348577523255 1266.6821885865677 -496.9329302159523 1228.2811058382222L348.2158947095045 -479.53067334591293Z " transform="rotate(84, 400, 400)" opacity="0.28"></path><path d="M349.44897021446786 -458.58945448532387C370.1558814753273 -500.4403994102339 429.8442405949852 -500.4403994102339 450.55115185584464 -458.58945448532387L1275.5773857116471 1208.5601394801413C1294.126886401917 1246.0469107344786 1266.8560887318438 1289.9777122552189 1225.0262948909594 1289.9777122552189H-425.0261728206468C-466.8559666615314 1289.9777122552189 -494.12676433160414 1246.0469107344786 -475.5772636413351 1208.5601394801413L349.44897021446786 -458.58945448532387Z " transform="rotate(82, 400, 400)" opacity="0.30"></path><path d="M350.68180157880647 -437.64823562473475C370.88366622354715 -478.47842579537877 429.11621170614035 -478.47842579537877 449.31807635088103 -437.64823562473475L1254.22171913703 1188.8391731220602C1272.3187929811957 1225.4116328823893 1245.7131367177099 1268.2709514392093 1204.903581750993 1268.2709514392093H-404.9037038213056C-445.71325878802224 1268.2709514392093 -472.3189150515079 1225.4116328823893 -454.22184120734295 1188.8391731220602L350.68180157880647 -437.64823562473475Z " transform="rotate(80, 400, 400)" opacity="0.31"></path><path d="M351.9148465661917 -416.70707779930194C371.6116645948141 -456.5165132156798 428.38839644034215 -456.5165132156798 448.0852144689645 -416.70707779930194L1232.8662661854596 1169.1181457288233C1250.5109131835213 1204.7762939951442 1224.5703983266226 1246.5641295880434 1184.7810822340737 1246.5641295880434H-384.7810211989175C-424.5703372914662 1246.5641295880434 -450.51085214836473 1204.7762939951442 -432.86620515030387 1169.1181457288233L351.9148465661917 -416.70707779930194Z " transform="rotate(78, 400, 400)" opacity="0.33"></path><path d="M353.14770844810823 -395.7658589387129C372.3394798606121 -434.5545396008247 427.6603980690754 -434.5545396008247 446.85216948157927 -395.7658589387129L1211.5106301284206 1149.3971793707426C1228.702850280378 1184.1410161430554 1203.4274768300663 1224.857368772034 1164.6583996116858 1224.857368772034H-364.65852168199814C-403.427598900379 1224.857368772034 -428.7029723506903 1184.1410161430554 -411.5107521987336 1149.3971793707426L353.14770844810823 -395.7658589387129Z " transform="rotate(76, 400, 400)" opacity="0.35"></path><path d="M354.38078395307184 -374.8246400781238C373.0675087494569 -412.5925659859695 426.9326133208556 -412.5925659859695 445.61933811724066 -374.8246400781238L1190.1552076944286 1129.6762130126617C1206.8950010002818 1163.505738290966 1182.2847689565572 1203.1506079560245 1144.5359306123444 1203.1506079560245H-344.5358085420319C-382.28464688624484 1203.1506079560245 -406.894878929969 1163.505738290966 -390.15508562411645 1129.6762130126617L354.38078395307184 -374.8246400781238Z " transform="rotate(74, 400, 400)" opacity="0.37"></path><path d="M355.6137373877226 -353.8834059587457C373.7954155679894 -390.6305771123252 426.204706502323 -390.6305771123252 444.3863846825898 -353.8834059587457L1168.7996631901237 1109.95526191337C1185.087029649873 1142.8704756976663 1161.1419390127357 1181.443862398804 1124.4133395426907 1181.443862398804H-324.41321747237816C-361.1418169424232 1181.443862398804 -385.0869075795602 1142.8704756976663 -368.79954111981175 1109.95526191337L355.6137373877226 -353.8834059587457Z " transform="rotate(72, 400, 400)" opacity="0.38"></path><path d="M356.846568752061 -332.9421870981566C374.52320031620934 -368.6686034974701 425.47667761347816 -368.6686034974701 443.1533091776264 -332.9421870981566L1147.4439966155069 1090.234295555289C1163.278936229152 1122.235197845577 1139.9989869986016 1159.7371015827944 1104.2906264027245 1159.7371015827944H-304.29074847303696C-339.99910906891404 1159.7371015827944 -363.27905829946394 1122.235197845577 -347.4441186858196 1090.234295555289L356.846568752061 -332.9421870981566Z " transform="rotate(70, 400, 400)" opacity="0.40"></path><path d="M358.079522186712 -312.00102927272377C375.2511071347417 -346.7066909177712 424.7487707949458 -346.7066909177712 441.9203557429755 -312.00102927272377L1126.0884521112023 1070.513268162052C1141.470964878743 1101.5998589583319 1118.85615705478 1138.0302797316288 1084.1680353330705 1138.0302797316288H-284.1681574033832C-318.8562791250924 1138.0302797316288 -341.4710869490551 1101.5998589583319 -326.08857418151496 1070.513268162052L358.079522186712 -312.00102927272377Z " transform="rotate(68, 400, 400)" opacity="0.42"></path><path d="M359.312475621363 -291.0598104121347C375.97901395327415 -324.744717302916 424.02086397641335 -324.744717302916 440.68740230832464 -291.0598104121347L1104.7329076068975 1050.7923018039712C1119.6629935283343 1080.964581106243 1097.713327110958 1116.3235189156192 1064.045444263417 1116.3235189156192H-264.0455663337295C-297.71344918127073 1116.3235189156192 -319.66311559864636 1080.964581106243 -304.73302967721025 1050.7923018039712L359.312475621363 -291.0598104121347Z " transform="rotate(66, 400, 400)" opacity="0.44"></path><path d="M360.54542905601386 -270.1185762927566C376.7069207718066 -302.78272842927174 423.2929571578809 -302.78272842927174 439.45444887367364 -270.1185762927566L1083.3773631025929 1031.0713507046796C1097.8550221779253 1060.3293185129428 1076.5704971671366 1094.6167733583986 1043.9228531937633 1094.6167733583986H-243.92297526407572C-276.5706192374491 1094.6167733583986 -297.85514424823754 1060.3293185129428 -283.3774851729056 1031.0713507046796L360.54542905601386 -270.1185762927566Z " transform="rotate(64, 400, 400)" opacity="0.45"></path><path d="M361.778413008243 -249.17735743216747C377.4348581079171 -280.82075481441655 422.56508085692667 -280.82075481441655 438.2215259566008 -249.17735743216747L1062.0218491158664 1011.3503843465987C1076.0470813450947 1039.694040660854 1055.427697740893 1072.9100125423893 1023.8002926416875 1072.9100125423893H-223.80035367684388C-255.4277587760493 1072.9100125423893 -276.04714238025065 1039.694040660854 -262.02191015102284 1011.3503843465987L361.778413008243 -249.17735743216747Z " transform="rotate(62, 400, 400)" opacity="0.47"></path><path d="M363.01133592531573 -228.2362606418909C378.1627344088714 -258.8589032698739 421.8371435208161 -258.8589032698739 436.98854200437177 -228.2362606418909L1040.6662740939835 991.6292959182053C1054.2390794771077 1019.0586407384524 1034.2848372794933 1051.2031296560672 1003.6776710544557 1051.2031296560672H-203.67779312476824C-234.28495934980577 1051.2031296560672 -254.23920154741995 1019.0586407384524 -240.66639616429626 991.6292959182053L363.01133592531573 -228.2362606418909Z " transform="rotate(60, 400, 400)" opacity="0.49"></path><path d="M364.24431987754485 -207.29504178130185C378.8906717449819 -236.89692965501874 421.10926721986186 -236.89692965501874 435.7556190872989 -207.29504178130185L1019.310760107257 971.9083295601247C1032.4311386442769 998.4233628863633 1013.1420378532496 1029.4963688400576 983.5551105023803 1029.4963688400576H-183.5551715375364C-213.142098888406 1029.4963688400576 -232.43119967943306 998.4233628863633 -219.3108211424135 971.9083295601247L364.24431987754485 -207.29504178130185Z " transform="rotate(58, 400, 400)" opacity="0.51"></path><path d="M365.477334347352 -186.3538229207128C379.6186395986706 -214.93495604016357 420.38142143648565 -214.93495604016357 434.52272668780427 -186.3538229207128L997.9552766381087 952.1873632020438C1010.6232283290246 977.788085034274 991.9992689445842 1007.789608024048 963.4325804678826 1007.789608024048H-163.4325194327264C-191.9992079094281 1007.789608024048 -210.623167293868 977.788085034274 -197.95521560295253 952.1873632020438L365.477334347352 -186.3538229207128Z " transform="rotate(56, 400, 400)" opacity="0.53"></path><path d="M366.7102267468466 -165.4126040601237C380.3464853820467 -192.9729824253084 419.65345358279706 -192.9729824253084 433.28971221799713 -165.4126040601237L976.5996710986476 932.4663968439629C988.8151959434595 957.1528071821854 970.8563779656065 986.0828472080386 943.3099283630727 986.0828472080386H-143.30998939822894C-170.8564390007627 986.0828472080386 -188.81525697861548 957.1528071821854 -176.59973213380414 932.4663968439629L366.7102267468466 -165.4126040601237Z " transform="rotate(54, 400, 400)" opacity="0.54"></path><path d="M367.9431801814976 -144.47138519953464C381.07439220057915 -171.01100881045323 418.9255467642646 -171.01100881045323 432.05675878334614 -144.47138519953464L955.244126594343 912.7454304858823C967.0072245930508 936.5175293300963 949.7135480217848 964.376086392029 923.187337293419 964.376086392029H-123.18739832857523C-149.71360905694104 964.376086392029 -167.00728562820666 936.5175293300963 -155.2441876294995 912.7454304858823L367.9431801814976 -144.47138519953464Z " transform="rotate(52, 400, 400)" opacity="0.56"></path><path d="M369.1761336161485 -123.53021211531274C381.8022990191116 -149.04908097196522 418.19763994573213 -149.04908097196522 430.82380534869526 -123.53021211531274L933.8885820900384 893.0244183514342C945.1992532426418 915.8822057016398 928.5707180779632 942.6692797996523 903.0647462237653 942.6692797996523H-103.06480725892146C-128.57077911311939 942.6692797996523 -145.1993142777979 915.8822057016398 -133.8886431251948 893.0244183514342L369.1761336161485 -123.53021211531274Z " transform="rotate(50, 400, 400)" opacity="0.58"></path><path d="M370.4090870507995 -102.58899325472368C382.53020583764396 -127.08710735711006 417.4697331271998 -127.08710735711006 429.59085191404426 -102.58899325472368L912.5330375857336 873.3034519933533C923.3912818922331 895.246927849551 907.4278881341415 920.9625189836427 882.9421551541113 920.9625189836427H-82.94221618926775C-107.42794916929773 920.9625189836427 -123.39134292738908 895.246927849551 -112.53309862089014 873.3034519933533L370.4090870507995 -102.58899325472368Z " transform="rotate(48, 400, 400)" opacity="0.60"></path><path d="M371.64204048545037 -81.64774387655649C383.2581126561763 -105.12510322467676 416.74182630866744 -105.12510322467676 428.3578984793934 -81.64774387655649L891.177493081429 853.5825161528505C901.5833105418242 874.61168051504 886.2850581903199 899.2557886852114 862.8195640844579 899.2557886852114H-62.81962511961399C-86.28511922547608 899.2557886852114 -101.58337157698031 874.61168051504 -91.1775541165855 853.5825161528505L371.64204048545037 -81.64774387655649Z " transform="rotate(46, 400, 400)" opacity="0.61"></path><path d="M372.87499392010136 -60.7065250159674C383.9860194747089 -83.1631296098216 416.01391949013487 -83.1631296098216 427.1249450447424 -60.7065250159674L869.8219485771242 833.8615497947699C879.7753391914157 853.9764026629509 865.1422282464982 877.5490278692018 842.6969730148039 877.5490278692018H-42.69703404996028C-65.14228928165443 877.5490278692018 -79.77540022657149 853.9764026629509 -69.8220096122808 833.8615497947699L372.87499392010136 -60.7065250159674Z " transform="rotate(44, 400, 400)" opacity="0.63"></path><path d="M374.10794735475224 -39.76530615537834C384.71392629324123 -61.20115599496643 415.2860126716025 -61.20115599496643 425.8919916100915 -39.76530615537834L848.4664040728196 814.1405834366892C857.9673678410068 833.3411248108619 843.9993983026766 855.8422670531922 822.5743819451504 855.8422670531922H-22.574442980306515C-43.999459337832775 855.8422670531922 -57.96742887616273 833.3411248108619 -48.46646510797615 814.1405834366892L374.10794735475224 -39.76530615537834Z " transform="rotate(42, 400, 400)" opacity="0.65"></path><path d="M375.34090078940324 -18.8241483299455C385.4418331117736 -39.23924341526751 414.5581058530702 -39.23924341526751 424.6590381754405 -18.8241483299455L827.110859568515 794.4195560434518C836.1593964905978 812.7057859236165 822.8565683588549 834.1354452020264 802.4517908754965 834.1354452020264H-2.451851910652806C-22.856629394011122 834.1354452020264 -36.15945752575391 812.7057859236165 -27.110920603671445 794.4195560434518L375.34090078940324 -18.8241483299455Z " transform="rotate(40, 400, 400)" opacity="0.67"></path><path d="M376.5738542240541 2.1170705306435593C386.16973993030604 -17.27726980041234 413.8301990345377 -17.27726980041234 423.42608474078963 2.1170705306435593L805.7553150642102 774.6985896853713C814.3514251401889 792.0705080715277 801.7137384150333 812.428684386017 782.329199805843 812.428684386017H17.67073915900096C-1.7137994501894696 812.428684386017 -14.351486175345144 792.0705080715277 -5.755376099366799 774.6985896853713L376.5738542240541 2.1170705306435593Z " transform="rotate(38, 400, 400)" opacity="0.68"></path><path d="M377.8068076587051 23.05828939123262C386.8976467488385 4.684703814442855 413.10229221600525 4.684703814442855 422.19313130613864 23.05828939123262L784.3997705599056 754.9776233272904C792.5434537897804 771.4352302194386 780.5709084712116 790.7219235700074 762.2066087361891 790.7219235700074H37.79333022865467C19.429030493632183 790.7219235700074 7.456485175063619 771.4352302194386 15.600168404937847 754.9776233272904L377.8068076587051 23.05828939123262Z " transform="rotate(36, 400, 400)" opacity="0.70"></path><path d="M379.039761093356 43.999477734243584C387.62555356737084 26.6466469117199 412.3743853974729 26.6466469117199 420.96017787148776 43.999477734243584L763.0442260556011 735.2566264516315C770.7354824393715 750.7999218497714 759.42807852739 769.0151322364198 742.0840176665353 769.0151322364198H57.915921298308376C40.571860437453836 769.0151322364198 29.26445652547244 750.7999218497714 36.95571290924255 735.2566264516315L379.039761093356 43.999477734243584Z " transform="rotate(34, 400, 400)" opacity="0.72"></path><path d="M380.272745045585 64.9407118536217C388.35349090348143 48.60863578536413 411.64650909651857 48.60863578536413 419.727254954415 64.9407118536217L741.6887120688746 715.5356753523398C748.9275416065408 730.1646592564714 738.2852791011464 747.3083866791993 721.9614571144598 747.3083866791993H78.03854288554027C61.714720898853614 747.3083866791993 51.07245839345933 730.1646592564714 58.31128793112532 715.5356753523398L380.272745045585 64.9407118536217Z " transform="rotate(32, 400, 400)" opacity="0.74"></path><path d="M381.50566796265787 85.88186967905455C389.08136720443576 70.57054836506305 410.918571760408 70.57054836506305 418.4942710021859 85.88186967905455L720.3331370469917 695.8146479591027C727.1195397385538 709.5293203692262 717.1424186397467 725.6015648280336 701.8388355272278 725.6015648280336H98.16110343761585C82.85752032509714 725.6015648280336 72.88039922629002 709.5293203692262 79.66680191785184 695.8146479591027L381.50566796265787 85.88186967905455Z " transform="rotate(30, 400, 400)" opacity="0.75"></path><path d="M382.7386824324651 106.8230885396436C389.80933505812436 92.53252197991822 410.1907259770319 92.53252197991822 417.26137860269114 106.8230885396436L698.9776535778434 676.0936816010219C705.3116294233014 688.894042517137 695.9996497310811 703.894804012024 681.7163054927304 703.894804012024H118.28375554242587C104.00041130407504 703.894804012024 94.68843161185504 688.894042517137 101.0224074573128 676.0936816010219L382.7386824324651 106.8230885396436Z " transform="rotate(28, 400, 400)" opacity="0.77"></path><path d="M383.97157483195974 127.7643074002327C390.53718084150046 114.49449559477338 409.4627581233433 114.49449559477338 416.028364132884 127.7643074002327L677.6220480383824 656.3727152429411C683.5035970377363 668.2587646650481 674.8567587521034 682.1880431960145 661.5936533879204 682.1880431960145H138.40628557692332C125.14318021274039 682.1880431960145 116.49634192710761 668.2587646650481 122.37789092646119 656.3727152429411L383.97157483195974 127.7643074002327Z " transform="rotate(26, 400, 400)" opacity="0.79"></path><path d="M385.2045282666106 148.70552626082176C391.2650876600329 136.45646920962855 408.73485130481083 136.45646920962855 414.7954106982331 148.70552626082176L656.2665035340777 636.6517488848602C661.6956256873275 647.6234868129591 653.7139288082817 660.4812823800049 641.4710623182666 660.4812823800049H158.5288766465771C146.28601015656204 660.4812823800049 138.30431327751637 647.6234868129591 143.7334354307659 636.6517488848602L385.2045282666106 148.70552626082176Z " transform="rotate(24, 400, 400)" opacity="0.81"></path><path d="M386.43751221883974 169.64672986262175C391.9930249961435 158.41842756569466 408.0069750038565 158.41842756569466 413.56248778116026 169.64672986262175L634.9109895473512 616.9307672679904C639.8876848544969 626.9881937020809 632.5711293820382 638.7745063052064 621.348501766191 638.7745063052064H178.65149823380892C167.42887061796182 638.7745063052064 160.11231514550332 626.9881937020809 165.08901045264867 616.9307672679904L386.43751221883974 169.64672986262175Z " transform="rotate(22, 400, 400)" opacity="0.82"></path><path d="M387.6704656534907 190.58791820563272C392.72093181467585 180.38037066297173 407.27906818532415 180.38037066297173 412.3295343465093 190.58791820563272L613.5554450430466 597.2097703923314C618.079713504088 606.3528853324137 611.4282994382165 617.0677149716187 601.2259106965373 617.0677149716187H198.7740893034627C188.57170056178347 617.0677149716187 181.92028649591208 606.3528853324137 186.4445549569533 597.2097703923314L387.6704656534907 190.58791820563272Z " transform="rotate(20, 400, 400)" opacity="0.84"></path><path d="M388.90340382935256 211.52913706622178C393.44882337441925 202.3423442778269 406.5511461080026 202.3423442778269 411.0965656530693 211.52913706622178L592.1998852799528 577.4888040342507C596.2717268948902 585.7176074803248 590.2854542356058 595.3609541556092 581.1033043680945 595.3609541556092H218.89666511432733C209.71451524681606 595.3609541556092 203.72824258753184 585.7176074803248 207.80008420246895 577.4888040342507L388.90340382935256 211.52913706622178Z " transform="rotate(18, 400, 400)" opacity="0.86"></path><path d="M390.1363725227925 232.47032540923274C394.1767454517407 224.30428737510394 405.8232545482593 224.30428737510394 409.8636274772075 232.47032540923274L570.8443560344373 557.7678071585917C574.4637708032703 565.0822991106576 569.1426395505732 573.6541628220216 560.9807285572299 573.6541628220216H239.0192714427701C230.85736044942678 573.6541628220216 225.53622919672966 565.0822991106576 229.15564396556266 557.7678071585917L390.1363725227925 232.47032540923274Z " transform="rotate(16, 400, 400)" opacity="0.88"></path><path d="M391.36931069865443 253.4115442698218C394.90463701148406 246.2662609899591 405.0953324709378 246.2662609899591 408.63065878376744 253.4115442698218L549.4887962713435 538.046840800511C552.6557841940726 544.4470212585685 547.9997943479625 551.947402006012 540.8581222287871 551.947402006012H259.1418472536348C252.00017513445937 551.947402006012 247.34418528834942 544.4470212585685 250.51117321107824 538.046840800511L391.36931069865443 253.4115442698218Z " transform="rotate(14, 400, 400)" opacity="0.89"></path><path d="M392.6022793920944 274.35276313041084C395.6325590888055 268.22823460481425 404.3674409111945 268.22823460481425 407.3977206079056 274.35276313041084L528.133267025828 518.3258744424302C530.8478281024528 523.8117434064795 526.8569796629299 530.2406411900024 520.7355464179224 530.2406411900024H279.2644535820776C273.1430203370701 530.2406411900024 269.15217189754725 523.8117434064795 271.866732974172 518.3258744424302L392.6022793920944 274.35276313041084Z " transform="rotate(12, 400, 400)" opacity="0.91"></path><path d="M393.83523282674537 295.2939667322109C396.3604659073379 290.1901929608804 403.6395340926621 290.1901929608804 406.16476717325463 295.2939667322109L506.7777225215233 498.6048928255602C509.039856752044 503.1764502956014 505.71414971910826 508.53386511520387 500.61295534826866 508.53386511520387H299.38704465173134C294.28585028089174 508.53386511520387 290.96014324795607 503.1764502956014 293.22227747847666 498.6048928255602L393.83523282674537 295.2939667322109Z " transform="rotate(10, 400, 400)" opacity="0.93"></path><path d="M395.06818626139625 316.2351703340109C397.0883727258704 312.1521513169465 402.9116272741296 312.1521513169465 404.93181373860375 316.2351703340109L485.42217801721864 478.8839112086904C487.23188540163517 482.5411571847233 484.5713197752866 486.8270890404053 480.49036427861495 486.8270890404053H319.50963572138505C315.4286802247134 486.8270890404053 312.76811459836483 482.5411571847233 314.57782198278136 478.8839112086904L395.06818626139625 316.2351703340109Z " transform="rotate(8, 400, 400)" opacity="0.95"></path><path d="M396.3011396960472 337.1763891946C397.81627954440273 334.1141249318017 402.18372045559727 334.1141249318017 403.6988603039528 337.1763891946L464.066633512914 459.1629448506096C465.4239140512264 461.9058793326343 463.42848983146496 465.12032822439573 460.3677732089612 465.12032822439573H339.6322267910388C336.57151016853504 465.12032822439573 334.57608594877365 461.9058793326343 335.933366487086 459.1629448506096L396.3011396960472 337.1763891946Z " transform="rotate(6, 400, 400)" opacity="0.96"></path><path d="M397.5340931306981 358.1175927964C398.5441863629352 356.0760832878678 401.4558136370648 356.0760832878678 402.4659068693019 358.1175927964L442.7110890086093 439.4419632337397C443.6159427008176 441.27058622175616 442.2856598876433 443.4135521495972 440.2451821393075 443.4135521495972H359.7548178606925C357.7143401123567 443.4135521495972 356.3840572991824 441.27058622175616 357.28891099139065 439.4419632337397L397.5340931306981 358.1175927964Z " transform="rotate(4, 400, 400)" opacity="0.98"></path><path d="M398.76704656534906 379.0587963982C399.2720931814676 378.03804164393387 400.7279068185324 378.03804164393387 401.23295343465094 379.0587963982L421.35554450430465 419.7209816168699C421.8079713504088 420.6352931108781 421.14282994382165 421.7067760747986 420.1225910696537 421.7067760747986H379.8774089303463C378.85717005617835 421.7067760747986 378.19202864959124 420.6352931108781 378.64445549569535 419.7209816168699L398.76704656534906 379.0587963982Z " transform="rotate(2, 400, 400)" opacity="1.00"></path></g></svg>