<svg version="1.2" xmlns="http://www.w3.org/2000/svg" viewBox="0 0 925 500" width="925" height="500"><defs><clipPath clipPathUnits="userSpaceOnUse" id="cp1"><path d="m925 500h-925v-500h925z"/></clipPath><linearGradient id="P" gradientUnits="userSpaceOnUse"/><radialGradient id="g1" cx="0" cy="0" r="1" href="#P" gradientTransform="matrix(0,-480.382,480.382,0,458.387,348.66)"><stop stop-color="#003140"/><stop offset="1"/></radialGradient></defs><style>.a{mix-blend-mode:screen;fill:url(#g1)}</style><g clip-path="url(#cp1)"><path fill-rule="evenodd" class="a" d="m931.2-15.1v1.8h-937.4v-1.8zm0 5.5v1.9h-937.3v-1.9zm0 5.6v1.8h-937.3v-1.8zm0 5.5v1.9h-937.4v-1.9zm0 5.6v1.8h-937.3v-1.8zm0 5.5v1.9h-937.3v-1.9zm0 5.6v1.8h-937.3v-1.8zm0 5.5v1.9h-937.4v-1.9zm0 5.6v1.8h-937.3v-1.8zm0 5.5v1.9h-937.3v-1.9zm0 5.6v1.8h-937.4v-1.8zm0 5.5v1.9h-937.3v-1.9zm0 5.6v1.8h-937.3v-1.8zm0 5.5v1.9h-937.3v-1.9zm0 5.6v1.8h-937.4v-1.8zm0 5.5v1.9h-937.3v-1.9zm0 5.6v1.8h-937.3v-1.8zm0 5.5v1.9h-937.4v-1.9zm0 5.6v1.8h-937.3v-1.8zm0 5.5v1.9h-937.3v-1.9zm0 5.6v1.8h-937.4v-1.8zm0 5.5v1.9h-937.3v-1.9zm0 5.6v1.8h-937.3v-1.8zm0 5.5v1.9h-937.3v-1.9zm0 5.6v1.8h-937.4v-1.8zm0 5.5v1.9h-937.3v-1.9zm0 5.6v1.8h-937.3v-1.8zm0 5.5v1.9h-937.4v-1.9zm0 5.6v1.8h-937.3v-1.8zm0 5.5v1.9h-937.3v-1.9zm0 5.6v1.8h-937.3v-1.8zm0 5.5v1.9h-937.4v-1.9zm0 5.6v1.8h-937.3v-1.8zm0 5.5v1.9h-937.3v-1.9zm0 5.6v1.8h-937.4v-1.8zm0 5.5v1.9h-937.3v-1.9zm0 5.6v1.8h-937.3v-1.8zm0 5.5v1.9h-937.4v-1.9zm0 5.6v1.8h-937.3v-1.8zm0 5.5v1.9h-937.3v-1.9zm0 5.6v1.8h-937.3v-1.8zm0 5.5v1.9h-937.4v-1.9zm0 5.6v1.8h-937.3v-1.8zm0 5.5v1.9h-937.3v-1.9zm0 5.6v1.9h-937.4v-1.9zm0 5.5v1.9h-937.3v-1.9zm0 5.6v1.9h-937.3v-1.9zm0 5.6v1.8h-937.3v-1.8zm0 5.5v1.9h-937.4v-1.9zm0 5.6v1.8h-937.3v-1.8zm0 5.5v1.9h-937.3v-1.9zm0 5.6v1.8h-937.4v-1.8zm0 5.5v1.9h-937.3v-1.9zm0 5.6v1.8h-937.3v-1.8zm0 5.5v1.9h-937.4v-1.9zm0 5.6v1.8h-937.3v-1.8zm0 5.5v1.9h-937.3v-1.9zm0 5.6v1.8h-937.3v-1.8zm0 5.5v1.9h-937.4v-1.9zm0 5.6v1.8h-937.3v-1.8zm0 5.5v1.9h-937.3v-1.9zm0 5.6v1.8h-937.4v-1.8zm0 5.5v1.9h-937.3v-1.9zm0 5.6v1.8h-937.3v-1.8zm0 5.5v1.9h-937.3v-1.9zm0 5.6v1.8h-937.4v-1.8z"/></g></svg>