<svg version="1.2" xmlns="http://www.w3.org/2000/svg" viewBox="0 0 925 500" width="925" height="500">
	<title>retrofuturism-ai</title>
	<defs>
		<clipPath clipPathUnits="userSpaceOnUse" id="cp1">
			<path d="m925 500h-925v-500h925z"/>
		</clipPath>
		<linearGradient id="g1" x2="1" gradientUnits="userSpaceOnUse" gradientTransform="matrix(0,72.745,-78.497,0,503.043,433.968)">
			<stop offset="0" stop-color="#7d6c00"/>
			<stop offset="1" stop-color="#000000"/>
		</linearGradient>
		<linearGradient id="g2" x2="1" gradientUnits="userSpaceOnUse" gradientTransform="matrix(0,65.709,-63.841,0,493.849,386.91)">
			<stop offset="0" stop-color="#1dedd5"/>
			<stop offset="1" stop-color="#224570"/>
		</linearGradient>
		<linearGradient id="g3" x2="1" gradientUnits="userSpaceOnUse" gradientTransform="matrix(41.979,138.417,-62.161,18.852,463.724,225.506)">
			<stop offset="0" stop-color="#1dedd5"/>
			<stop offset="1" stop-color="#224570"/>
		</linearGradient>
		<linearGradient id="g4" x2="1" gradientUnits="userSpaceOnUse" gradientTransform="matrix(44.207,145.764,-150.238,45.564,481.878,205.562)">
			<stop offset="0" stop-color="#1dedd5"/>
			<stop offset="1" stop-color="#224570"/>
		</linearGradient>
		<linearGradient id="g5" x2="1" gradientUnits="userSpaceOnUse" gradientTransform="matrix(49.057,161.757,-179.28,54.372,383.893,232.225)">
			<stop offset="0" stop-color="#1dedd5"/>
			<stop offset="1" stop-color="#224570"/>
		</linearGradient>
		<linearGradient id="g6" x2="1" gradientUnits="userSpaceOnUse" gradientTransform="matrix(-77.49,33.737,-79.965,-183.67,568.253,301.536)">
			<stop offset="0" stop-color="#1dedd5"/>
			<stop offset="1" stop-color="#224570"/>
		</linearGradient>
		<linearGradient id="g7" x2="1" gradientUnits="userSpaceOnUse" gradientTransform="matrix(4.759,-54.251,42.852,3.759,482.007,320.398)">
			<stop offset="0" stop-color="#1dedd5"/>
			<stop offset="1" stop-color="#224570"/>
		</linearGradient>
		<linearGradient id="g8" x2="1" gradientUnits="userSpaceOnUse" gradientTransform="matrix(6.386,-53.639,18.935,2.254,385.007,384.784)">
			<stop offset="0" stop-color="#1dedd5"/>
			<stop offset="1" stop-color="#224570"/>
		</linearGradient>
		<linearGradient id="g9" x2="1" gradientUnits="userSpaceOnUse" gradientTransform="matrix(10.989,0,0,13.165,472.138,401.213)">
			<stop offset="0" stop-color="#1dedd5"/>
			<stop offset="1" stop-color="#224570"/>
		</linearGradient>
		<linearGradient id="g10" x2="1" gradientUnits="userSpaceOnUse" gradientTransform="matrix(36.599,0,0,19.231,444.317,416.519)">
			<stop offset="0" stop-color="#1dedd5"/>
			<stop offset="1" stop-color="#224570"/>
		</linearGradient>
		<linearGradient id="g11" x2="1" gradientUnits="userSpaceOnUse" gradientTransform="matrix(-23.219,39.849,-42.549,-24.792,549.671,280.118)">
			<stop offset="0" stop-color="#1dedd5"/>
			<stop offset="1" stop-color="#224570"/>
		</linearGradient>
		<linearGradient id="g12" x2="1" gradientUnits="userSpaceOnUse" gradientTransform="matrix(4.527,-69.517,23.663,1.541,326.607,402.982)">
			<stop offset="0" stop-color="#1dedd5"/>
			<stop offset="1" stop-color="#224570"/>
		</linearGradient>
		<linearGradient id="g13" x2="1" gradientUnits="userSpaceOnUse" gradientTransform="matrix(124.028,106.801,-380.815,442.237,394.35,200.125)">
			<stop offset="0" stop-color="#1dedd5"/>
			<stop offset="1" stop-color="#224570"/>
		</linearGradient>
		<linearGradient id="g14" x2="1" gradientUnits="userSpaceOnUse" gradientTransform="matrix(240.983,196.618,-1255.489,1538.778,346.589,168.814)">
			<stop offset="0" stop-color="#139b82"/>
			<stop offset="1" stop-color="#000000"/>
		</linearGradient>
		<linearGradient id="g15" x2="1" gradientUnits="userSpaceOnUse" gradientTransform="matrix(19.636,-98.429,34.757,6.934,271.02,386.044)">
			<stop offset="0" stop-color="#139b82"/>
			<stop offset="1" stop-color="#000000"/>
		</linearGradient>
		<linearGradient id="g16" x2="1" gradientUnits="userSpaceOnUse" gradientTransform="matrix(-26.437,68.403,-94.928,-36.688,521.83,256.74)">
			<stop offset="0" stop-color="#139b82"/>
			<stop offset="1" stop-color="#000000"/>
		</linearGradient>
		<linearGradient id="g17" x2="1" gradientUnits="userSpaceOnUse" gradientTransform="matrix(2.379,46.039,-29.571,1.528,540.395,264.537)">
			<stop offset="0" stop-color="#139b82"/>
			<stop offset="1" stop-color="#000000"/>
		</linearGradient>
		<linearGradient id="g18" x2="1" gradientUnits="userSpaceOnUse" gradientTransform="matrix(75.557,0,0,55.03,404.691,268.584)">
			<stop offset="0" stop-color="#ff8644"/>
			<stop offset=".5" stop-color="#fff18e"/>
			<stop offset="1" stop-color="#ff8644"/>
		</linearGradient>
		<linearGradient id="g19" x2="1" gradientUnits="userSpaceOnUse" gradientTransform="matrix(8.464,0,0,42.303,488.589,280.278)">
			<stop offset="0" stop-color="#ff8644"/>
			<stop offset=".5" stop-color="#fff18e"/>
			<stop offset="1" stop-color="#ff8644"/>
		</linearGradient>
		<linearGradient id="g20" x2="1" gradientUnits="userSpaceOnUse" gradientTransform="matrix(30.696,0,0,21.018,491.773,277.451)">
			<stop offset="0" stop-color="#ff8644"/>
			<stop offset=".5" stop-color="#fff18e"/>
			<stop offset="1" stop-color="#ff8644"/>
		</linearGradient>
		<linearGradient id="g21" x2="1" gradientUnits="userSpaceOnUse" gradientTransform="matrix(26.605,0,0,84.752,445.94,329.74)">
			<stop offset="0" stop-color="#ff8644"/>
			<stop offset=".5" stop-color="#fff18e"/>
			<stop offset="1" stop-color="#ff8644"/>
		</linearGradient>
	</defs>
	<style>
		.s0 { fill: #00fecf } 
		.s1 { mix-blend-mode: screen;fill: url(#g1) } 
		.s2 { fill: #adfedc } 
		.s3 { fill: url(#g2) } 
		.s4 { fill: #224570 } 
		.s5 { fill: url(#g3) } 
		.s6 { fill: url(#g4) } 
		.s7 { fill: url(#g5) } 
		.s8 { fill: url(#g6) } 
		.s9 { fill: url(#g7) } 
		.s10 { fill: #172352 } 
		.s11 { fill: url(#g8) } 
		.s12 { fill: url(#g9) } 
		.s13 { fill: url(#g10) } 
		.s14 { fill: url(#g11) } 
		.s15 { fill: url(#g12) } 
		.s16 { fill: url(#g13) } 
		.s17 { mix-blend-mode: screen;fill: url(#g14) } 
		.s18 { mix-blend-mode: screen;fill: url(#g15) } 
		.s19 { mix-blend-mode: screen;fill: url(#g16) } 
		.s20 { mix-blend-mode: screen;fill: url(#g17) } 
		.s21 { fill: url(#g18) } 
		.s22 { fill: url(#g19) } 
		.s23 { fill: url(#g20) } 
		.s24 { fill: url(#g21) } 
	</style>
	<g id="_Artboards_">
	</g>
	<g id="layer 1">
		<g id="&lt;Clip Group&gt;" clip-path="url(#cp1)">
			<g id="&lt;Group&gt;">
				<g id="&lt;Group&gt;">
				</g>
				<g id="&lt;Group&gt;">
					<path id="&lt;Path&gt;" class="s0" d="m1008.9 352.9l-2.2-3.6 2.2-5.3 0.5 0.2-2.2 5.1 2.1 3.3z"/>
				</g>
				<g id="&lt;Group&gt;">
					<path id="&lt;Path&gt;" class="s0" d="m1023.2 353l-16.2-3.5-5.2 3.4-0.3-0.3 5.4-3.6 0.1 0.1 15.9 3.4 1.2-3.1 0.4 0.2z"/>
				</g>
				<g id="&lt;Group&gt;">
				</g>
				<g id="&lt;Group&gt;">
					<path id="&lt;Path&gt;" class="s0" d="m995.8 352.8l-0.5-3.5h0.4l0.5 3.4z"/>
				</g>
				<g id="&lt;Group&gt;">
				</g>
				<g id="&lt;Group&gt;">
				</g>
				<g id="&lt;Group&gt;">
				</g>
				<g id="&lt;Group&gt;">
				</g>
				<g id="&lt;Group&gt;">
				</g>
				<g id="&lt;Group&gt;">
				</g>
				<g id="&lt;Group&gt;">
				</g>
				<g id="&lt;Group&gt;">
				</g>
				<g id="&lt;Group&gt;">
				</g>
				<g id="&lt;Group&gt;">
				</g>
				<g id="&lt;Group&gt;">
				</g>
				<g id="&lt;Group&gt;">
				</g>
				<g id="&lt;Group&gt;">
				</g>
				<g id="&lt;Group&gt;">
				</g>
				<g id="&lt;Group&gt;">
				</g>
				<g id="&lt;Group&gt;">
				</g>
				<g id="&lt;Group&gt;">
				</g>
				<g id="&lt;Group&gt;">
				</g>
				<g id="&lt;Group&gt;">
				</g>
				<g id="&lt;Group&gt;">
				</g>
				<g id="&lt;Group&gt;">
				</g>
				<g id="&lt;Group&gt;">
				</g>
				<g id="&lt;Group&gt;">
				</g>
				<g id="&lt;Group&gt;">
				</g>
				<g id="&lt;Group&gt;">
				</g>
				<g id="&lt;Group&gt;">
				</g>
				<g id="&lt;Group&gt;">
				</g>
				<g id="&lt;Group&gt;">
				</g>
				<g id="&lt;Group&gt;">
				</g>
				<g id="&lt;Group&gt;">
				</g>
				<g id="&lt;Group&gt;">
				</g>
				<g id="&lt;Group&gt;">
				</g>
				<g id="&lt;Group&gt;">
				</g>
				<g id="&lt;Group&gt;">
				</g>
				<g id="&lt;Group&gt;">
				</g>
				<g id="&lt;Group&gt;">
				</g>
				<g id="&lt;Group&gt;">
				</g>
				<g id="&lt;Group&gt;">
				</g>
				<g id="&lt;Group&gt;">
				</g>
				<g id="&lt;Group&gt;">
				</g>
				<g id="&lt;Group&gt;">
				</g>
				<g id="&lt;Group&gt;">
				</g>
				<g id="&lt;Group&gt;">
				</g>
				<g id="&lt;Group&gt;">
				</g>
				<g id="&lt;Group&gt;">
				</g>
				<g id="&lt;Group&gt;">
				</g>
				<g id="&lt;Group&gt;">
				</g>
				<g id="&lt;Group&gt;">
				</g>
				<g id="&lt;Group&gt;">
				</g>
				<g id="&lt;Group&gt;">
				</g>
				<g id="&lt;Group&gt;">
				</g>
				<g id="&lt;Group&gt;">
				</g>
				<g id="&lt;Group&gt;">
				</g>
				<g id="&lt;Group&gt;">
				</g>
				<g id="&lt;Group&gt;">
				</g>
				<g id="&lt;Group&gt;">
				</g>
				<g id="&lt;Group&gt;">
				</g>
			</g>
			<g id="&lt;Group&gt;">
				<g id="&lt;Group&gt;">
				</g>
				<g id="&lt;Group&gt;">
				</g>
				<g id="&lt;Group&gt;">
				</g>
				<g id="&lt;Group&gt;">
				</g>
				<g id="&lt;Group&gt;">
				</g>
				<g id="&lt;Group&gt;">
				</g>
				<g id="&lt;Group&gt;">
				</g>
				<g id="&lt;Group&gt;">
				</g>
				<g id="&lt;Group&gt;">
				</g>
				<g id="&lt;Group&gt;">
				</g>
				<g id="&lt;Group&gt;">
				</g>
				<g id="&lt;Group&gt;">
				</g>
				<g id="&lt;Group&gt;">
				</g>
				<g id="&lt;Group&gt;">
				</g>
				<g id="&lt;Group&gt;">
				</g>
				<g id="&lt;Group&gt;">
				</g>
				<g id="&lt;Group&gt;">
				</g>
				<g id="&lt;Group&gt;">
				</g>
				<g id="&lt;Group&gt;">
				</g>
				<g id="&lt;Group&gt;">
				</g>
				<g id="&lt;Group&gt;">
				</g>
				<g id="&lt;Group&gt;">
				</g>
				<g id="&lt;Group&gt;">
				</g>
				<g id="&lt;Group&gt;">
				</g>
				<g id="&lt;Group&gt;">
				</g>
				<g id="&lt;Group&gt;">
				</g>
				<g id="&lt;Group&gt;">
				</g>
				<g id="&lt;Group&gt;">
				</g>
				<g id="&lt;Group&gt;">
				</g>
				<g id="&lt;Group&gt;">
				</g>
				<g id="&lt;Group&gt;">
				</g>
				<g id="&lt;Group&gt;">
				</g>
				<g id="&lt;Group&gt;">
				</g>
				<g id="&lt;Group&gt;">
				</g>
				<g id="&lt;Group&gt;">
				</g>
				<g id="&lt;Group&gt;">
				</g>
				<g id="&lt;Group&gt;">
				</g>
				<g id="&lt;Group&gt;">
				</g>
				<g id="&lt;Group&gt;">
				</g>
				<g id="&lt;Group&gt;">
				</g>
				<g id="&lt;Group&gt;">
				</g>
				<g id="&lt;Group&gt;">
				</g>
				<g id="&lt;Group&gt;">
				</g>
				<g id="&lt;Group&gt;">
				</g>
				<g id="&lt;Group&gt;">
				</g>
				<g id="&lt;Group&gt;">
				</g>
				<g id="&lt;Group&gt;">
				</g>
				<g id="&lt;Group&gt;">
				</g>
				<g id="&lt;Group&gt;">
				</g>
				<g id="&lt;Group&gt;">
				</g>
				<g id="&lt;Group&gt;">
				</g>
				<g id="&lt;Group&gt;">
				</g>
				<g id="&lt;Group&gt;">
				</g>
				<g id="&lt;Group&gt;">
				</g>
				<g id="&lt;Group&gt;">
				</g>
				<g id="&lt;Group&gt;">
				</g>
				<g id="&lt;Group&gt;">
				</g>
				<g id="&lt;Group&gt;">
				</g>
				<g id="&lt;Group&gt;">
				</g>
				<g id="&lt;Group&gt;">
				</g>
				<g id="&lt;Group&gt;">
				</g>
				<g id="&lt;Group&gt;">
				</g>
			</g>
			<g id="&lt;Group&gt;">
			</g>
			<g id="&lt;Group&gt;">
				<g id="&lt;Group&gt;" style="mix-blend-mode: screen">
				</g>
			</g>
			<g id="&lt;Group&gt;">
				<g id="&lt;Group&gt;">
					<g id="&lt;Group&gt;">
						<g id="&lt;Group&gt;">
						</g>
						<g id="&lt;Group&gt;">
						</g>
						<g id="&lt;Group&gt;">
						</g>
						<g id="&lt;Group&gt;">
						</g>
						<g id="&lt;Group&gt;">
						</g>
					</g>
					<g id="&lt;Group&gt;">
						<g id="&lt;Group&gt;">
						</g>
						<g id="&lt;Group&gt;">
						</g>
						<g id="&lt;Group&gt;">
						</g>
						<g id="&lt;Group&gt;">
						</g>
						<g id="&lt;Group&gt;">
						</g>
					</g>
					<g id="&lt;Group&gt;">
						<g id="&lt;Group&gt;">
						</g>
						<g id="&lt;Group&gt;">
						</g>
						<g id="&lt;Group&gt;">
						</g>
						<g id="&lt;Group&gt;">
						</g>
						<g id="&lt;Group&gt;">
						</g>
					</g>
				</g>
				<g id="&lt;Group&gt;">
					<g id="&lt;Group&gt;">
						<g id="&lt;Group&gt;">
						</g>
						<g id="&lt;Group&gt;">
						</g>
						<g id="&lt;Group&gt;">
						</g>
						<g id="&lt;Group&gt;">
						</g>
						<g id="&lt;Group&gt;">
						</g>
					</g>
					<g id="&lt;Group&gt;">
						<g id="&lt;Group&gt;">
						</g>
						<g id="&lt;Group&gt;">
						</g>
						<g id="&lt;Group&gt;">
						</g>
						<g id="&lt;Group&gt;">
						</g>
						<g id="&lt;Group&gt;">
						</g>
					</g>
					<g id="&lt;Group&gt;">
						<g id="&lt;Group&gt;">
						</g>
						<g id="&lt;Group&gt;">
						</g>
						<g id="&lt;Group&gt;">
						</g>
						<g id="&lt;Group&gt;">
						</g>
						<g id="&lt;Group&gt;">
						</g>
					</g>
				</g>
			</g>
			<g id="&lt;Group&gt;">
				<g id="&lt;Group&gt;">
				</g>
			</g>
			<g id="&lt;Group&gt;">
				<g id="&lt;Group&gt;">
				</g>
			</g>
			<g id="&lt;Group&gt;">
				<g id="&lt;Group&gt;">
				</g>
			</g>
			<g id="&lt;Group&gt;">
				<g id="&lt;Group&gt;">
				</g>
			</g>
			<g id="&lt;Group&gt;">
				<g id="&lt;Group&gt;">
				</g>
			</g>
			<path id="&lt;Path&gt;" class="s1" d="m509.6 523.5h-92.8l20.4-86h52z"/>
			<g id="&lt;Group&gt;">
				<g id="&lt;Group&gt;">
					<path id="&lt;Path&gt;" class="s2" d="m434.8 436.9c-1.6 20 58.8 20.2 57.3-0.2h0.1c3.9 23.2-60.6 23.8-57.4 0.2z"/>
					<path id="&lt;Path&gt;" class="s3" d="m492.1 436.7c1.5 20.4-58.9 20.2-57.3 0.2q0-0.1 0-0.2 0.1-1.1 0.4-2.3c3.6-11.7 5.8-22.7 7.6-33.4 1.9-11.1 39.2-10.6 41.4 0 2.3 10.5 4.3 21.8 7.6 33.4q0.3 1.2 0.3 2.3z"/>
				</g>
				<g id="&lt;Group&gt;">
					<path id="&lt;Path&gt;" class="s2" d="m480.9 428.4c0.4 3.1 0.6 6.5 0.3 6.7-3.2 1.9-7.7 2.4-12.5 2.4-0.7-0.5-1.1-1.2-1.6-2-1 0.6-1.9 1.3-2.5 2-7.6 0-14.2-1-19.2-3.4-0.4-1.2-0.8-2.3-1-3.2l2.4 2c3.8 2.1 10.4 2.6 17.5 2.9l4.3-2.7 1.9 1.9c2.1-0.1 4.2-0.4 6-0.9l0.7-3.3q2.2-0.9 3.7-2.4z"/>
					<path id="&lt;Path&gt;" class="s2" d="m458.8 422c-0.7 2-0.8 4.2-0.4 6.6-3.2 0.7-6.1 0.8-8.8 0.3 0.1-1.9 1.1-3.4 3-4.6 2.2-0.4 4-1.3 6.2-2.3z"/>
					<path id="&lt;Path&gt;" class="s4" d="m477.6 260.2l-1.6-0.1-0.9-0.1q-0.1 1.2-0.5 2.4c-1.7-0.4-3.3-1-4.7-1.9q-0.4 1.9-0.9 3.9c-1.3-0.9-2.4-1.8-3.1-2.8l-0.7 1.2q-1.3 0-2.5-0.4-1.4-0.4-2.9-1.1-3.3-2.5-5.5-6.6c0.6-3 0.7-5.8-0.8-7.8-0.1-0.2-0.3-0.3-0.5-0.3-0.9-0.1-1.7 0.8-2.4 2h-0.1q-1.6-0.8-2.6-2.7l1.8-0.8c-1.6-2.1-3-4.2-3.3-6.6h3c-1.7-1.6-2.8-3.6-3.3-6 1.7 1.1 4.1 2 6.7 2.8l-1.6-2.8c3.6-0.6 7.2-0.4 10.8 0.7l1-1.7q4.2 1.8 8.2 5.1l0.8-1.2c2.9 3.5 4.9 7.1 5.1 11 0.3 3.3-0.3 6.4-1.5 9.1 0.4 1.8 1.2 3.3 2 4.7z"/>
					<path id="&lt;Path&gt;" class="s5" d="m459.8 261.3l-3.9 2.5c-2.9-0.3-4.1-2.1-4.6-3.6-1.1-4.2-1.7-8.1-0.8-11.6h0.1c0.7-1.2 1.5-2.1 2.4-2 0.2 0 0.4 0.1 0.5 0.3 1.5 2 1.4 4.8 0.8 7.8q2.2 4.1 5.5 6.6z"/>
					<path id="&lt;Path&gt;" class="s6" d="m515.6 316.6q-0.8 1.8-2.1 3.2l-2.3 0.6q-3.7-0.9-6.6-3c-0.9 0.1-1.7 0.2-2.3 0q-0.9-0.8-0.8-1.9 0.7-1.6 1.6-2.7-0.3-0.8-0.4-1.6c0.5-0.9 1.3-1.6 2.2-2.3q0.8-0.1 1.6 0.2 0.8 2.1 1.7 3.6c1.7 2.6 4 3.8 7.4 3.9z"/>
					<path id="&lt;Path&gt;" class="s7" d="m405.9 311.7c-1.7 3.3-1.3 7.2 0.3 9.5-1.2 1.4-2.9 2.1-4.9 2.4q-2.6-0.5-4.6-1.6l-2.3 2.1 0.8 1.5c0.2 0.7 0.1 1.3-0.3 1.8-1.2 0-2.4-0.2-3.4-0.7-0.8-2.7-1.3-5.3-1.3-7.8 0.7-1.7 1.6-3.3 2.6-4.5l-0.9-1.2c-0.1-0.8 0-1.6 0.6-2.1 1.9-0.3 4-0.1 6.1 0.4 0.8-0.6 1.6-1.1 2.5-1.4 1.5 0 3.2 0.7 4.8 1.6z"/>
					<path id="&lt;Path&gt;" class="s8" d="m522.6 295.1c0.8 7-1.6 14.3-3.1 21.2q-2.2 0.4-3.9 0.3c-3.4-0.1-5.7-1.3-7.4-3.9 1.7-3.8 2.8-7.6 2.9-11.1-3.6-3-6.8-4.6-12-7.6l-1.7-3.1-3.6-2.8q-0.6-2-1.2-3.9c-1.8-5.3-4-10.2-7.6-14l-0.8-2-1.1-0.8 4.8 1.7h3.7l1.6 3.7 4.4 2.4v2c9.5 5.8 18.2 11.7 25 17.9z"/>
					<path id="&lt;Path&gt;" class="s9" d="m511.1 301.6c-0.1 3.5-1.2 7.3-2.9 11.1q-0.9-1.5-1.7-3.6c0.4-1.7 0.7-3.3 0.5-4.7l-1.5-0.3-0.7-2.8c-2.6-2-5.5-3.8-8.7-5.4q-1-3.8-2.3-7.8l3.6 2.8 1.7 3.1c5.2 3 8.4 4.6 12 7.6z"/>
					<path id="&lt;Path&gt;" class="s10" d="m493.5 324.2l5-6.1q-0.2 3.1-1 5.9v2.8l-1.7 0.6-1.9 0.7c-11 1.5-21.1 0.7-29.7-3.5q-1.2-0.6-2.3-1.3v-4.4l-3.7-7.9 1.6-2.2q-2.5-8.1-7.7-17.6l3.9-3.3-1.2 3.3c3.9 5.7 7.1 11.4 9.7 17.1l-2.6 3.3 4.4 6.5v3q6.4 2.1 12.7 2.9c3.5 0.5 7.3 0.6 11.2 0.5q1.6-0.1 3.3-0.3z"/>
					<path id="&lt;Path&gt;" class="s11" d="m495.8 327.4c0.2 4.3-1 9.1-3.1 14.1-7.8 7.3-14.9 14.7-20.9 22.2l0.6 2.2-0.6 2.1c1.9 9.9 4.7 20.1 8.3 30.6l-1.1 2.6c-1.5 1-4 1.3-6.9 1.4-4.1-11.9-7.2-22.7-8.4-34.1l2.3-2.7-1.4-2.5c5.8-7.6 12-15.5 18.7-23.7q4.2-1.7 8-4.5c1.2-2.4 2.1-4.8 2.6-7z"/>
					<path id="&lt;Path&gt;" class="s10" d="m473.7 411.7c-0.7 0.6-1.7 1-2.8 1.3-5-15.3-9.2-30.3-12.1-44.4l1.9-2.8-0.7-2.7c6.1-9.1 11.3-17.7 14.6-25.4l-1.7-4.5 2.3-1.3-11-7.3c8.6 4.2 18.7 5 29.7 3.5-0.5 2.2-1.4 4.6-2.6 7q-3.8 2.8-8 4.5c-6.7 8.2-12.9 16.1-18.7 23.7l1.4 2.5-2.3 2.7c1.2 11.4 4.3 22.2 8.4 34.1q1.3 3.8 2.7 7.7-0.3 0.8-1.1 1.4z"/>
					<path id="&lt;Path&gt;" class="s12" d="m480.8 403c1.5 2.5 2.1 5.5 2.3 8.7-2.7 1.8-5.6 2.8-8.6 2.7q-0.4-1.4-0.8-2.7 0.8-0.6 1.1-1.4-1.4-3.9-2.7-7.7c2.9-0.1 5.4-0.4 6.9-1.4z"/>
					<path id="&lt;Path&gt;" class="s13" d="m479.9 423.7c0.4 0.7 0.7 2.6 1 4.7q-1.5 1.5-3.7 2.4l-0.7 3.3c-1.8 0.5-3.9 0.8-6 0.9l-1.9-1.9-4.3 2.7c-7.1-0.3-13.7-0.8-17.5-2.9l-2.4-2q-0.2-1 0-1.8c1-2.4 4.3-4.4 6.8-4.5q0.7-0.1 1.4-0.3c-1.9 1.2-2.9 2.7-3 4.6 2.7 0.5 5.6 0.4 8.8-0.3-0.4-2.4-0.3-4.6 0.4-6.6q0.7-0.3 1.4-0.6c0.1-1.1-0.2-1.4-0.5-2.6-0.7-1.7 1.3-2.8 2.5-2.1l1.2 0.9 2.3 2.6 1.3 3.1c3.3 0.5 6.3 0.2 8.9-1.6l0.2-2.7c1.6 0.7 3.7 4.4 3.8 4.7z"/>
					<path id="&lt;Path&gt;" class="s14" d="m496.1 295.9q-1-3.8-2.3-7.8-0.6-2-1.2-3.9c-1.8-5.3-4-10.2-7.6-14l-0.8-2-1.1-0.8-3.6-3-0.7-4-1.2-0.2-1.6-0.1-0.9-0.1q-0.1 1.2-0.5 2.4c-1.7-0.4-3.3-1-4.7-1.9q-0.4 1.9-0.9 3.9c-1.3-0.9-2.4-1.8-3.1-2.8l-0.7 1.2q-1.3 0-2.5-0.4l-0.8 3.2-7.3 3.4c3.1 5.8 3.2 12.2 1.4 18.9l-1.2 3.3c3.9 5.7 7.1 11.4 9.7 17.1l-2.6 3.3 4.4 6.5v3q6.4 2.1 12.7 2.9c3.5 0.5 7.3 0.6 11.2 0.5q1.6-0.1 3.3-0.3l5-6.1c0.6-6.6-0.4-14.1-2.4-22.2z"/>
					<path id="&lt;Path&gt;" class="s10" d="m476.1 419l-0.2 2.7c-2.6 1.8-5.6 2.1-8.9 1.6l-1.3-3.1-2.3-2.6-0.7-4.2c2.1 0.6 5.5 0.5 8.2-0.4 1.1-0.3 2.1-0.7 2.8-1.3q0.4 1.3 0.8 2.7c0.5 1.4 1 3 1.6 4.6z"/>
					<path id="&lt;Path&gt;" class="s15" d="m475.2 331.9l-2.3 1.3 1.7 4.5c-3.3 7.7-8.5 16.3-14.6 25.4l0.7 2.7-1.9 2.8c2.9 14.1 7.1 29.1 12.1 44.4-2.7 0.9-6.1 1-8.2 0.4q-0.5-0.2-0.8-0.4c-8-13.9-14.3-28.8-18.8-44.8 5-16 11.1-31.1 18.8-44.9q1.1 0.7 2.3 1.3z"/>
					<path id="&lt;Path&gt;" class="s16" d="m462.7 262.4l-0.8 3.2-7.3 3.4c3.1 5.8 3.2 12.2 1.4 18.9l-3.9 3.3c-5.8 6.7-11.6 12.6-17.5 17.7l-2.9-0.5v2.4c-7.6 4.1-16 7.7-25 11q-0.2-0.3-0.5-0.6c-1.6-2.3-2-6.2-0.3-9.5q0.1-0.2 0.3-0.4c5.5-2.1 11.3-5.7 17-10.4l1.4-3.4h1.5c4.6-8.1 9.5-16.1 14.9-24l1-3.7h0.9l0.7-2.6c3.5-1.2 7.1-2 10.6-2.3l1.7-1.1 3.9-2.5q1.5 0.7 2.9 1.1z"/>
					<path id="&lt;Path&gt;" class="s10" d="m452.1 291.2c-5.8 8.4-11.4 15.9-16.4 20.8-8.8 4.7-17.5 8.5-26 11.3-1.1-0.1-2.2-0.6-3-1.5 9-3.3 17.4-6.9 25-11v-2.4l2.9 0.5c5.9-5.1 11.7-11 17.5-17.7z"/>
					<path id="&lt;Path&gt;" class="s17" d="m459.8 261.3l-3.9 2.5-1.7 1.1c-3.5 0.3-7.1 1.1-10.6 2.3l-0.7 2.6h-0.9l-1 3.7c-5.4 7.9-10.3 15.9-14.9 24h-1.5l-1.4 3.4c-5.5 4.5-10.9 8-16.2 10l-0.3 1.2-1.1 3.5 22.2-11.3-0.5-3.3 3.7-0.5 19.5-25.2-0.8-5.9 5.2-2 5.5-4.5v-1.4q-0.3-0.1-0.6-0.2z"/>
					<path id="&lt;Path&gt;" class="s18" d="m463.7 329l-3-3.5c-7.1 13.2-12.9 27.5-17.6 42.7 4.3 15.5 10.4 30 18 43.5h3.7l-15.2-44.4z"/>
					<path id="&lt;Path&gt;" class="s19" d="m463.3 263.8l-0.6 4q9.9 12.9 15.7 28c4.5 2.3 11.1 4.2 18.2 6-2.4-12.4-5.7-23.8-12.3-31.2l-1.2-2.6-4.2-3.2-0.8-3.5-1.5-0.5-1.3 2.2-4.9-1.7-0.9 3.5-3.5-2.2-0.3 1.2z"/>
					<path id="&lt;Path&gt;" class="s20" d="m497.6 277.2v-2l-4.4-2.4-1.6-3.7h-1.7l2.3 9.3c10.5 6 19.9 12.4 27.7 19.4-0.4 5.9-1.7 12.2-3.4 18.8q1.4 0 3-0.3c1.5-6.9 3.9-14.2 3.1-21.2-6.8-6.2-15.5-12.1-25-17.9z"/>
					<path id="&lt;Path&gt;" class="s10" d="m472.9 238.6h-1.8l-6.3-2.3v3.1l-7.2-1.5 0.9 5.9-2.1 1.7 0.6 5.2-1.2 3 4.6 6.3 3.9 0.8 1.3-0.8 2.6 1.3 1.7-2.6 3 1.8 1-2.6 1.4 0.7-0.5-2.9c1.3-6.2 1-12.1-1.9-17.1z"/>
					<path id="&lt;Path&gt;" class="s2" d="m513.5 319.8c0.9-0.9 1.6-2 2.1-3.2q1 0 2-0.1c0.6-0.1 1.2-0.2 1.9-0.3l-0.1 0.1c0.7-3.5 1.7-7 2.3-10.5 0.6-3.5 1-7.1 0.6-10.7l0.1 0.2q-2.9-2.5-5.9-4.9-3.1-2.3-6.2-4.5c-4.2-3-8.5-5.7-12.9-8.4l-0.2-0.1v-0.2-2l0.2 0.3-4.4-2.4h-0.1v-0.2l-1.6-3.7 0.3 0.2h-3.7-0.1l-4.8-1.7h0.1-0.1l-0.1-0.1-3.6-3h-0.1l-0.1-0.2-0.7-4 0.3 0.3-1.1-0.1h-0.2l-0.1-0.2c-0.9-1.5-1.6-3.1-2-4.8v-0.1-0.1c0.7-1.6 1.2-3.3 1.4-5.1 0.2-1.8 0.2-3.6-0.1-5.3-0.6-3.5-2.6-6.6-4.9-9.3l0.6-0.1-0.8 1.2-0.2 0.3-0.3-0.3c-2.5-2-5.2-3.8-8.2-5l0.5-0.1-0.9 1.7-0.2 0.2-0.2-0.1c-3.5-1-7.2-1.3-10.8-0.7l0.3-0.5 1.6 2.9 0.4 0.7-0.8-0.2c-2.3-0.8-4.7-1.6-6.8-2.9l0.5-0.4c0.5 2.2 1.6 4.3 3.2 5.8l0.6 0.6h-0.8-3l0.3-0.4c0.4 2.4 1.8 4.5 3.3 6.5l0.3 0.3-0.4 0.2-1.8 0.8 0.1-0.5c0.6 1.1 1.4 2.1 2.5 2.6l0.2 0.1-0.1 0.3c-0.7 2.8-0.4 5.8 0.2 8.7q0.2 1.1 0.5 2.2c0.2 0.7 0.5 1.3 0.9 1.9 0.8 1.2 2.1 1.8 3.5 2l1 0.1-0.8 0.5-1.7 1.1h-0.1-0.1c-3.5 0.4-7.1 1.2-10.5 2.3l0.2-0.2-0.7 2.6-0.1 0.2h-0.2-0.9l0.4-0.2-1.1 3.7v0.1c-5.3 7.8-10.3 15.8-14.9 24l-0.1 0.2h-0.2-1.5l0.3-0.2-1.4 3.3-0.1 0.1-2 1.6-2 1.5-2 1.5-2.1 1.4c-1.5 0.8-2.9 1.7-4.4 2.5q-2.3 1.1-4.6 2l0.1-0.2-0.2 0.5-0.1 0.2h-0.2-0.1l-0.1-0.1c-1.4-0.8-3-1.6-4.6-1.6-0.8 0.3-1.6 0.7-2.3 1.3l-0.1 0.1-0.1-0.1c-2-0.5-4-0.7-6.1-0.4l0.1-0.1c-0.5 0.5-0.7 1.3-0.6 2v-0.1l0.9 1.2 0.1 0.1-0.1 0.1c-1.1 1.3-1.9 2.8-2.6 4.4 0 2.6 0.5 5.3 1.3 7.8 1 0.5 2.2 0.7 3.3 0.7-1.1 0-2.3-0.1-3.4-0.6v-0.1c-0.8-2.5-1.4-5.1-1.4-7.8v-0.1c0.7-1.6 1.5-3.2 2.6-4.5v0.2l-1-1.2v-0.1q-0.1-0.6 0.1-1.2c0.1-0.4 0.3-0.8 0.6-1.1h0.1c2.1-0.3 4.2-0.1 6.2 0.4h-0.2c0.7-0.6 1.5-1.1 2.5-1.4 1-0.1 1.8 0.1 2.7 0.4 0.8 0.3 1.6 0.7 2.4 1.2l-0.2-0.1-0.3 0.2 0.3-0.5v-0.1h0.1q2.4-1 4.6-2.1c1.5-0.7 2.9-1.6 4.3-2.4l2.1-1.4 2-1.4 2-1.5 1.9-1.6-0.1 0.1 1.4-3.3 0.1-0.2h0.3 1.5l-0.3 0.2c4.6-8.2 9.6-16.3 14.9-24v0.1l1-3.8 0.1-0.3h0.2 0.9l-0.4 0.3 0.7-2.6 0.1-0.2 0.2-0.1c3.4-1.1 7-1.9 10.7-2.3l-0.2 0.1 1.7-1.1 0.1 0.7c-1.5-0.2-3.1-0.9-4-2.3-0.4-0.6-0.8-1.4-0.9-2.1q-0.3-1.1-0.6-2.2c-0.6-3-0.9-6.1-0.1-9.1l0.2 0.4c-1.3-0.6-2.2-1.7-2.8-2.9l-0.2-0.3 0.4-0.1 1.8-0.9-0.1 0.6c-0.8-1-1.6-2-2.2-3.2-0.6-1.1-1.1-2.3-1.3-3.6v-0.4h0.4 3l-0.3 0.6c-1.7-1.6-2.9-3.8-3.4-6.1l-0.1-0.8 0.7 0.4c2 1.3 4.3 2.1 6.6 2.8l-0.4 0.5-1.6-2.8-0.3-0.5 0.5-0.1c3.7-0.6 7.5-0.3 11 0.8l-0.4 0.1 0.9-1.7 0.2-0.2 0.3 0.1c3 1.2 5.8 3 8.3 5.1l-0.5 0.1 0.8-1.2 0.3-0.3 0.3 0.3c1.1 1.4 2.2 2.9 3.1 4.5 0.9 1.6 1.6 3.3 1.9 5.2 0.3 1.8 0.3 3.6 0.1 5.5-0.2 1.8-0.7 3.6-1.5 5.3l0.1-0.2c0.3 1.6 1.1 3.1 1.9 4.6l-0.2-0.2 1.1 0.1 0.3 0.1v0.2l0.7 4-0.1-0.2 3.6 3-0.2-0.1h0.1 0.1l4.7 1.8h-0.1 3.7 0.2l0.1 0.2 1.6 3.7-0.2-0.2 4.5 2.4 0.1 0.1v0.2 2l-0.1-0.3c4.4 2.7 8.7 5.4 12.9 8.4q3.2 2.2 6.2 4.6 3 2.4 5.8 5l0.1 0.1v0.1c0.4 3.6 0 7.2-0.8 10.7-0.7 3.6-1.7 7-2.4 10.5v0.1h-0.1c-0.6 0.1-1.3 0.2-1.9 0.2q-1 0.1-2 0.1v-0.1c-0.5 1.2-1.2 2.3-2.1 3.2z"/>
					<path id="&lt;Path&gt;" class="s2" d="m452.4 291c3.1 5.7 5.8 11.5 7.8 17.7v0.2l-0.1 0.1-1.6 2.2v-0.3l3.7 7.9v0.1 4.4 0.1 0.1c-1 1.8-1.9 3.6-2.8 5.4l-2.8 5.4c-1.8 3.7-3.4 7.4-4.9 11.1-0.8 1.9-1.5 3.8-2.3 5.7l-2.1 5.7-2 5.7-1.9 5.8v-0.2l1.8 5.9 1.9 5.7 2.1 5.7c0.7 1.9 1.5 3.8 2.2 5.7l2.5 5.5q1.2 2.8 2.6 5.5c1.7 3.6 3.7 7.2 5.7 10.7l-0.2-0.1 0.8 0.3 0.2 0.1 0.1 0.2 0.6 4.3 0.1 0.8-0.7-0.5-1.1-0.9c-0.5-0.2-1.2-0.2-1.6 0.2-0.5 0.3-0.6 0.9-0.4 1.5 0.2 0.4 0.3 0.8 0.4 1.3 0.2 0.5 0.2 1 0.2 1.4v0.2l-0.2 0.1c-1.5 0.7-2.9 1.4-4.4 2q-1.2 0.5-2.4 0.8c-0.7 0.3-1.6 0.4-2.4 0.5-1.3 0.1-2.6 0.6-3.8 1.3-1.1 0.8-2.1 1.7-2.7 2.9h0.1c-0.2 0.5-0.2 1.1-0.4 1.7-0.4-0.5-0.5-1.2-0.4-1.9 0.6-1.5 1.7-2.6 3-3.4 1.2-0.8 2.6-1.4 4.1-1.5 0.8-0.1 1.6-0.2 2.3-0.4q1.1-0.3 2.3-0.8c1.4-0.5 2.9-1.2 4.4-1.8l-0.2 0.3c0-0.4 0-0.8-0.1-1.2-0.2-0.4-0.3-0.9-0.4-1.3-0.2-0.3-0.2-0.8-0.1-1.2 0.1-0.4 0.3-0.8 0.7-1.1 0.6-0.4 1.6-0.6 2.3-0.2h0.1v0.1l1.2 0.9-0.6 0.3-0.6-4.3 0.2 0.3-0.9-0.4h-0.1v-0.1c-2-3.6-4-7.2-5.8-10.8q-1.3-2.7-2.6-5.5l-2.4-5.6c-0.8-1.9-1.5-3.7-2.3-5.6l-2.1-5.8-1.9-5.7-1.7-5.9-0.1-0.1 0.1-0.1 1.8-5.8 2-5.8 2.2-5.7c0.7-1.9 1.4-3.8 2.2-5.6 1.6-3.8 3.2-7.5 5-11.2l2.8-5.4c0.9-1.9 1.8-3.7 2.7-5.5v0.2-4.4 0.1l-3.6-7.8-0.1-0.2 0.1-0.2 1.7-2.2-0.1 0.3c-1.9-6.1-4.6-11.9-7.7-17.6z"/>
					<path id="&lt;Path&gt;" class="s21" d="m404.8 317.2l28.1-12.3-0.2 0.1 13-26.7 0.1-0.1 0.1-0.1 6-2.5-0.2 0.3 1.1-4.4 0.1-0.3h0.2l9.5-2.5 0.4-0.1 0.1 0.4 4.2 11.3-0.4-0.2h6.3 0.3l0.1 0.3 6.5 25.4v0.1l-0.1 0.2-9 17.3-0.4-0.2 8.9-17.4v0.2l-6.7-25.4 0.4 0.3h-6.3-0.3l-0.1-0.3-4.2-11.3 0.5 0.2-9.5 2.6 0.4-0.4-1.2 4.4v0.3h-0.2l-6.1 2.5 0.3-0.2-13.2 26.6v0.1l-0.1 0.1-28.2 12.2z"/>
					<path id="&lt;Path&gt;" class="s22" d="m496.4 320.5l-3.9-14.5h-0.1l-0.9-6.1-0.9-6.1-1.8-12.3v-0.2h0.1l1.4-1 0.3 0.4-1.4 1 0.2-0.3 2 12.2 1 6.1 0.9 6.1h-0.1l3.6 14.6z"/>
					<path id="&lt;Path&gt;" class="s23" d="m492.2 277.5l12.6 9.1c2.2 1.5 4.2 3.1 6.3 4.7l6.2 4.7-0.1-0.1 5.2 2-0.2 0.4-5.2-1.8h-0.1l-6.3-4.6c-2.1-1.5-4.2-3-6.3-4.6l-12.4-9.4z"/>
					<path id="&lt;Path&gt;" class="s24" d="m472.4 330l-11.7 18.9-0.1 0.1-9.3 5.6 0.2-0.2-4.7 13v-0.3c2.4 5.7 4.7 11.3 7 17l6.9 17-0.1-0.2 5 2.5 0.1 0.1v0.1l3.9 10.1-0.4 0.2-4-10.1 0.1 0.2-5-2.5-0.1-0.1-0.1-0.1-7-16.9c-2.4-5.7-4.8-11.3-7.1-16.9l-0.1-0.2 0.1-0.2 4.8-12.9v-0.2h0.1l9.4-5.6-0.2 0.1 11.8-18.8z"/>
				</g>
			</g>
			<g id="&lt;Group&gt;">
				<g id="&lt;Group&gt;">
				</g>
			</g>
		</g>
	</g>
</svg>