<svg version="1.2" xmlns="http://www.w3.org/2000/svg" viewBox="0 0 925 500" width="925" height="500"><defs><clipPath clipPathUnits="userSpaceOnUse" id="cp1"><path d="m925 500h-925v-500h925z"/></clipPath><linearGradient id="P" gradientUnits="userSpaceOnUse"/><linearGradient id="g1" x2="1" href="#P" gradientTransform="matrix(0,-370.044,932.813,0,385.196,352.747)"><stop stop-color="#00cfa9"/><stop offset="1" stop-color="#060738"/></linearGradient><radialGradient id="g2" cx="0" cy="0" r="1" href="#P" gradientTransform="matrix(0,-480.382,480.382,0,458.387,348.66)"><stop stop-color="#003140"/><stop offset="1"/></radialGradient><linearGradient id="g3" x2="1" href="#P" gradientTransform="matrix(0,279.307,-279.027,0,626.51,2.221)"><stop stop-color="#7d6c00"/><stop offset="1"/></linearGradient><linearGradient id="g4" x2="1" href="#P" gradientTransform="matrix(0,330,-329.67,0,626.585,15.999)"><stop stop-color="#857300"/><stop offset="1"/></linearGradient></defs><style>.a{fill:url(#g1)}.b{mix-blend-mode:screen;fill:url(#g2)}.c{mix-blend-mode:screen;fill:url(#g3)}.d{fill:url(#g4)}</style><g clip-path="url(#cp1)"><path class="a" d="m925-17.3h-932.8v370h932.8z"/><path fill-rule="evenodd" class="b" d="m931.2-15.1v1.8h-937.4v-1.8zm0 5.5v1.9h-937.3v-1.9zm0 5.6v1.8h-937.3v-1.8zm0 5.5v1.9h-937.4v-1.9zm0 5.6v1.8h-937.3v-1.8zm0 5.5v1.9h-937.3v-1.9zm0 5.6v1.8h-937.3v-1.8zm0 5.5v1.9h-937.4v-1.9zm0 5.6v1.8h-937.3v-1.8zm0 5.5v1.9h-937.3v-1.9zm0 5.6v1.8h-937.4v-1.8zm0 5.5v1.9h-937.3v-1.9zm0 5.6v1.8h-937.3v-1.8zm0 5.5v1.9h-937.3v-1.9zm0 5.6v1.8h-937.4v-1.8zm0 5.5v1.9h-937.3v-1.9zm0 5.6v1.8h-937.3v-1.8zm0 5.5v1.9h-937.4v-1.9zm0 5.6v1.8h-937.3v-1.8zm0 5.5v1.9h-937.3v-1.9zm0 5.6v1.8h-937.4v-1.8zm0 5.5v1.9h-937.3v-1.9zm0 5.6v1.8h-937.3v-1.8zm0 5.5v1.9h-937.3v-1.9zm0 5.6v1.8h-937.4v-1.8zm0 5.5v1.9h-937.3v-1.9zm0 5.6v1.8h-937.3v-1.8zm0 5.5v1.9h-937.4v-1.9zm0 5.6v1.8h-937.3v-1.8zm0 5.5v1.9h-937.3v-1.9zm0 5.6v1.8h-937.3v-1.8zm0 5.5v1.9h-937.4v-1.9zm0 5.6v1.8h-937.3v-1.8zm0 5.5v1.9h-937.3v-1.9zm0 5.6v1.8h-937.4v-1.8zm0 5.5v1.9h-937.3v-1.9zm0 5.6v1.8h-937.3v-1.8zm0 5.5v1.9h-937.4v-1.9zm0 5.6v1.8h-937.3v-1.8zm0 5.5v1.9h-937.3v-1.9zm0 5.6v1.8h-937.3v-1.8zm0 5.5v1.9h-937.4v-1.9zm0 5.6v1.8h-937.3v-1.8zm0 5.5v1.9h-937.3v-1.9zm0 5.6v1.9h-937.4v-1.9zm0 5.5v1.9h-937.3v-1.9zm0 5.6v1.9h-937.3v-1.9zm0 5.6v1.8h-937.3v-1.8zm0 5.5v1.9h-937.4v-1.9zm0 5.6v1.8h-937.3v-1.8zm0 5.5v1.9h-937.3v-1.9zm0 5.6v1.8h-937.4v-1.8zm0 5.5v1.9h-937.3v-1.9zm0 5.6v1.8h-937.3v-1.8zm0 5.5v1.9h-937.4v-1.9zm0 5.6v1.8h-937.3v-1.8zm0 5.5v1.9h-937.3v-1.9zm0 5.6v1.8h-937.3v-1.8zm0 5.5v1.9h-937.4v-1.9zm0 5.6v1.8h-937.3v-1.8zm0 5.5v1.9h-937.3v-1.9zm0 5.6v1.8h-937.4v-1.8zm0 5.5v1.9h-937.3v-1.9zm0 5.6v1.8h-937.3v-1.8zm0 5.5v1.9h-937.3v-1.9zm0 5.6v1.8h-937.4v-1.8z"/><path class="c" d="m461.3 345.9c-91.1 0-164.8-73.7-164.8-165 0-91.2 73.7-165 164.8-165 91.2 0 164.9 73.8 164.9 165 0 91.3-73.7 165-164.9 165z"/><g style="mix-blend-mode:screen"><path fill-rule="evenodd" class="d" d="m461.4 346c-91.1 0-164.8-73.8-164.8-165 0-91.2 73.7-165 164.8-165 91.2 0 164.9 73.8 164.9 165 0 91.2-73.7 165-164.9 165zm163.1-165c0-90.3-72.9-163.3-163.1-163.3-90.2 0-163.1 73-163.1 163.3 0 90.3 72.9 163.3 163.1 163.3 90.2 0 163.1-73 163.1-163.3z"/></g></g></svg>