<svg version="1.2" xmlns="http://www.w3.org/2000/svg" viewBox="0 0 925 500" width="925" height="500"><defs><clipPath clipPathUnits="userSpaceOnUse" id="cp1"><path d="m925 500h-925v-500h925z"/></clipPath><linearGradient id="P" gradientUnits="userSpaceOnUse"/><linearGradient id="g1" x2="1" href="#P" gradientTransform="matrix(0,-370.044,932.813,0,385.196,352.747)"><stop stop-color="#00cfa9"/><stop offset="1" stop-color="#060738"/></linearGradient><radialGradient id="g2" cx="0" cy="0" r="1" href="#P" gradientTransform="matrix(0,-480.382,480.382,0,458.387,348.66)"><stop stop-color="#003140"/><stop offset="1"/></radialGradient><linearGradient id="g3" x2="1" href="#P" gradientTransform="matrix(0,299.903,-299.603,0,639.844,15.21)"><stop stop-color="#7d6c00"/><stop offset="1"/></linearGradient><linearGradient id="g4" x2="1" href="#P" gradientTransform="matrix(0,356.186,-355.83,0,640.772,28.999)"><stop stop-color="#857300"/><stop offset="1"/></linearGradient></defs><style>.a{fill:url(#g1)}.b{mix-blend-mode:screen;fill:url(#g2)}.c{mix-blend-mode:screen;fill:url(#g3)}.d{fill:url(#g4)}</style><g clip-path="url(#cp1)"><path class="a" d="m925-17.3h-932.8v370h932.8z"/><path fill-rule="evenodd" class="b" d="m931.2-15.1v1.8h-937.4v-1.8zm0 5.5v1.9h-937.3v-1.9zm0 5.6v1.8h-937.3v-1.8zm0 5.5v1.9h-937.4v-1.9zm0 5.6v1.8h-937.3v-1.8zm0 5.5v1.9h-937.3v-1.9zm0 5.6v1.8h-937.3v-1.8zm0 5.5v1.9h-937.4v-1.9zm0 5.6v1.8h-937.3v-1.8zm0 5.5v1.9h-937.3v-1.9zm0 5.6v1.8h-937.4v-1.8zm0 5.5v1.9h-937.3v-1.9zm0 5.6v1.8h-937.3v-1.8zm0 5.5v1.9h-937.3v-1.9zm0 5.6v1.8h-937.4v-1.8zm0 5.5v1.9h-937.3v-1.9zm0 5.6v1.8h-937.3v-1.8zm0 5.5v1.9h-937.4v-1.9zm0 5.6v1.8h-937.3v-1.8zm0 5.5v1.9h-937.3v-1.9zm0 5.6v1.8h-937.4v-1.8zm0 5.5v1.9h-937.3v-1.9zm0 5.6v1.8h-937.3v-1.8zm0 5.5v1.9h-937.3v-1.9zm0 5.6v1.8h-937.4v-1.8zm0 5.5v1.9h-937.3v-1.9zm0 5.6v1.8h-937.3v-1.8zm0 5.5v1.9h-937.4v-1.9zm0 5.6v1.8h-937.3v-1.8zm0 5.5v1.9h-937.3v-1.9zm0 5.6v1.8h-937.3v-1.8zm0 5.5v1.9h-937.4v-1.9zm0 5.6v1.8h-937.3v-1.8zm0 5.5v1.9h-937.3v-1.9zm0 5.6v1.8h-937.4v-1.8zm0 5.5v1.9h-937.3v-1.9zm0 5.6v1.8h-937.3v-1.8zm0 5.5v1.9h-937.4v-1.9zm0 5.6v1.8h-937.3v-1.8zm0 5.5v1.9h-937.3v-1.9zm0 5.6v1.8h-937.3v-1.8zm0 5.5v1.9h-937.4v-1.9zm0 5.6v1.8h-937.3v-1.8zm0 5.5v1.9h-937.3v-1.9zm0 5.6v1.9h-937.4v-1.9zm0 5.5v1.9h-937.3v-1.9zm0 5.6v1.9h-937.3v-1.9zm0 5.6v1.8h-937.3v-1.8zm0 5.5v1.9h-937.4v-1.9zm0 5.6v1.8h-937.3v-1.8zm0 5.5v1.9h-937.3v-1.9zm0 5.6v1.8h-937.4v-1.8zm0 5.5v1.9h-937.3v-1.9zm0 5.6v1.8h-937.3v-1.8zm0 5.5v1.9h-937.4v-1.9zm0 5.6v1.8h-937.3v-1.8zm0 5.5v1.9h-937.3v-1.9zm0 5.6v1.8h-937.3v-1.8zm0 5.5v1.9h-937.4v-1.9zm0 5.6v1.8h-937.3v-1.8zm0 5.5v1.9h-937.3v-1.9zm0 5.6v1.8h-937.4v-1.8zm0 5.5v1.9h-937.3v-1.9zm0 5.6v1.8h-937.3v-1.8zm0 5.5v1.9h-937.3v-1.9zm0 5.6v1.8h-937.4v-1.8z"/><path class="c" d="m639.5 207.1c0-97.9-79.3-177.2-177-177.2-97.7 0-177 79.3-177 177.2 0 97.8 79.3 177.2 177 177.2 97.7 0 177-79.4 177-177.2z"/><g style="mix-blend-mode:screen"><path fill-rule="evenodd" class="d" d="m462.5 385.2c-98.1 0-177.9-79.9-177.9-178.1 0-98.2 79.8-178.1 177.9-178.1 98.1 0 177.9 79.9 177.9 178.1 0 98.2-79.8 178.1-177.9 178.1zm0-354.3c-97.1 0-176.1 79-176.1 176.2 0 97.2 79 176.2 176.1 176.2 97.1 0 176.1-79 176.1-176.2 0-97.2-79-176.2-176.1-176.2z"/></g></g></svg>