<svg width="925" height="500" viewBox="0 0 925 500" fill="none" xmlns="http://www.w3.org/2000/svg">
<g clip-path="url(#clip0_1_22)">
<mask id="mask0_1_22" style="mask-type:alpha" maskUnits="userSpaceOnUse" x="-6" y="-15" width="938" height="363">
<rect x="-6" y="-15" width="937.4" height="362.6" fill="url(#paint0_radial_1_22)"/>
</mask>
<g mask="url(#mask0_1_22)">
<path style="mix-blend-mode:screen" fill-rule="evenodd" clip-rule="evenodd" d="M931.2 -15.1V-13.3H-6.19998V-15.1H931.2ZM931.2 -9.59998V-7.69998H-6.09998V-9.59998H931.2ZM931.2 -3.99998V-2.19998H-6.09998V-3.99998H931.2ZM931.2 1.50002V3.40002H-6.19998V1.50002H931.2ZM931.2 7.10003V8.90002H-6.09998V7.10003H931.2ZM931.2 12.6V14.5H-6.09998V12.6H931.2ZM931.2 18.2V20H-6.09998V18.2H931.2ZM931.2 23.7V25.6H-6.19998V23.7H931.2ZM931.2 29.3V31.1H-6.09998V29.3H931.2ZM931.2 34.8V36.7H-6.09998V34.8H931.2ZM931.2 40.4V42.2H-6.19998V40.4H931.2ZM931.2 45.9V47.8H-6.09998V45.9H931.2ZM931.2 51.5V53.3H-6.09998V51.5H931.2ZM931.2 57V58.9H-6.09998V57H931.2ZM931.2 62.6V64.4H-6.19998V62.6H931.2ZM931.2 68.1V70H-6.09998V68.1H931.2ZM931.2 73.7V75.5H-6.09998V73.7H931.2ZM931.2 79.2V81.1H-6.19998V79.2H931.2ZM931.2 84.8V86.6H-6.09998V84.8H931.2ZM931.2 90.3V92.2H-6.09998V90.3H931.2ZM931.2 95.9V97.7H-6.19998V95.9H931.2ZM931.2 101.4V103.3H-6.09998V101.4H931.2ZM931.2 107V108.8H-6.09998V107H931.2ZM931.2 112.5V114.4H-6.09998V112.5H931.2ZM931.2 118.1V119.9H-6.19998V118.1H931.2ZM931.2 123.6V125.5H-6.09998V123.6H931.2ZM931.2 129.2V131H-6.09998V129.2H931.2ZM931.2 134.7V136.6H-6.19998V134.7H931.2ZM931.2 140.3V142.1H-6.09998V140.3H931.2ZM931.2 145.8V147.7H-6.09998V145.8H931.2ZM931.2 151.4V153.2H-6.09998V151.4H931.2ZM931.2 156.9V158.8H-6.19998V156.9H931.2ZM931.2 162.5V164.3H-6.09998V162.5H931.2ZM931.2 168V169.9H-6.09998V168H931.2ZM931.2 173.6V175.4H-6.19998V173.6H931.2ZM931.2 179.1V181H-6.09998V179.1H931.2ZM931.2 184.7V186.5H-6.09998V184.7H931.2ZM931.2 190.2V192.1H-6.19998V190.2H931.2ZM931.2 195.8V197.6H-6.09998V195.8H931.2ZM931.2 201.3V203.2H-6.09998V201.3H931.2ZM931.2 206.9V208.7H-6.09998V206.9H931.2ZM931.2 212.4V214.3H-6.19998V212.4H931.2ZM931.2 218V219.8H-6.09998V218H931.2ZM931.2 223.5V225.4H-6.09998V223.5H931.2ZM931.2 229.1V231H-6.19998V229.1H931.2ZM931.2 234.6V236.5H-6.09998V234.6H931.2ZM931.2 240.2V242.1H-6.09998V240.2H931.2ZM931.2 245.8V247.6H-6.09998V245.8H931.2ZM931.2 251.3V253.2H-6.19998V251.3H931.2ZM931.2 256.9V258.7H-6.09998V256.9H931.2ZM931.2 262.4V264.3H-6.09998V262.4H931.2ZM931.2 268V269.8H-6.19998V268H931.2ZM931.2 273.5V275.4H-6.09998V273.5H931.2ZM931.2 279.1V280.9H-6.09998V279.1H931.2ZM931.2 284.6V286.5H-6.19998V284.6H931.2ZM931.2 290.2V292H-6.09998V290.2H931.2ZM931.2 295.7V297.6H-6.09998V295.7H931.2ZM931.2 301.3V303.1H-6.09998V301.3H931.2ZM931.2 306.8V308.7H-6.19998V306.8H931.2ZM931.2 312.4V314.2H-6.09998V312.4H931.2ZM931.2 317.9V319.8H-6.09998V317.9H931.2ZM931.2 323.5V325.3H-6.19998V323.5H931.2ZM931.2 329V330.9H-6.09998V329H931.2ZM931.2 334.6V336.4H-6.09998V334.6H931.2ZM931.2 340.1V342H-6.09998V340.1H931.2ZM931.2 345.7V347.5H-6.19998V345.7H931.2Z" fill="url(#paint1_radial_1_22)"/>
</g>
</g>
<defs>
<radialGradient id="paint0_radial_1_22" cx="0" cy="0" r="1" gradientUnits="userSpaceOnUse" gradientTransform="translate(462.7 166.3) rotate(89.9215) scale(219.2 516.305)">
<stop stop-color="#D9D9D9" stop-opacity="0.75"/>
<stop offset="1" stop-color="#D9D9D9" stop-opacity="0"/>
</radialGradient>
<radialGradient id="paint1_radial_1_22" cx="0" cy="0" r="1" gradientUnits="userSpaceOnUse" gradientTransform="translate(-6795.39 3327.03) rotate(-90) scale(450310 174187)">
<stop stop-color="#003140"/>
<stop offset="1"/>
</radialGradient>
<clipPath id="clip0_1_22">
<rect width="925" height="500" fill="white"/>
</clipPath>
</defs>
</svg>
