<svg version="1.2" xmlns="http://www.w3.org/2000/svg" viewBox="0 0 133 221" width="133" height="221"><defs><clipPath clipPathUnits="userSpaceOnUse" id="cp1"><path d="m519 377h-925v-500h925z"/></clipPath><linearGradient id="P" gradientUnits="userSpaceOnUse"/><linearGradient id="g1" x2="1" href="#P" gradientTransform="matrix(0,65.709,-63.736,0,103.849,155.91)"><stop stop-color="#1dedd5"/><stop offset="1" stop-color="#224570"/></linearGradient><linearGradient id="g2" x2="1" href="#P" gradientTransform="matrix(41.979,138.417,-62.159,18.852,73.724,-5.494)"><stop stop-color="#1dedd5"/><stop offset="1" stop-color="#224570"/></linearGradient><linearGradient id="g3" x2="1" href="#P" gradientTransform="matrix(44.207,145.764,-150.408,45.615,91.878,-25.438)"><stop stop-color="#1dedd5"/><stop offset="1" stop-color="#224570"/></linearGradient><linearGradient id="g4" x2="1" href="#P" gradientTransform="matrix(49.057,161.757,-180.009,54.592,-6.107,1.225)"><stop stop-color="#1dedd5"/><stop offset="1" stop-color="#224570"/></linearGradient><linearGradient id="g5" x2="1" href="#P" gradientTransform="matrix(-77.49,33.737,-79.605,-182.844,178.253,70.536)"><stop stop-color="#1dedd5"/><stop offset="1" stop-color="#224570"/></linearGradient><linearGradient id="g6" x2="1" href="#P" gradientTransform="matrix(4.759,-54.251,43.048,3.776,92.007,89.398)"><stop stop-color="#1dedd5"/><stop offset="1" stop-color="#224570"/></linearGradient><linearGradient id="g7" x2="1" href="#P" gradientTransform="matrix(6.386,-53.639,18.906,2.251,-4.993,153.784)"><stop stop-color="#1dedd5"/><stop offset="1" stop-color="#224570"/></linearGradient><linearGradient id="g8" x2="1" href="#P" gradientTransform="matrix(10.989,0,0,13.194,82.138,170.213)"><stop stop-color="#1dedd5"/><stop offset="1" stop-color="#224570"/></linearGradient><linearGradient id="g9" x2="1" href="#P" gradientTransform="matrix(36.599,0,0,19.313,54.317,185.519)"><stop stop-color="#1dedd5"/><stop offset="1" stop-color="#224570"/></linearGradient><linearGradient id="g10" x2="1" href="#P" gradientTransform="matrix(-23.219,39.849,-42.502,-24.765,159.671,49.118)"><stop stop-color="#1dedd5"/><stop offset="1" stop-color="#224570"/></linearGradient><linearGradient id="g11" x2="1" href="#P" gradientTransform="matrix(4.527,-69.517,23.66,1.541,-63.393,171.982)"><stop stop-color="#1dedd5"/><stop offset="1" stop-color="#224570"/></linearGradient><linearGradient id="g12" x2="1" href="#P" gradientTransform="matrix(124.028,106.801,-380.287,441.627,4.35,-30.875)"><stop stop-color="#1dedd5"/><stop offset="1" stop-color="#224570"/></linearGradient><linearGradient id="g13" x2="1" href="#P" gradientTransform="matrix(240.983,196.618,-1252.241,1534.798,-43.411,-62.186)"><stop stop-color="#139b82"/><stop offset="1"/></linearGradient><linearGradient id="g14" x2="1" href="#P" gradientTransform="matrix(19.636,-98.429,34.72,6.926,-118.98,155.044)"><stop stop-color="#139b82"/><stop offset="1"/></linearGradient><linearGradient id="g15" x2="1" href="#P" gradientTransform="matrix(-26.437,68.403,-94.89,-36.674,131.83,25.74)"><stop stop-color="#139b82"/><stop offset="1"/></linearGradient><linearGradient id="g16" x2="1" href="#P" gradientTransform="matrix(2.379,46.039,-29.57,1.528,150.395,33.537)"><stop stop-color="#139b82"/><stop offset="1"/></linearGradient><linearGradient id="g17" x2="1" href="#P" gradientTransform="matrix(75.557,0,0,54.987,14.691,37.584)"><stop stop-color="#ff8644"/><stop offset=".5" stop-color="#fff18e"/><stop offset="1" stop-color="#ff8644"/></linearGradient><linearGradient id="g18" x2="1" href="#P" gradientTransform="matrix(8.464,0,0,42.532,98.589,49.278)"><stop stop-color="#ff8644"/><stop offset=".5" stop-color="#fff18e"/><stop offset="1" stop-color="#ff8644"/></linearGradient><linearGradient id="g19" x2="1" href="#P" gradientTransform="matrix(30.696,0,0,20.934,101.773,46.451)"><stop stop-color="#ff8644"/><stop offset=".5" stop-color="#fff18e"/><stop offset="1" stop-color="#ff8644"/></linearGradient><linearGradient id="g20" x2="1" href="#P" gradientTransform="matrix(26.605,0,0,84.534,55.94,98.74)"><stop stop-color="#ff8644"/><stop offset=".5" stop-color="#fff18e"/><stop offset="1" stop-color="#ff8644"/></linearGradient></defs><style>.a{fill:url(#g1)}.b{fill:#adfedc}.c{fill:#224570}.d{fill:url(#g2)}.e{fill:url(#g3)}.f{fill:url(#g4)}.g{fill:url(#g5)}.h{fill:url(#g6)}.i{fill:#172352}.j{fill:url(#g7)}.k{fill:url(#g8)}.l{fill:url(#g9)}.m{fill:url(#g10)}.n{fill:url(#g11)}.o{fill:url(#g12)}.p{mix-blend-mode:screen;fill:url(#g13)}.q{mix-blend-mode:screen;fill:url(#g14)}.r{mix-blend-mode:screen;fill:url(#g15)}.s{mix-blend-mode:screen;fill:url(#g16)}.t{fill:url(#g17)}.u{fill:url(#g18)}.v{fill:url(#g19)}.w{fill:url(#g20)}</style><g clip-path="url(#cp1)"><path class="a" d="m102.1 205.7c1.5 20.4-58.9 20.2-57.3 0.2q0-0.1 0-0.2 0.1-1.1 0.4-2.3c3.6-11.7 5.8-22.7 7.6-33.4 1.9-11.1 39.2-10.6 41.4 0 2.3 10.5 4.3 21.8 7.6 33.4q0.3 1.2 0.3 2.3z"/><path class="b" d="m68.8 191c-0.7 2-0.8 4.2-0.4 6.6-3.2 0.7-6.1 0.8-8.8 0.3 0.1-1.9 1.1-3.4 3-4.6 2.2-0.4 4-1.3 6.2-2.3z"/><path class="c" d="m87.6 29.2l-1.6-0.1-0.9-0.1q-0.1 1.2-0.5 2.4c-1.7-0.4-3.3-1-4.7-1.9q-0.4 1.9-0.9 3.9c-1.3-0.9-2.4-1.8-3.1-2.8l-0.7 1.2q-1.3 0-2.5-0.4-1.4-0.4-2.9-1.1-3.3-2.5-5.5-6.6c0.6-3 0.7-5.8-0.8-7.8-0.1-0.2-0.3-0.3-0.5-0.3-0.9-0.1-1.7 0.8-2.4 2h-0.1q-1.6-0.8-2.6-2.7l1.8-0.8c-1.6-2.1-3-4.2-3.3-6.6h3q-2.6-2.4-3.3-6c1.7 1.1 4.1 2 6.7 2.8l-1.6-2.8c3.6-0.6 7.2-0.4 10.8 0.7l1-1.7q4.2 1.8 8.2 5.1l0.8-1.2c2.9 3.5 4.9 7.1 5.1 11 0.3 3.3-0.3 6.4-1.5 9.1 0.4 1.8 1.2 3.3 2 4.7z"/><path class="d" d="m69.8 30.3l-3.9 2.5c-2.9-0.3-4.1-2.1-4.6-3.6-1.1-4.2-1.7-8.1-0.8-11.6h0.1c0.7-1.2 1.5-2.1 2.4-2 0.2 0 0.4 0.1 0.5 0.3 1.5 2 1.4 4.8 0.8 7.8q2.2 4.1 5.5 6.6z"/><path class="e" d="m125.6 85.6q-0.8 1.8-2.1 3.2l-2.3 0.6q-3.7-0.9-6.6-3c-0.9 0.1-1.7 0.2-2.3 0q-0.9-0.8-0.8-1.9 0.7-1.6 1.6-2.7-0.3-0.8-0.4-1.6c0.5-0.9 1.3-1.6 2.2-2.3q0.8-0.1 1.6 0.2 0.8 2.1 1.7 3.6c1.7 2.6 4 3.8 7.4 3.9z"/><path class="f" d="m15.9 80.7c-1.7 3.3-1.3 7.2 0.3 9.5-1.2 1.4-2.9 2.1-4.9 2.4q-2.6-0.5-4.6-1.6l-2.3 2.1 0.8 1.5q0.3 1-0.3 1.8c-1.2 0-2.4-0.2-3.4-0.7-0.8-2.7-1.3-5.3-1.3-7.8 0.7-1.7 1.6-3.3 2.6-4.5l-0.9-1.2c-0.1-0.8 0-1.6 0.6-2.1 1.9-0.3 4-0.1 6.1 0.4 0.8-0.6 1.6-1.1 2.5-1.4 1.5 0 3.2 0.7 4.8 1.6z"/><path class="g" d="m132.6 64.1c0.8 7-1.6 14.3-3.1 21.2q-2.2 0.4-3.9 0.3c-3.4-0.1-5.7-1.3-7.4-3.9 1.7-3.8 2.8-7.6 2.9-11.1-3.6-3-6.8-4.6-12-7.6l-1.7-3.1-3.6-2.8q-0.6-2-1.2-3.9c-1.8-5.3-4-10.2-7.6-14l-0.8-2-1.1-0.8 4.8 1.7h3.7l1.6 3.7 4.4 2.4v2c9.5 5.8 18.2 11.7 25 17.9z"/><path class="h" d="m121.1 70.6c-0.1 3.5-1.2 7.3-2.9 11.1q-0.9-1.5-1.7-3.6c0.4-1.7 0.7-3.3 0.5-4.7l-1.5-0.3-0.7-2.8q-3.9-3-8.7-5.4-1-3.8-2.3-7.8l3.6 2.8 1.7 3.1c5.2 3 8.4 4.6 12 7.6z"/><path class="i" d="m103.5 93.2l5-6.1q-0.2 3.1-1 5.9v2.8l-1.7 0.6-1.9 0.7c-11 1.5-21.1 0.7-29.7-3.5q-1.2-0.6-2.3-1.3v-4.4l-3.7-7.9 1.6-2.2q-2.5-8.1-7.7-17.6l3.9-3.3-1.2 3.3c3.9 5.7 7.1 11.4 9.7 17.1l-2.6 3.3 4.4 6.5v3q6.4 2.1 12.7 2.9c3.5 0.5 7.3 0.6 11.2 0.5q1.6-0.1 3.3-0.3z"/><path class="j" d="m105.8 96.4c0.2 4.3-1 9.1-3.1 14.1-7.8 7.3-14.9 14.7-20.9 22.2l0.6 2.2-0.6 2.1c1.9 9.9 4.7 20.1 8.3 30.6l-1.1 2.6c-1.5 1-4 1.3-6.9 1.4-4.1-11.9-7.2-22.7-8.4-34.1l2.3-2.7-1.4-2.5c5.8-7.6 12-15.5 18.7-23.7q4.2-1.7 8-4.5c1.2-2.4 2.1-4.8 2.6-7z"/><path class="i" d="m83.7 180.7c-0.7 0.6-1.7 1-2.8 1.3-5-15.3-9.2-30.3-12.1-44.4l1.9-2.8-0.7-2.7c6.1-9.1 11.3-17.7 14.6-25.4l-1.7-4.5 2.3-1.3-11-7.3c8.6 4.2 18.7 5 29.7 3.5-0.5 2.2-1.4 4.6-2.6 7q-3.8 2.8-8 4.5c-6.7 8.2-12.9 16.1-18.7 23.7l1.4 2.5-2.3 2.7c1.2 11.4 4.3 22.2 8.4 34.1q1.3 3.8 2.7 7.7-0.3 0.8-1.1 1.4z"/><path class="k" d="m90.8 172c1.5 2.5 2.1 5.5 2.3 8.7-2.7 1.8-5.6 2.8-8.6 2.7q-0.4-1.4-0.8-2.7 0.8-0.6 1.1-1.4-1.4-3.9-2.7-7.7c2.9-0.1 5.4-0.4 6.9-1.4z"/><path class="l" d="m89.9 192.7c0.4 0.7 0.7 2.6 1 4.7q-1.5 1.5-3.7 2.4l-0.7 3.3c-1.8 0.5-3.9 0.8-6 0.9l-1.9-1.9-4.3 2.7c-7.1-0.3-13.7-0.8-17.5-2.9l-2.4-2q-0.2-1 0-1.8c1-2.4 4.3-4.4 6.8-4.5q0.7-0.1 1.4-0.3c-1.9 1.2-2.9 2.7-3 4.6 2.7 0.5 5.6 0.4 8.8-0.3-0.4-2.4-0.3-4.6 0.4-6.6q0.7-0.3 1.4-0.6c0.1-1.1-0.2-1.4-0.5-2.6-0.7-1.7 1.3-2.8 2.5-2.1l1.2 0.9 2.3 2.6 1.3 3.1c3.3 0.5 6.3 0.2 8.9-1.6l0.2-2.7c1.6 0.7 3.7 4.4 3.8 4.7z"/><path class="m" d="m106.1 64.9q-1-3.8-2.3-7.8-0.6-2-1.2-3.9c-1.8-5.3-4-10.2-7.6-14l-0.8-2-1.1-0.8-3.6-3-0.7-4-1.2-0.2-1.6-0.1-0.9-0.1q-0.1 1.2-0.5 2.4c-1.7-0.4-3.3-1-4.7-1.9q-0.4 1.9-0.9 3.9c-1.3-0.9-2.4-1.8-3.1-2.8l-0.7 1.2q-1.3 0-2.5-0.4l-0.8 3.2-7.3 3.4c3.1 5.8 3.2 12.2 1.4 18.9l-1.2 3.3c3.9 5.7 7.1 11.4 9.7 17.1l-2.6 3.3 4.4 6.5v3q6.4 2.1 12.7 2.9c3.5 0.5 7.3 0.6 11.2 0.5q1.6-0.1 3.3-0.3l5-6.1c0.6-6.6-0.4-14.1-2.4-22.2z"/><path class="i" d="m86.1 188l-0.2 2.7c-2.6 1.8-5.6 2.1-8.9 1.6l-1.3-3.1-2.3-2.6-0.7-4.2c2.1 0.6 5.5 0.5 8.2-0.4 1.1-0.3 2.1-0.7 2.8-1.3q0.4 1.3 0.8 2.7c0.5 1.4 1 3 1.6 4.6z"/><path class="n" d="m85.2 100.9l-2.3 1.3 1.7 4.5c-3.3 7.7-8.5 16.3-14.6 25.4l0.7 2.7-1.9 2.8c2.9 14.1 7.1 29.1 12.1 44.4-2.7 0.9-6.1 1-8.2 0.4q-0.5-0.2-0.8-0.4c-8-13.9-14.3-28.8-18.8-44.8 5-16 11.1-31.1 18.8-44.9q1.1 0.7 2.3 1.3z"/><path class="o" d="m72.7 31.4l-0.8 3.2-7.3 3.4c3.1 5.8 3.2 12.2 1.4 18.9l-3.9 3.3c-5.8 6.7-11.6 12.6-17.5 17.7l-2.9-0.5v2.4c-7.6 4.1-16 7.7-25 11q-0.2-0.3-0.5-0.6c-1.6-2.3-2-6.2-0.3-9.5q0.1-0.2 0.3-0.4c5.5-2.1 11.3-5.7 17-10.4l1.4-3.4h1.5c4.6-8.1 9.5-16.1 14.9-24l1-3.7h0.9l0.7-2.6c3.5-1.2 7.1-2 10.6-2.3l1.7-1.1 3.9-2.5q1.5 0.7 2.9 1.1z"/><path class="i" d="m62.1 60.2c-5.8 8.4-11.4 15.9-16.4 20.8-8.8 4.7-17.5 8.5-26 11.3-1.1-0.1-2.2-0.6-3-1.5 9-3.3 17.4-6.9 25-11v-2.4l2.9 0.5c5.9-5.1 11.7-11 17.5-17.7z"/><path class="p" d="m69.8 30.3l-3.9 2.5-1.7 1.1c-3.5 0.3-7.1 1.1-10.6 2.3l-0.7 2.6h-0.9l-1 3.7c-5.4 7.9-10.3 15.9-14.9 24h-1.5l-1.4 3.4c-5.5 4.5-10.9 8-16.2 10l-0.3 1.2-1.1 3.5 22.2-11.3-0.5-3.3 3.7-0.5 19.5-25.2-0.8-5.9 5.2-2 5.5-4.5v-1.4q-0.3-0.1-0.6-0.2z"/><path class="q" d="m73.7 98l-3-3.5c-7.1 13.2-12.9 27.5-17.6 42.7 4.3 15.5 10.4 30 18 43.5h3.7l-15.2-44.4z"/><path class="r" d="m73.3 32.8l-0.6 4q9.9 12.9 15.7 28c4.5 2.3 11.1 4.2 18.2 6-2.4-12.4-5.7-23.8-12.3-31.2l-1.2-2.6-4.2-3.2-0.8-3.5-1.5-0.5-1.3 2.2-4.9-1.7-0.9 3.5-3.5-2.2-0.3 1.2z"/><path class="s" d="m107.6 46.2v-2l-4.4-2.4-1.6-3.7h-1.7l2.3 9.3c10.5 6 19.9 12.4 27.7 19.4-0.4 5.9-1.7 12.2-3.4 18.8q1.4 0 3-0.3c1.5-6.9 3.9-14.2 3.1-21.2-6.8-6.2-15.5-12.1-25-17.9z"/><path class="i" d="m82.9 7.6h-1.8l-6.3-2.3v3.1l-7.2-1.5 0.9 5.9-2.1 1.7 0.6 5.2-1.2 3 4.6 6.3 3.9 0.8 1.3-0.8 2.6 1.3 1.7-2.6 3 1.8 1-2.6 1.4 0.7-0.5-2.9c1.3-6.2 1-12.1-1.9-17.1z"/><path class="b" d="m123.5 88.8c0.9-0.9 1.6-2 2.1-3.2q1 0 2-0.1c0.6-0.1 1.2-0.2 1.9-0.3l-0.1 0.1c0.7-3.5 1.7-7 2.3-10.5 0.6-3.5 1-7.1 0.6-10.7l0.1 0.2q-2.9-2.5-5.9-4.9-3.1-2.3-6.2-4.5c-4.2-3-8.5-5.7-12.9-8.4l-0.2-0.1v-0.2-2l0.2 0.3-4.4-2.4h-0.1v-0.2l-1.6-3.7 0.3 0.2h-3.7-0.1l-4.8-1.7h0.1-0.1l-0.1-0.1-3.6-3h-0.1l-0.1-0.2-0.7-4 0.3 0.3-1.1-0.1h-0.2l-0.1-0.2c-0.9-1.5-1.6-3.1-2-4.8v-0.1-0.1c0.7-1.6 1.2-3.3 1.4-5.1 0.2-1.8 0.2-3.6-0.1-5.3-0.6-3.5-2.6-6.6-4.9-9.3l0.6-0.1-0.8 1.2-0.2 0.3-0.3-0.3c-2.5-2-5.2-3.8-8.2-5l0.5-0.1-0.9 1.7-0.2 0.2-0.2-0.1c-3.5-1-7.2-1.3-10.8-0.7l0.3-0.5 1.6 2.9 0.4 0.7-0.8-0.2c-2.3-0.8-4.7-1.6-6.8-2.9l0.5-0.4c0.5 2.2 1.6 4.3 3.2 5.8l0.6 0.6h-0.8-3l0.3-0.4c0.4 2.4 1.8 4.5 3.3 6.5l0.3 0.3-0.4 0.2-1.8 0.8 0.1-0.5c0.6 1.1 1.4 2.1 2.5 2.6l0.2 0.1-0.1 0.3c-0.7 2.8-0.4 5.8 0.2 8.7q0.2 1.1 0.5 2.2c0.2 0.7 0.5 1.3 0.9 1.9 0.8 1.2 2.1 1.8 3.5 2l1 0.1-0.8 0.5-1.7 1.1h-0.1-0.1c-3.5 0.4-7.1 1.2-10.5 2.3l0.2-0.2-0.7 2.6-0.1 0.2h-0.2-0.9l0.4-0.2-1.1 3.7v0.1c-5.3 7.8-10.3 15.8-14.9 24l-0.1 0.2h-0.2-1.5l0.3-0.2-1.4 3.3-0.1 0.1-2 1.6-2 1.5-2 1.5-2.1 1.4c-1.5 0.8-2.9 1.7-4.4 2.5q-2.3 1.1-4.6 2l0.1-0.2-0.2 0.5-0.1 0.2h-0.2-0.1l-0.1-0.1c-1.4-0.8-3-1.6-4.6-1.6-0.8 0.3-1.6 0.7-2.3 1.3l-0.1 0.1-0.1-0.1c-2-0.5-4-0.7-6.1-0.4l0.1-0.1c-0.5 0.5-0.7 1.3-0.6 2v-0.1l0.9 1.2 0.1 0.1-0.1 0.1c-1.1 1.3-1.9 2.8-2.6 4.4 0 2.6 0.5 5.3 1.3 7.8 1 0.5 2.2 0.7 3.3 0.7-1.1 0-2.3-0.1-3.4-0.6v-0.1c-0.8-2.5-1.4-5.1-1.4-7.8v-0.1c0.7-1.6 1.5-3.2 2.6-4.5v0.2l-1-1.2v-0.1q-0.1-0.6 0.1-1.2c0.1-0.4 0.3-0.8 0.6-1.1h0.1c2.1-0.3 4.2-0.1 6.2 0.4h-0.2c0.7-0.6 1.5-1.1 2.5-1.4 1-0.1 1.8 0.1 2.7 0.4q1.2 0.4 2.4 1.2l-0.2-0.1-0.3 0.2 0.3-0.5v-0.1h0.1q2.4-1 4.6-2.1c1.5-0.7 2.9-1.6 4.3-2.4l2.1-1.4 2-1.4 2-1.5 1.9-1.6-0.1 0.1 1.4-3.3 0.1-0.2h0.3 1.5l-0.3 0.2c4.6-8.2 9.6-16.3 14.9-24v0.1l1-3.8 0.1-0.3h0.2 0.9l-0.4 0.3 0.7-2.6 0.1-0.2 0.2-0.1c3.4-1.1 7-1.9 10.7-2.3l-0.2 0.1 1.7-1.1 0.1 0.7c-1.5-0.2-3.1-0.9-4-2.3-0.4-0.6-0.8-1.4-0.9-2.1q-0.3-1.1-0.6-2.2c-0.6-3-0.9-6.1-0.1-9.1l0.2 0.4c-1.3-0.6-2.2-1.7-2.8-2.9l-0.2-0.3 0.4-0.1 1.8-0.9-0.1 0.6c-0.8-1-1.6-2-2.2-3.2-0.6-1.1-1.1-2.3-1.3-3.6v-0.4h0.4 3l-0.3 0.6c-1.7-1.6-2.9-3.8-3.4-6.1l-0.1-0.8 0.7 0.4c2 1.3 4.3 2.1 6.6 2.8l-0.4 0.5-1.6-2.8-0.3-0.5 0.5-0.1c3.7-0.6 7.5-0.3 11 0.8l-0.4 0.1 0.9-1.7 0.2-0.2 0.3 0.1c3 1.2 5.8 3 8.3 5.1l-0.5 0.1 0.8-1.2 0.3-0.3 0.3 0.3c1.1 1.4 2.2 2.9 3.1 4.5 0.9 1.6 1.6 3.3 1.9 5.2 0.3 1.8 0.3 3.6 0.1 5.5-0.2 1.8-0.7 3.6-1.5 5.3l0.1-0.2c0.3 1.6 1.1 3.1 1.9 4.6l-0.2-0.2 1.1 0.1 0.3 0.1v0.2l0.7 4-0.1-0.2 3.6 3-0.2-0.1h0.1 0.1l4.7 1.8h-0.1 3.7 0.2l0.1 0.2 1.6 3.7-0.2-0.2 4.5 2.4 0.1 0.1v0.2 2l-0.1-0.3c4.4 2.7 8.7 5.4 12.9 8.4q3.2 2.2 6.2 4.6 3 2.4 5.8 5l0.1 0.1v0.1c0.4 3.6 0 7.2-0.8 10.7-0.7 3.6-1.7 7-2.4 10.5v0.1h-0.1c-0.6 0.1-1.3 0.2-1.9 0.2q-1 0.1-2 0.1v-0.1c-0.5 1.2-1.2 2.3-2.1 3.2z"/><path class="b" d="m62.4 60c3.1 5.7 5.8 11.5 7.8 17.7v0.2l-0.1 0.1-1.6 2.2v-0.3l3.7 7.9v0.1 4.4 0.1 0.1c-1 1.8-1.9 3.6-2.8 5.4l-2.8 5.4c-1.8 3.7-3.4 7.4-4.9 11.1-0.8 1.9-1.5 3.8-2.3 5.7l-2.1 5.7-2 5.7-1.9 5.8v-0.2l1.8 5.9 1.9 5.7 2.1 5.7c0.7 1.9 1.5 3.8 2.2 5.7l2.5 5.5q1.2 2.8 2.6 5.5c1.7 3.6 3.7 7.2 5.7 10.7l-0.2-0.1 0.8 0.3 0.2 0.1 0.1 0.2 0.6 4.3 0.1 0.8-0.7-0.5-1.1-0.9c-0.5-0.2-1.2-0.2-1.6 0.2-0.5 0.3-0.6 0.9-0.4 1.5 0.2 0.4 0.3 0.8 0.4 1.3 0.2 0.5 0.2 1 0.2 1.4v0.2l-0.2 0.1c-1.5 0.7-2.9 1.4-4.4 2q-1.2 0.5-2.4 0.8c-0.7 0.3-1.6 0.4-2.4 0.5-1.3 0.1-2.6 0.6-3.8 1.3-1.1 0.8-2.1 1.7-2.7 2.9h0.1c-0.2 0.5-0.2 1.1-0.4 1.7-0.4-0.5-0.5-1.2-0.4-1.9 0.6-1.5 1.7-2.6 3-3.4 1.2-0.8 2.6-1.4 4.1-1.5 0.8-0.1 1.6-0.2 2.3-0.4q1.1-0.3 2.3-0.8c1.4-0.5 2.9-1.2 4.4-1.8l-0.2 0.3c0-0.4 0-0.8-0.1-1.2-0.2-0.4-0.3-0.9-0.4-1.3-0.2-0.3-0.2-0.8-0.1-1.2 0.1-0.4 0.3-0.8 0.7-1.1 0.6-0.4 1.6-0.6 2.3-0.2h0.1v0.1l1.2 0.9-0.6 0.3-0.6-4.3 0.2 0.3-0.9-0.4h-0.1v-0.1c-2-3.6-4-7.2-5.8-10.8q-1.3-2.7-2.6-5.5l-2.4-5.6c-0.8-1.9-1.5-3.7-2.3-5.6l-2.1-5.8-1.9-5.7-1.7-5.9-0.1-0.1 0.1-0.1 1.8-5.8 2-5.8 2.2-5.7c0.7-1.9 1.4-3.8 2.2-5.6 1.6-3.8 3.2-7.5 5-11.2l2.8-5.4c0.9-1.9 1.8-3.7 2.7-5.5v0.2-4.4 0.1l-3.6-7.8-0.1-0.2 0.1-0.2 1.7-2.2-0.1 0.3c-1.9-6.1-4.6-11.9-7.7-17.6z"/><path class="t" d="m14.8 86.2l28.1-12.3-0.2 0.1 13-26.7 0.1-0.1 0.1-0.1 6-2.5-0.2 0.3 1.1-4.4 0.1-0.3h0.2l9.5-2.5 0.4-0.1 0.1 0.4 4.2 11.3-0.4-0.2h6.3 0.3l0.1 0.3 6.5 25.4v0.1l-0.1 0.2-9 17.3-0.4-0.2 8.9-17.4v0.2l-6.7-25.4 0.4 0.3h-6.3-0.3l-0.1-0.3-4.2-11.3 0.5 0.2-9.5 2.6 0.4-0.4-1.2 4.4v0.3h-0.2l-6.1 2.5 0.3-0.2-13.2 26.6v0.1l-0.1 0.1-28.2 12.2z"/><path class="u" d="m106.4 89.5l-3.9-14.5h-0.1l-0.9-6.1-0.9-6.1-1.8-12.3v-0.2h0.1l1.4-1 0.3 0.4-1.4 1 0.2-0.3 2 12.2 1 6.1 0.9 6.1h-0.1l3.6 14.6z"/><path class="v" d="m102.2 46.5l12.6 9.1c2.2 1.5 4.2 3.1 6.3 4.7l6.2 4.7-0.1-0.1 5.2 2-0.2 0.4-5.2-1.8h-0.1l-6.3-4.6c-2.1-1.5-4.2-3-6.3-4.6l-12.4-9.4z"/><path class="w" d="m82.4 99l-11.7 18.9-0.1 0.1-9.3 5.6 0.2-0.2-4.7 13v-0.3c2.4 5.7 4.7 11.3 7 17l6.9 17-0.1-0.2 5 2.5 0.1 0.1v0.1l3.9 10.1-0.4 0.2-4-10.1 0.1 0.2-5-2.5-0.1-0.1-0.1-0.1-7-16.9c-2.4-5.7-4.8-11.3-7.1-16.9l-0.1-0.2 0.1-0.2 4.8-12.9v-0.2h0.1l9.4-5.6-0.2 0.1 11.8-18.8z"/></g></svg>