<svg width="315" height="43" viewBox="0 0 315 43" fill="none" xmlns="http://www.w3.org/2000/svg">
<path d="M0.871219 0.959996H13.9032V16.008H25.0632V0.959996H38.0952V42H25.0632V24.288H13.9032V42H0.871219V0.959996ZM69.1373 33H57.1853L55.0253 42H41.7773L55.0253 0.959996H71.9453L84.6173 42H71.2973L69.1373 33ZM63.0893 9.816L58.8413 25.008H67.4093L63.3773 9.816H63.0893ZM119.186 40.632C117.41 41.4 115.346 41.952 112.994 42.288C110.642 42.624 108.458 42.792 106.442 42.792C99.9143 42.792 94.8023 41.088 91.1063 37.68C87.4103 34.272 85.5623 29.04 85.5623 21.984C85.5623 14.784 87.5063 9.408 91.3943 5.856C95.2823 2.256 100.754 0.455998 107.81 0.455998C111.17 0.455998 114.674 0.911998 118.322 1.824C118.322 2.784 118.226 4.224 118.034 6.144C117.842 8.016 117.65 9.336 117.458 10.104H112.922C109.61 10.104 106.994 10.176 105.074 10.32C103.202 10.416 102.074 10.632 101.69 10.968C100.97 11.64 100.418 13.008 100.034 15.072C99.6503 17.088 99.4583 19.032 99.4583 20.904C99.4583 24.168 99.8663 26.688 100.682 28.464C101.498 30.192 102.53 31.344 103.778 31.92C104.978 32.496 106.97 32.784 109.754 32.784C111.962 32.784 114.842 32.592 118.394 32.208L119.186 40.632ZM162.22 42H148.036L140.044 26.664C139.9 26.424 139.516 25.752 138.892 24.648C138.316 23.544 137.668 22.488 136.948 21.48V42H123.988V0.959996H136.948V19.608C137.764 18.696 138.46 17.712 139.036 16.656C139.66 15.552 140.02 14.904 140.116 14.712L147.82 0.959996H161.5L153.292 14.712C153.148 14.904 152.836 15.408 152.356 16.224C151.876 17.04 151.348 17.808 150.772 18.528C150.244 19.2 149.668 19.824 149.044 20.4C149.908 21.216 150.604 22.032 151.132 22.848C151.708 23.616 152.356 24.648 153.076 25.944L162.22 42ZM176.085 0.959996H205.533V9.888H189.045V18.024H202.653V25.872H189.045V42H176.085V0.959996ZM209.549 0.959996H239.429V9.6H222.509V17.088H236.765V24.864H222.509V33.216H239.357V42H209.549V0.959996ZM256.732 12.048C256.732 13.056 257.236 13.848 258.244 14.424C259.3 15 260.932 15.624 263.14 16.296C265.78 17.16 267.94 18 269.62 18.816C271.348 19.632 272.836 20.904 274.084 22.632C275.38 24.36 276.028 26.616 276.028 29.4C276.028 38.328 270.22 42.792 258.604 42.792C256.684 42.792 254.332 42.624 251.548 42.288C248.812 41.952 246.316 41.52 244.06 40.992C244.156 39.984 244.348 38.52 244.636 36.6C244.972 34.632 245.284 33.168 245.572 32.208C247.252 32.448 249.772 32.736 253.132 33.072C256.54 33.408 259.108 33.576 260.836 33.576C261.844 33.576 262.444 33.504 262.636 33.36C262.924 33.168 263.14 32.856 263.284 32.424C263.476 31.944 263.572 31.536 263.572 31.2C263.572 30.24 263.116 29.52 262.204 29.04C261.292 28.512 259.732 27.888 257.524 27.168C254.884 26.352 252.7 25.512 250.972 24.648C249.244 23.784 247.732 22.44 246.436 20.616C245.14 18.792 244.492 16.392 244.492 13.416C244.492 11.304 244.972 9.24 245.932 7.224C246.892 5.16 247.876 3.768 248.884 3.048C249.652 2.52 251.236 2.016 253.636 1.536C256.036 1.056 258.292 0.815998 260.404 0.815998C265.78 0.815998 270.172 1.32 273.58 2.328C273.532 3.288 273.364 4.608 273.076 6.288C272.836 7.968 272.572 9.504 272.284 10.896L270.628 10.824C264.388 10.392 260.404 10.176 258.676 10.176C257.956 10.176 257.548 10.2 257.452 10.248C257.26 10.344 257.092 10.56 256.948 10.896C256.804 11.232 256.732 11.616 256.732 12.048ZM302.663 42H289.703V9.96H278.111V0.959996H314.255V9.96H302.663V42Z" fill="black"/>
</svg>
