<svg version="1.2" xmlns="http://www.w3.org/2000/svg" viewBox="0 0 380 169" width="380" height="169"><defs><clipPath clipPathUnits="userSpaceOnUse" id="cp1"><path d="m636 169h-925v-500h925z"/></clipPath><linearGradient id="P" gradientUnits="userSpaceOnUse"/><linearGradient id="g1" x2="1" href="#P" gradientTransform="matrix(0,223.433,-503.72,0,227.131,-112.215)"><stop stop-color="#009479"/><stop offset="1"/></linearGradient></defs><style>.a{mix-blend-mode:screen;fill:url(#g1)}</style><g clip-path="url(#cp1)"><path fill-rule="evenodd" class="a" d="m379.3 0.9l-0.1 0.3-0.1 0.3v0.3l-0.1 0.2-0.1 0.3v0.3l-0.1 0.3v0.3l-0.1 0.3-0.1 0.3v0.3l-0.1 0.3-0.1 0.3v0.2q0 0.1 0 0.1l-0.1 0.2-0.1 0.3v0.3 0.1l-0.1 0.3-0.1 0.3-0.1 0.3v0.3l-0.1 0.3-0.1 0.3v0.2l-0.1 0.3-0.1 0.3-0.1 0.3v0.3l-0.1 0.3-0.1 0.3v0.3l-0.1 0.3-0.1 0.2v0.1 0.3l-0.1 0.3-0.1 0.3v0.3l-0.1 0.3v0.3l-0.1 0.3-0.1 0.3v0.3l-0.1 0.2v0.3l-0.1 0.3v0.3l-0.1 0.3-0.1 0.3v0.1 0.3l-0.1 0.3v0.3l-0.1 0.3v0.3 0.3l-0.1 0.3v0.3l-0.1 0.2v0.3l-0.1 0.3v0.3l-0.1 0.3v0.3 0.2l-0.1 0.2v0.3 0.3l-0.1 0.3v0.3 0.3l-0.1 0.3v0.3l-0.1 0.3v0.3q0 0.1 0 0.1v0.2l-0.1 0.1q0 0.1 0 0.1v0.1 0.3 0.2l-0.1 0.2v0.3 0.3 0.1 0.2l-0.1 0.3v0.3 0.3 0.3l-0.1 0.9v0.3l-0.1 0.2v0.3 0.6 0.3 0.3l-0.1 0.3v0.3 0.3 0.3 0.3 0.3 0.1l-0.1 0.2v0.3 0.3 0.3 0.3 0.3 0.3 0.3 0.3 0.3 0.3 0.2l-0.1 0.3v0.3 0.3 0.2 0.3 0.3 0.3 0.3 0.3 0.3 0.3 0.3 0.3 0.3 0.3 0.3l-0.1 0.3v0.3 0.3 0.3 0.1 0.3 0.3 0.3 0.3 0.3 0.3 0.3 0.3 0.3 0.1 0.2 0.3 0.3l-0.1 0.3v0.3 0.3 0.3 0.5 0.2 0.3 0.3 0.3 0.3 0.3 0.3 0.3l-0.1 0.3v0.1 0.3 0.2 0.3 0.3 0.3 0.3 0.3 0.3 0.3 0.3 0.3l-0.1 0.3v0.3 0.2 0.3 0.3 0.2 0.3 0.3 0.3 0.3 0.3l-0.1 0.3v0.3h-0.1l-0.1 0.1-0.1 0.1h-0.1v0.1l-0.1 0.1h-0.1l-0.1 0.1-0.1 0.1h-0.1l-0.1 0.1v0.1l-0.1 0.3-0.1 0.1-0.1 0.1-0.1 0.1h-0.1l-0.1 0.1-0.1 0.1h-0.1l-0.1 0.1-0.1 0.1-0.1 0.1h-0.1l-0.1 0.1-0.1 0.1h-0.1l-0.1 0.1-0.1 0.1-0.1 0.1h-0.1v0.1h-0.1l-0.1 0.1h-0.1v0.1h-0.1l-0.1 0.1-0.1 0.1h-0.1v0.1h-0.1l-0.1 0.1h-0.1v0.1h-0.1l-0.1 0.1h-0.1v0.1h-0.1v0.1h-0.1-0.1-0.1-0.1l-0.1-0.1h-0.1-0.1l-0.1-0.1h-0.1v0.1h-0.1-0.1v0.1h-0.1v0.1 0.3 0.3 0.2 0.3 0.3 0.3l-0.1 0.3v0.3 0.3 0.3-0.2l-0.1-0.2-0.1-0.3v-0.3l-0.1-0.3-0.1-0.3v-0.3l-0.1-0.3-0.1-0.3v-0.3l-0.1-0.3h-0.1l-0.1-0.1h-0.1-0.1l-0.1-0.1h-0.1-0.1l-0.1-0.1h-0.1-0.1l-0.1-0.1h-0.1-0.1l-0.1-0.1h-0.1-0.1-0.1v-0.1h-0.1-0.1-0.1l-0.2-0.1h-0.1l-0.1-0.1h-0.1v-0.1l-0.1-0.3-0.1-0.1-0.1-0.2h-0.1l-0.1-0.1h-0.1-0.1l-0.1-0.1h-0.1-0.1-0.1v-0.1h-0.1-0.1-0.1l-0.1-0.1h-0.1-0.1l-0.1-0.1h-0.1v-0.1l-0.1-0.3-0.1-0.3-0.1-0.1h-0.1v-0.1h-0.1-0.1-0.1l-0.1-0.1h-0.1-0.1l-0.1-0.1h-0.1l-0.1-0.3v-0.3l-0.1-0.3h-0.1-0.1l-0.1-0.1v-0.1l-0.1-0.3-0.1-0.3v-0.3l-0.1-0.3-0.1-0.3-0.1-0.3v-0.3l-0.1-0.2-0.1-0.3v-0.3l-0.1-0.3-0.1-0.3v-0.3l-0.1-0.3-0.1-0.3-0.1-0.3-0.1-0.3v-0.3l-0.1-0.3-0.1-0.3-0.1-0.3v-0.3l-0.1-0.3v-0.1l-0.1-0.3-0.1-0.3-0.1-0.3-0.1-0.3v-0.3l-0.1-0.3-0.1-0.3-0.1-0.3v-0.3l-0.1-0.3-0.1-0.3-0.1-0.2-0.1-0.3-0.1-0.3v-0.3l-0.1-0.3-0.1-0.3v-0.1l-0.1-0.3-0.1-0.3-0.1-0.3-0.1-0.3v-0.3l-0.1-0.3-0.1-0.3-0.1-0.3-0.1-0.3v-0.2l-0.1-0.3-0.1-0.3-0.1-0.3-0.1-0.3-0.1-0.3-0.1-0.3v-0.3l-0.1-0.3-0.1-0.3-0.1-0.1v-0.3l-0.1-0.3-0.1-0.3-0.1-0.3-0.1-0.3-0.1-0.3-0.1-0.3-0.1-0.3-0.1-0.2-0.1-0.3-0.1-0.3-0.1-0.3-0.1-0.3v-0.3l-0.1-0.3-0.1-0.3-0.1-0.3-0.1-0.3-0.1-0.3-0.1-0.2-0.1-0.2-0.1-0.3-0.1-0.3-0.2-0.3-0.1-0.3v-0.1l-0.1-0.2-0.1-0.3-0.1-0.3-0.2-0.3-0.1-0.3v-0.1l-0.1-0.1-0.1-0.2-0.1-0.3-0.2-0.3-0.1-0.3-0.1-0.3-0.1-0.1-0.1-0.2v-0.1l-0.1-0.2-0.1-0.3-0.2-0.2-0.1-0.3-0.1-0.3-0.2-0.3-0.1-0.2-0.1-0.3-0.2-0.2-0.1-0.3-0.2-0.3-0.2-0.3-0.1-0.3-0.2-0.3-0.1-0.3-0.2-0.2-0.2-0.3-0.1-0.3-0.2-0.3-0.1-0.3-0.2-0.2-0.2-0.3-0.4-0.6-0.2-0.2-0.1-0.3-0.2-0.3-0.2-0.3-0.2-0.3-0.2-0.2-0.2-0.3-0.2-0.3-0.2-0.3-0.2-0.3-0.2-0.3-0.2-0.2-0.3-0.2-0.2-0.3-0.3-0.3-0.2-0.2-0.3-0.3-0.2-0.3-0.3-0.2-0.2-0.3-0.3-0.3-0.2-0.2-0.3-0.3-0.2-0.3h-0.1l-0.1 0.8c-0.1 0.7-0.2 1.4-0.5 2.1l-0.5 2q-0.6 2.1-1.2 4.2l-0.3 1q-0.2 0.6-0.4 1.1l-0.8 2.1-3 8.2 0.8 5.7q0 0 0 0.1l0.1 0.7 0.2 1.5 0.3 3.1q0.1 0.7 0 1.5l0.1 1.5v3l-0.2 3.1-0.1 1.5c-0.1 0.5-0.1 1-0.2 1.5q-0.2 1.5-0.5 3l-0.6 3.1-0.1 0.1-0.3 1.5h-0.1v0.1l-2.7 1-0.1 0.4v0.1h-0.1l-1 0.5-0.4 1.7-3.8 2.2-0.1 0.1h-0.1l-8.8-1h-0.1v-0.1l-0.2-2.1-1-0.2h-0.1v-0.1l-0.1-1-2.6-0.4h-0.1v-0.1l-0.2-1.8-0.1-0.1-0.2-3.4c-0.1-1.1-0.1-2.2-0.1-3.3v-1.7q-0.1-0.5 0-0.9v-0.8l0.2-3.4v-0.9l0.1-0.8 0.2-1.7 0.4-3.4q0.7-3.4 1.3-6.8l-1.3-4.5-1.1-4.5c-0.4-1.5-0.8-2.9-1.1-4.5l-0.6-3.7-0.1 0.1-0.2 0.7-0.2 0.7-0.2 0.7-0.2 0.7-0.2 0.7-0.2 0.7-0.2 0.7-0.2 0.7-0.2 0.7-0.2 0.7-0.2 0.7-0.2 0.7-0.2 0.8-0.3 0.7-0.2 0.7-0.2 0.7-0.2 0.7-0.2 0.7-0.2 0.7-0.2 0.7-0.2 0.7-0.2 0.7-0.2 0.7-0.2 0.7-0.2 0.7-0.2 0.8-0.3 0.7-0.2 0.7-0.2 0.7-0.2 0.7-0.2 0.7-0.2 0.7-0.2 0.7-0.2 0.7-0.2 0.7-0.2 0.7-0.3 0.9-0.1 0.3-0.5 0.3-0.8 0.3h-0.1l-0.1 0.7-0.1 0.8-0.2 0.7-0.1 0.7-0.1 0.7-0.2 0.7-0.1 0.7-0.1 0.7-0.2 0.7-0.1 0.7-0.1 0.8-0.1 0.7-0.2 0.7-0.1 0.7-0.1 0.7-0.2 0.7-0.1 0.7-0.1 0.7-0.2 0.7-0.1 0.8-0.1 0.7-0.1 0.7-0.2 0.7-0.1 0.7-0.1 0.7-0.2 0.7-0.1 0.7-0.1 0.8-0.1 0.7-0.2 0.7-0.1 0.7-0.1 0.7-0.1 0.4-0.1 0.4-0.4 0.3-0.6 0.3-0.5 0.2-0.1 0.7-0.1 0.7-0.1 0.7-0.1 0.7-0.1 0.7-0.1 0.7v0.7l-0.1 0.8-0.1 0.7-0.1 0.7-0.1 0.7-0.1 0.7-0.1 0.7-0.1 0.7-0.1 0.7-0.1 0.8-0.1 0.7-0.1 0.7-0.1 0.7-0.1 0.7-0.1 0.7v0.7l-0.1 0.7-0.1 0.8-0.1 0.7-0.1 0.7-0.1 0.7-0.1 0.7-0.1 0.7-0.1 0.7-0.1 0.7-0.1 0.8-0.1 0.7-0.1 0.7-0.1 0.7-0.1 0.7-0.1 0.7-0.1 0.7-0.1 0.7v0.7l-0.1 0.8-0.1 0.7-0.1 0.7-0.1 0.4 0.6 0.2 0.6 0.4 0.4 0.4 0.2 0.4v0.2l0.2 0.1 0.9 0.5 0.5 0.5 0.2 0.6v0.7l-0.1 0.7v0.7 0.8l-0.1 0.3-0.1 0.6-0.4 0.7-0.8 0.5-0.9 0.5h-0.2l-0.6 0.2v0.5l-0.4 0.4-0.5 0.4-0.7 0.3-1 0.3-1 0.3h-0.4l-0.4 0.7-0.3 0.5-0.1 0.7-0.1 0.7-0.1 0.7-0.2 0.7-0.1 0.7-0.1 0.8-0.2 0.7-0.1 0.7-0.1 0.7-0.2 0.7-0.1 0.7-0.1 0.7-0.2 0.7-0.1 0.7-0.1 0.8-0.2 0.7-0.1 0.7-0.1 0.7-0.2 0.7-0.1 0.7-0.1 0.7-0.2 0.7-0.1 0.7-0.1 0.8-0.2 0.7-0.1 0.7-0.1 0.7-0.1 0.3v-0.8-0.7-0.7-0.7-0.7-0.7l0.1-0.7v-0.7-0.7-0.8-0.7-0.7-0.7-0.7-0.7-0.7-0.7-0.7-0.8-0.7-0.7-0.7-0.7-0.7l0.1-0.7v-0.7-0.7-0.3l-0.3-0.7-0.2-0.5-0.9-0.1-1-0.3-0.7-0.3-0.6-0.4-0.3-0.4-0.1-0.5v-0.1l-1-0.4-0.1-0.1-0.8-0.5v-0.1l-0.5-0.6-0.1-0.6 0.1-0.7 0.1-0.7v-0.7l0.1-0.7 0.1-0.4 0.2-0.6 0.5-0.5 0.8-0.6 0.7-0.3 0.2-0.4 0.4-0.4 0.6-0.4 0.8-0.4h0.1v-0.7l0.1-0.7v-0.7l0.1-0.8v-0.7l0.1-0.7v-0.7-0.7l0.1-0.7v-0.7l0.1-0.7v-0.8l0.1-0.7v-0.7l0.1-0.7v-0.7-0.7l0.1-0.7v-0.7l0.1-0.7v-0.8l0.1-0.7v-0.7l0.1-0.7v-0.3q0 0 0 0v-0.2q0 0 0-0.1v-0.1-0.7l0.1-0.7v-0.7l0.1-0.8v-0.7l0.1-0.7v-0.7l0.1-0.7v-0.7-0.7l0.1-0.7v-0.8l0.1-0.7v-0.7-0.3q0 0 0 0l0.1-0.2q0-0.1 0-0.1v-0.1-0.7l0.1-0.7v-0.7-0.4l-0.2-0.1-0.6-0.2-0.4-0.4-0.1-0.3v-0.7-0.7-0.7-0.7-0.7-0.8-0.7-0.7-0.7-0.7-0.7-0.7l0.1-0.7v-0.7-0.8-0.7-0.7-0.7-0.7-0.7-0.7-0.7-0.7-0.8l0.1-0.7v-0.7-0.7-0.7-0.7-0.7-0.7-0.1q0-0.1 0-0.1v-0.5-0.7l-0.6-0.1-0.6-0.3-0.1-0.3-0.1-0.7-0.1-0.8v-0.7l-0.1-0.7-0.1-0.7v-0.7l-0.1-0.7-0.1-0.7-0.1-0.7v-0.7l-0.1-0.7-0.1-0.7v-0.7l-0.1-0.7-0.1-0.7-0.1-0.8v-0.7l-0.1-0.7-0.1-0.7v-0.7l-0.1-0.7-0.1-0.7-0.1-0.7v-0.7l-0.1-0.7-0.1-0.7v-0.7l-0.1-0.7-0.1-0.7-0.1-0.7v-0.8l-0.1-0.7-0.1-0.7v-0.7l-0.1-0.7-0.1-0.7-0.1-0.7v-0.5q0 0 0-0.1v-0.1l-0.1-0.7-0.1-0.7v-0.7l-0.1-0.7-0.1-0.7-0.1-0.7v-0.8l-0.1-0.7-0.1-0.7v-0.3l-0.8 8.2q-0.4 4.7-1 9.4l-1 9.4-4.2 37.6-2.6 1.9v0.1h-0.1l-0.9 0.6v0.3l-0.1 0.1-2.7 1.8-0.1 0.1-4.6 1.5-0.1 0.1h-0.1l-0.4-0.1-1.2 5.8-0.3 1.8-0.2-1.8-0.6-6.2-3.2-0.6h-0.1l-4.3-1.6h-0.2v-0.1-0.4l-0.9-0.3-0.1-0.1v-0.7l-2.4-0.9-0.2-0.1v-0.1l-0.2-38.1-0.1-9.6q0-4.7 0-9.5v-1.5l-0.1 0.8-0.1 0.7-0.1 0.5-0.1 0.3-0.1 0.5v0.4l-0.1 0.5-0.1 0.4v0.4l-0.2 0.7v0.2 0.3l-0.2 0.9v0.2 0.1l-0.5 2.7-0.1 0.5v0.4l-0.1 0.5-0.1 0.4v0.3l-0.2 0.8v0.2 0.2l-0.2 1v0.2 0.1l-0.7 4.2-2.6 0.3-0.1 0.4-0.1 0.6-0.1 0.7-0.1 0.7-0.1 0.6-0.1 0.7-0.1 0.6v0.1l-0.1 0.6-0.1 0.6v0.2l-0.1 0.5-0.1 0.6-0.1 0.3v0.5l-0.1 0.4-0.1 0.5v0.4l-0.1 0.4-0.1 0.6v0.3l-0.1 0.3-0.1 0.8v0.3l-0.1 0.6-0.2 0.7-0.1 0.6-0.1 0.7-0.1 0.7-0.1 0.6-0.1 0.7-0.1 0.7-0.1 0.6-0.1 0.6v0.1l-0.1 0.6-0.1 0.6v0.2l-0.1 0.6-0.1 0.5v0.3l-0.1 0.5-0.1 0.5v0.4l-0.1 0.4-0.1 0.4-0.1 0.6v0.4l-0.1 0.3-0.1 0.7v0.3 0.2l-0.2 0.9v0.2 0.2l-0.2 1v0.1 0.1l-0.2 1.2v0.1l-0.2 1.3-1 0.3-1 0.3-1 0.3h-0.3l-1 0.3-0.8 0.3v0.6l-0.1 0.7-0.1 0.7-0.1 0.6-0.1 0.7-0.1 0.7v0.1l1.1-0.2 1-0.3 1.1-0.2h0.1l-0.1 0.7-0.1 0.6-0.1 0.7-0.1 0.7-0.1 0.6-0.1 0.7-0.1 0.6v0.5l-0.1 0.3-0.1 0.6-0.1 0.6-0.1 0.7-0.1 0.7v0.2l-0.1 0.5-0.1 0.6-0.1 0.6-0.1 0.7v0.6l-0.3 1.8-0.1 0.3-0.1 0.6v0.4l-0.3 2.1v0.2l-0.1 0.6-0.1 0.2-0.1 1.2-3 0.7v0.7l-0.1 0.7-0.1 0.6-0.1 0.3-0.2 1.5v0.2 0.2l-0.4 2.9v0.2l-0.1 0.2-0.3 2.8-0.1 0.4v0.2l-0.1 1v0.1h-0.1l-0.2 1.6v0.4 0.3l-0.2 0.9v0.1l-0.1 0.7v0.5l-0.1 0.3v0.5l-0.1 0.3-0.1 0.8v0.2l-0.1 0.7-0.1 0.6-0.1 0.9-1 0.3-1 0.3-0.5 0.1-0.8 0.3-0.7 0.2-0.6 0.2-0.1 0.7-0.1 0.6v0.7l-0.1 0.6-0.1 0.7v0.7l-0.1 0.6-0.1 0.7v0.7l-0.1 0.6-0.1 0.7v0.7l-0.1 0.3-1 0.3-0.9 0.3-1 0.3-1 0.3-0.5 0.2-1 0.3-0.3 0.1-0.1 0.7-0.1 0.6-0.1 0.7-0.1 0.7-0.1 0.6-0.1 0.7-0.1 0.7-0.1 0.6-0.2 0.7-0.1 0.6-0.1 0.7-0.1 0.7-0.1 0.6-0.1 0.7-0.1 0.7-0.1 0.6-0.2 0.7-0.1 0.6-0.1 0.7-0.1 0.7-0.1 0.5v-0.7-0.6l-0.1-0.7v-0.7l-0.1-0.6v-0.7-0.6l-0.1-0.7v-0.7-0.6l-0.1-0.7v-0.7-0.6l-0.1-0.7v-0.6-0.7l-0.1-0.7v-0.6-0.7-0.2l-0.3 0.1-0.8-0.5-0.7-0.5-0.3-0.2-0.7-0.4-0.8-0.5-0.2-0.2-0.8-0.5-0.7-0.4-0.2-0.2v-0.6-0.7-0.7-0.6l0.1-0.7v-0.6-0.4l-0.6 0.2-1-0.1h-1.1-0.7v-0.6h-0.9v-0.7-0.7-0.6-0.7-0.7l-0.1-0.6v-0.7-0.7-0.6-0.7-0.6-0.7-0.7-0.6-0.7l-0.1-0.7v-0.6-0.7-0.7-0.6-0.7-0.6-0.7-0.7-0.6-0.7l-0.1-0.7v-0.6-0.8l-1.1 0.2h-0.4v-0.3l-1.1 0.1-0.1-0.7v-0.6-0.7-0.7-0.6l-0.1-0.7v-0.6-0.7-0.7-0.6l-0.1-0.7v-0.7-0.6-0.7-0.7l-0.1-0.6v-0.7-0.6-0.7-0.7l-0.1-0.6v-0.7-0.7-0.6-0.7l-0.1-0.8 1.1-0.3h0.2v-0.1l1-0.3 0.8-0.1-0.1-0.7v-0.7-0.6-0.7-0.7-0.4l-1.1 0.2-1 0.1-1.1 0.2-1.1 0.1-0.7 0.2 1-0.3 1-0.3 0.9-0.3-0.9 0.3-1 0.3-1 0.3-0.1-0.7v-0.7-0.6-0.7l-0.1-0.7v-0.6-0.7-0.6l-0.1-0.7v-0.7-0.6-0.7l-0.1-0.7v-0.6-0.7l-0.1-0.6v-0.7-0.7-0.6l-0.1-0.7v-0.7-0.6-0.7l-0.1-0.7v-0.6-0.7-0.6l-0.1-0.7v-0.7-0.6-0.7l-0.1-0.7v-0.6-0.7-0.6l-0.1-0.7v-0.7-0.6l-0.1-0.7v-0.7-0.6-0.7l-0.1-0.6v-0.7-0.7-0.6l-0.1-0.7v-0.7-0.6-0.7l-0.1-0.7v-0.6-0.7-0.6l-0.1-0.7v-0.7-0.6-0.9l-0.9-0.2v-0.6l-0.1-0.6-1-0.2-0.6-0.2v-0.6l-0.1-0.7v-0.7-0.6l-0.1-0.7v-0.6-0.7l-0.1-0.7v-0.6-0.7l-0.1-0.7v-0.6-0.7l-0.1-0.6v-0.7-0.7l-0.1-0.6v-0.7-0.7l-0.1-0.6v-0.7-0.6l-0.1-0.7v-0.7-0.6l-0.1-0.7v-0.7-0.6-0.7l-0.1-0.4-0.4 19.5-1 34.7-2 69.4-0.6 2.5v0.1h-0.1l-4.1 0.9-0.1 0.3-1.8 1.1-0.3 6.1-1 0.7-1 0.6-2.4-0.7v0.7l0.1 0.8v0.8 0.8 0.8l-0.2 0.1v0.8 0.8 0.8l0.1 0.8v0.8 0.8 0.8 0.9 0.8 0.8l0.1 0.8v0.8 0.8 0.8l-0.1-0.8-0.1-0.8-0.1-0.8-0.1-0.8-0.1-0.8-0.1-0.8-0.1-0.9-0.1-0.8-0.1-0.8v-0.8l-0.1-0.8-0.1-0.8-0.1-0.8-0.1-0.9h-0.2l-0.1-0.6-0.1-0.8-0.1-0.8-0.1-0.8-0.1-0.8-0.1-0.7-11-3.3-1.6-6.9-1.9-0.6-0.7-2.5-4.6-1.3-0.1-0.1-11.2-67.7-5.5-33.9-4.6-28.7c-0.1 2.3-0.3 4.7-0.4 7l-0.4 7v0.8l-0.1 0.9-0.3 1.7-0.5 3.5-1.2 6.9c-0.5 2.3-1.1 4.6-1.6 6.9l-1.7 6.8-2.1 6.8c0.8 3.5 1.4 6.9 2.1 10.3l0.6 5.2 0.3 2.6 0.1 1.3 0.1 1.3 0.2 5.2 0.1 1.3q0 0.6 0 1.3v2.6c-0.1 1.7-0.1 3.4-0.2 5.1l-0.4 5.2v0.1l-0.4 2.8v0.1h-0.2l-3.9 0.6-0.1 1.6v0.1h-0.2l-1.5 0.2-0.3 3.3v0.1h-0.2l-13.4 1.5h-0.1-0.1l-5.8-3.4h-0.1v-0.1l-0.5-2.5-1.7-0.8h-0.1v-0.1l-0.1-0.7-4.1-1.5-0.1-0.1v-0.1l-0.6-2.3h-0.1v-0.1l-1-4.6c-0.2-1.6-0.4-3.1-0.7-4.7-0.1-0.7-0.2-1.5-0.3-2.3l-0.1-2.3-0.4-4.6 0.1-4.7v-2.3c0.1-0.7 0.1-1.5 0.2-2.3l0.4-4.6 0.3-2.3 0.1-1.1q0-0.1 0-0.1l1.3-8.7-4.6-12.6-1.2-3.2c-0.2-0.5-0.4-1-0.6-1.6l-0.5-1.5q-0.8-2.9-1.6-5.9l-0.3 0.4-0.3 0.5-0.3 0.4-0.3 0.5-0.1 0.2-0.2 0.2-0.3 0.5-0.3 0.4-0.3 0.4-0.3 0.5-0.3 0.3-0.1 0.4-0.1 0.1-0.3 0.4-0.2 0.5-0.3 0.4-0.1 0.2-0.1 0.3-0.3 0.4-0.2 0.5-0.3 0.4-0.2 0.5-0.3 0.4-0.2 0.5-0.3 0.4-0.2 0.5-0.1 0.2-0.2 0.2-0.1 0.3-0.2 0.4-0.2 0.5-0.2 0.4-0.1 0.2-0.1 0.3-0.1 0.2-0.1 0.2-0.2 0.5-0.3 0.5-0.2 0.4-0.2 0.5-0.2 0.4-0.2 0.5-0.1 0.2-0.2 0.5-0.2 0.4-0.2 0.5-0.2 0.5-0.1 0.3-0.1 0.1-0.1 0.5-0.2 0.4-0.2 0.5-0.1 0.2-0.1 0.3-0.1 0.2-0.1 0.2-0.1 0.3-0.1 0.4-0.2 0.5-0.1 0.5-0.2 0.4-0.1 0.5-0.2 0.4-0.1 0.5-0.2 0.5-0.1 0.4-0.2 0.5-0.1 0.5-0.2 0.4-0.1 0.5-0.2 0.4-0.1 0.5-0.1 0.5-0.2 0.4-0.1 0.5-0.2 0.5v0.1l-0.2 0.5-0.1 0.5-0.1 0.4-0.2 0.5-0.1 0.4-0.1 0.5-0.2 0.5-0.1 0.4-0.1 0.5-0.2 0.4-0.1 0.4-0.1 0.5-0.1 0.5-0.2 0.4-0.1 0.5-0.1 0.5-0.2 0.4-0.1 0.5-0.1 0.5-0.1 0.1-0.1 0.5-0.1 0.5-0.2 0.4-0.1 0.5-0.1 0.4-0.1 0.5-0.2 0.5-0.1 0.4-0.1 0.5-0.1 0.4-0.2 0.5-0.1 0.4-0.1 0.5-0.1 0.5-0.1 0.4-0.2 0.5-0.1 0.5v0.2l-0.2 0.5-0.1 0.4-0.1 0.5-0.1 0.5-0.1 0.4-0.2 0.5-0.1 0.5-0.1 0.4v0.1l-0.1 0.4-0.1 0.5-0.2 0.5-0.1 0.4-0.1 0.5-0.1 0.5-0.1 0.4-0.1 0.4-0.1 0.5-0.1 0.4-0.1 0.5-0.2 0.5-0.1 0.4-0.1 0.5-0.1 0.5v0.2h-0.2l-0.1 0.1h-0.2l-0.1 0.5-0.1 0.4-0.1 0.5h-0.2l-0.1 0.1h-0.2l-0.2 0.1h-0.1l-0.2 0.1h-0.1l-0.2 0.1v0.1h-0.1l-0.1 0.1h-0.1l-0.2 0.5-0.1 0.4-0.1 0.2-0.1 0.1h-0.1-0.1l-0.2 0.1h-0.1l-0.1 0.1h-0.1-0.2l-0.1 0.1h-0.1l-0.1 0.1h-0.2-0.1l-0.1 0.1h-0.1l-0.2 0.1h-0.1-0.1l-0.1 0.1h-0.1l-0.1 0.3h-0.1v0.1h-0.1-0.1l-0.1 0.5v0.2h-0.1l-0.1 0.1h-0.1l-0.2 0.1h-0.2l-0.2 0.1h-0.1-0.1l-0.1 0.1h-0.1-0.1l-0.1 0.1h-0.1-0.1l-0.2 0.1h-0.1-0.1v0.1h-0.1-0.1l-0.1 0.1h-0.1-0.1l-0.1 0.1h-0.1-0.1-0.1l-0.1 0.1h-0.2l-0.1 0.1h-0.2l-0.2 0.1h-0.1l-0.1 0.5-0.1 0.5-0.1 0.4-0.1 0.5-0.1 0.5-0.1 0.4-0.2 0.5-0.1 0.4-0.1 0.5-0.1 0.5v0.2-0.4l-0.1-0.5v-0.5-0.4-0.5l-0.1-0.4v-0.5-0.5-0.4-0.5-0.1h-0.1l-0.1-0.1h-0.1v-0.1h-0.1v-0.1h-0.1l-0.1 0.1h-0.1-0.1-0.1l-0.2 0.1h-0.1l-0.1 0.1h-0.2l-0.1 0.1-0.1-0.1h-0.1l-0.1-0.1-0.1-0.1-0.1-0.1-0.1-0.1h-0.1l-0.1-0.1h-0.1v-0.1h-0.1l-0.1-0.1h-0.1v-0.1l-0.1-0.1h-0.1l-0.1-0.1-0.1-0.1h-0.1l-0.1-0.1h-0.1v-0.1h-0.1l-0.1-0.1-0.1-0.1-0.1-0.1h-0.1l-0.1-0.1-0.1-0.1-0.1-0.1-0.2-0.1-0.1-0.1h-0.1l-0.1-0.1-0.1-0.1-0.2-0.1-0.1-0.1-0.1-0.1-0.1-0.1-0.2-0.1h-0.1l-0.1-0.1-0.1-0.1-0.1-0.1-0.2-0.1-0.1-0.1-0.1-0.1h-0.1l-0.2-0.1-0.1-0.1-0.1-0.1-0.1-0.5v-0.2l-0.1-0.1-0.2-0.1-0.2-0.1-0.1-0.1-0.1-0.1-0.2-0.1-0.2-0.1-0.1-0.1-0.2-0.1-0.1-0.2-0.2-0.1v-0.4-0.5-0.4-0.5-0.5-0.4l-0.1-0.5v-0.2-0.5-0.5-0.4-0.5-0.5l-0.1-0.4v-0.5-0.4-0.5-0.4-0.5-0.4l-0.1-0.5v-0.2-0.3-0.4-0.5-0.1-0.5-0.4-0.5-0.5l-0.1-0.4v-0.5-0.4-0.5-0.3-0.5-0.4-0.5-0.5-0.4l-0.1-0.5v-0.4-0.5-0.2-0.3-0.5-0.4-0.5-0.4-0.5-0.5l-0.1-0.4v-0.5-0.5-0.2-0.5-0.4-0.5-0.4-0.5-0.5-0.4l-0.1-0.5v-0.2-0.3-0.4-0.5-0.5-0.4-0.5-0.5-0.4-0.5-0.4l-0.1-0.5v-0.5-0.2-0.5-0.5-0.4-0.5-0.5l-0.1-0.4v-0.5-0.4-0.5-0.5-0.4-0.1l-0.1-0.5v-0.5-0.4-0.5l-0.1-0.4v-0.5-0.5-0.4l-0.1-0.7v-0.3-0.4-0.4l-0.1-0.5-0.1-1.4-0.1-0.4v-0.5-0.5l-0.1-0.4v-0.3-0.2l-0.1-0.5v-0.4l-0.1-0.5v-0.3-0.4-0.1c-0.1-0.1-0.1-0.1-0.1-0.2v-0.2-0.2q0-0.1 0-0.1 0-0.1 0-0.1v-0.1l-0.1-0.4-0.1-0.5v-0.4l-0.1-0.5v-0.5l-0.1-0.4-0.1-0.5v-0.4l-0.1-0.5v-0.5l-0.1-0.2v-0.4l-0.1-0.5-0.1-0.5v-0.4l-0.1-0.5-0.1-0.4-0.1-0.5v-0.5l-0.1-0.4-0.1-0.5v-0.4l-0.1-0.5-0.1-0.5-0.1-0.4v-0.2l-0.1-0.5-0.1-0.4-0.1-0.5v-0.4l-0.1-0.5-0.1-0.4-0.1-0.5-0.1-0.4-0.1-0.5-0.1-0.5-0.1-0.4-0.1-0.5-0.1-0.4-0.1-0.5v-0.4l-0.1-0.2-0.1-0.4-0.1-0.5-0.1-0.4-0.1-0.5-0.1-0.5-0.1-0.4-0.1-0.5-0.2-0.4-0.1-0.5-0.1-0.4-0.1-0.5-0.1-0.4-0.1-0.5-0.1-0.4-0.1-0.5-0.1-0.4-0.1-0.2-0.1-0.5v-0.1q0-0.1 0-0.1l-0.1-0.2-0.1-0.5-0.1-0.4-0.1-0.5-0.1-0.5-0.1-0.4-0.1-0.5-0.1-0.4-0.1-0.5-0.1-0.4-0.1-0.5-0.1-0.4-0.1-0.5-0.1-0.4-0.1-0.5-0.1-0.5-0.1-0.2h0.8 0.7 0.2 0.6 0.8 0.8 0.8 0.8 0.8 0.1 0.1 0.7 0.8 0.1 0.7 0.2 0.7 0.2 0.1 0.6 0.2 0.6 0.3 0.8 0.7 0.4 0.8 0.2 0.7 0.3 0.7 0.3 0.5 0.5 0.7 0.3 0.8 0.3 0.7 0.3 0.8 0.3 0.8 0.3 0.7 0.4 0.1 0.8 0.3 0.7 0.3 0.8 0.4 0.8 0.3 0.8 0.4 0.8 0.4 0.5 0.4 0.5 0.5 0.4 0.5 0.5 0.4 0.5 0.6 0.8 0.4 0.5 0.4 0.5 0.6 0.6 0.5 0.3 0.5 0.6 0.7 0.1 0.5 0.6 0.7 0.6 0.7 0.6 0.7 0.7 0.6 0.7 0.5 0.5 0.6 0.2 0.3 0.5 0.5 0.5 0.5 0.5 0.5 0.6 0.5 0.5 0.5 0.5 0.5 0.5 0.5 0.5 0.4 0.5 0.5 0.5 0.2 0.7 0.1 0.1 0.4 0.4 0.5 0.5 0.5 0.5 0.4 0.5 0.5 0.4 0.5 0.4 0.5 0.4 0.1 0.4 0.3 0.5 0.1 0.5 0.1 0.8 0.4 0.5 0.4 0.4 0.5 0.4 0.1 0.4 0.4 0.1 0.7 0.5 0.4 0.4 0.4 0.5 0.2 0.7 0.7l-0.2 0.1h0.6 1 1.1 0.7 1 1 0.7 1 1.1 0.6 1 1 0.3 1 0.3 0.8 1 0.5 1 0.4 0.4 0.9 0.2 1q0 1 0.1 1.9h0.4l1.3 0.1h0.3l-0.1-1-0.1-1h1.3 1.4 1.3 0.5 1.3 1.4 0.2 1.4l1.3 0.1h0.3 1.4 1.3 1.4 1.3 1.3 1.4l1.3-0.1h1.4 1.3 1.4 1.3 1.3 1.4 1.3 1.4 1.3 1.4 1.3 1.3 1.4 1.3 1.4 1.3 1.4 1.3 1.3 1.4 1.3 1.4 1.3 1.4 0.6v0.5l0.1 1v0.6h0.2 1.3 1.1v-0.2l-0.1-0.6v-0.7-0.6h1.1 1.1 1.1 1 1.1 0.8-1.1-1.1-1.1-1.1 0.4 1.1 1l1.1 0.1h1.1 0.3 1.1 1 1.1 1.1 1.1 1.1 0.5 1 1.1 1.1 1.1 1.1 1.1 1.1 0.3 1.1 1.1 1.1 1.1 1.1 1.1 1.1 1.1 1.1 1.1 1.1 1.1 1.1 1 1.1 1.1 1.1 1.3l1.1-0.1h1 1.1 1.1 1.1 1.1 1.1 1.1 0.6 1.1 1.1 1.1 0.5 1.1 1.1 1.1 0.3 0.7 0.2 0.6 0.9 0.2 0.1 0.9 0.9 1 0.9 1 0.9 1 0.9 0.9 0.9 0.4 0.6 0.2 0.9 0.2 0.3 0.6 0.3 1 0.2 0.9 0.1 0.5 0.5 0.1 0.8 0.1 0.9 0.9 1 0.9 0.1 0.8 0.5 0.5 0.4 1 0.9 0.2 0.9 0.5 0.1 0.2 0.5 0.5 1.2 0.5 1.2 1.2 0.2 1.2 1.1 0.9 1.2 1.2 1.1 0.4 1.1 1.2 1.2 0.7 1.1 1.2 1.2 0.8 1.2 1.1 1.2 0.7 1.2 1.2 1.2 0.3 1.2 1.2 1 0.2q0 0 0 0h0.7 0.1 0.6 0.3 0.2 0.7 0.3 0.7 0.5 0.2 0.6 0.2 0.7 0.7 0.4 0.6 0.7 0.4 0.7 0.7 0.5 0.6 0.7 0.5 0.7 0.7 0.5 0.7 0.1 0.6 0.7 0.6 0.4 0.6 0.7 0.4 0.5 0.1 0.7 0.6 0.4 0.7 0.1 0.6 0.7 0.7 0.5 0.7 0.7 0.6 0.5 0.7 0.7 0.6 0.5 0.5 0.6 0.7 0.6 0.5 0.7 0.6 0.6 0.3 0.3 0.3 0.3 0.4 0.2 0.1 0.3 0.4 0.3 0.4 0.4 0.5 0.4 0.4 0.4 0.4 0.4 0.4 0.4 0.1 0.4 0.4 0.3 0.2 0.3 0.3 0.1 0.4 0.3 0.2 0.3 0.3 0.5 0.4 0.3 0.3 0.3 0.3 0.3 0.3 0.3 0.3 0.3 0.2 0.5 0.3 0.5 0.2 0.5 0.2 0.5 0.3 0.4 0.2 0.5 0.1 0.2 0.5 0.2 0.5 0.2 0.4 0.2 0.5 0.2 0.5 0.2 0.4 0.4 0.3 0.1 0.5 0.2 0.5 0.1 0.5 0.2 0.5 0.5 0.2 0.4 0.1 0.4 0.1 0.5 0.1 0.5 0.1 0.4 0.5 0.1 0.5 0.1 0.4 0.1 0.5 0.5 0.5 0.4 0.1 0.4 0.5zm-343.9 66.2h0.1v-0.1l-1.3-32.5-0.3-8.1q-0.2-4.1-0.4-8.1l-0.9-16.3h-0.9-0.9-0.9 0.9v-0.3l-0.1-0.5v-0.5h-0.6-0.2-0.6-0.9-0.2-0.9-0.9-0.9-0.9-0.9-0.9-0.9-0.9-0.9-0.8-0.4-0.6-0.2-0.9-0.1-0.3-0.6-0.3-0.9-0.2-0.9-0.6-0.4-0.1-0.8-0.1-0.8-0.9-0.9-0.1-0.8-0.1-0.8-0.5-0.4-0.4-0.9-0.1-0.8-0.1-0.1-0.9-0.5-0.2-0.6l0.1 0.3 0.1 0.5v0.5h0.5-0.5-0.9-0.3-0.6l2.6 16q0.6 4 1.3 8l1.4 8 5.4 32v0.1h0.1l2.5 1.6h0.1l0.9 0.6v0.2l0.1 0.1 2.7 1.6h0.1l4.5 1.3 0.1 0.1 0.1-0.1h0.3l1.4 5 0.4 1.4 0.1-1.4 0.3-5.4 3.1-0.5 4.1-1.3h0.1v-0.1-0.3l0.9-0.3h0.1v-0.1-0.6z"/></g></svg>