<svg version="1.2" xmlns="http://www.w3.org/2000/svg" viewBox="0 0 925 500" width="925" height="500"><defs><clipPath clipPathUnits="userSpaceOnUse" id="cp1"><path d="m925 500h-925v-500h925z"/></clipPath><linearGradient id="P" gradientUnits="userSpaceOnUse"/><linearGradient id="g1" x2="1" href="#P" gradientTransform="matrix(0,186.843,-1132.398,0,471.291,316.845)"><stop stop-color="#00cfa9"/><stop offset="1" stop-color="#060738"/></linearGradient><linearGradient id="g2" x2="1" href="#P" gradientTransform="matrix(0,180.617,-3721.076,0,466.257,339.088)"><stop stop-color="#aafecc"/><stop offset=".44" stop-color="#00fecf"/><stop offset="1" stop-color="#008391"/></linearGradient><linearGradient id="g3" x2="1" href="#P" gradientTransform="matrix(0,223.433,-503.72,0,508.131,237.785)"><stop stop-color="#009479"/><stop offset="1"/></linearGradient></defs><style>.a{fill:url(#g1)}.b{fill:url(#g2)}.c{mix-blend-mode:screen;fill:url(#g3)}.d{fill:#00fecf}</style><g clip-path="url(#cp1)"><path class="a" d="m925 351.1h-932.8v153.9h932.8z"/><path fill-rule="evenodd" class="b" d="m879.5 365.7l143.1 20.9h32.7v0.9h-26.3l800.1 117-0.1 1-806.4-118h-88l666.8 117-0.2 1-672-118h-89l533.5 117.1-0.2 0.9-537.7-118h-90l204.6 59.9h104.9v0.9h-101.8l192.4 56.3-0.2 0.8-195.5-57.1h-160.3l128.3 56.3-0.4 0.8-130.2-57.1h-161.3l64.3 56.4-0.6 0.7-65.1-57.1h-161.9v56.7h-1v-56.7h-161.9l-65.1 57.1-0.6-0.7 64.3-56.4h-161.3l-130.2 57.1-0.4-0.8 128.3-56.3h-160.3l-195.5 57.1-0.2-0.8 192.4-56.3h-101.8v-0.9h104.9l204.6-59.9h-90l-537.7 118-0.2-0.9 533.5-117.1h-89l-672 118-0.2-1 666.8-117h-88l-806.4 118-0.1-1 800.1-117h-26.3v-0.9h32.7l143.1-20.9h-62l-1115.3 139.8-0.1-1 1108-138.8h-106.4v-0.9h113.8l112.2-14.1 0.1 0.9-104.9 13.2h61l96.2-14.1 0.1 0.9-89.9 13.2h62l80.2-14.1 0.1 0.9-74.9 13.2h63l64.1-14.1 0.2 0.9-60 13.2h64.1l48.1-14.1 0.3 0.9-45.1 13.2h65.1l32-14.1 0.4 0.9-30.1 13.2h66.1l15.9-14 0.6 0.7-15.1 13.3h66.7v-13.7h1v13.7h66.7l-15.1-13.3 0.6-0.7 15.9 14h66.1l-30.1-13.2 0.4-0.9 32 14.1h65.1l-45.1-13.2 0.3-0.9 48.1 14.1h64.1l-60-13.2 0.2-0.9 64.1 14.1h63l-74.9-13.2 0.1-0.9 80.2 14.1h62l-89.9-13.2 0.1-0.9 96.2 14.1h61l-104.9-13.2 0.1-0.9 112.2 14.1h113.8v0.9h-106.4l1108 138.8-0.1 1-1115.3-139.8zm-277.9 0l47.7 20.9h90.1l-71.6-20.9zm-69.4 0l23.8 20.9h91l-47.7-20.9zm-69.2 0v20.9h91.6l-23.8-20.9zm-68.8 0l-23.8 20.9h91.6v-20.9zm-68.5 0l-47.7 20.9h91l23.8-20.9zm-68.4 0l-71.6 20.9h90l47.7-20.9zm-261.5 20.9l119.3-20.9h-63.1l-143.2 20.9zm93.4 0l95.4-20.9h-64.1l-119.3 20.9zm93.3 0l71.6-20.9h-65.2l-95.4 20.9zm-45.2 60.8l136.4-59.9h-91.1l-204.6 59.9zm162.6 0l68.2-59.9h-92.1l-136.4 59.9zm162.3 0v-59.9h-92.7l-68.2 59.9zm161.9 0l-68.2-59.9h-92.7v59.9zm161.6 0l-136.4-59.9h-92l68.2 59.9zm-43-59.9h-91.1l136.4 59.9h159.2zm89.2-1l-95.5-20.9h-65.1l71.6 20.9zm92.3 0l-119.3-20.9h-64.2l95.5 20.9zm-50.9-20.9h-63.1l119.3 20.9h87z"/><path fill-rule="evenodd" class="c" d="m660.3 350.9l-0.1 0.3-0.1 0.3v0.3l-0.1 0.2-0.1 0.3v0.3l-0.1 0.3v0.3l-0.1 0.3-0.1 0.3v0.3l-0.1 0.3-0.1 0.3v0.2q0 0.1 0 0.1l-0.1 0.2-0.1 0.3v0.3 0.1l-0.1 0.3-0.1 0.3-0.1 0.3v0.3l-0.1 0.3-0.1 0.3v0.2l-0.1 0.3-0.1 0.3-0.1 0.3v0.3l-0.1 0.3-0.1 0.3v0.3l-0.1 0.3-0.1 0.2v0.1 0.3l-0.1 0.3-0.1 0.3v0.3l-0.1 0.3v0.3l-0.1 0.3-0.1 0.3v0.3l-0.1 0.2v0.3l-0.1 0.3v0.3l-0.1 0.3-0.1 0.3v0.1 0.3l-0.1 0.3v0.3l-0.1 0.3v0.3 0.3l-0.1 0.3v0.3l-0.1 0.2v0.3l-0.1 0.3v0.3l-0.1 0.3v0.3 0.2l-0.1 0.2v0.3 0.3l-0.1 0.3v0.3 0.3l-0.1 0.3v0.3l-0.1 0.3v0.3q0 0.1 0 0.1v0.2l-0.1 0.1q0 0.1 0 0.1v0.1 0.3 0.2l-0.1 0.2v0.3 0.3 0.1 0.2l-0.1 0.3v0.3 0.3 0.3l-0.1 0.9v0.3l-0.1 0.2v0.3 0.6 0.3 0.3l-0.1 0.3v0.3 0.3 0.3 0.3 0.3 0.1l-0.1 0.2v0.3 0.3 0.3 0.3 0.3 0.3 0.3 0.3 0.3 0.3 0.2l-0.1 0.3v0.3 0.3 0.2 0.3 0.3 0.3 0.3 0.3 0.3 0.3 0.3 0.3 0.3 0.3 0.3l-0.1 0.3v0.3 0.3 0.3 0.1 0.3 0.3 0.3 0.3 0.3 0.3 0.3 0.3 0.3 0.1 0.2 0.3 0.3l-0.1 0.3v0.3 0.3 0.3 0.5 0.2 0.3 0.3 0.3 0.3 0.3 0.3 0.3l-0.1 0.3v0.1 0.3 0.2 0.3 0.3 0.3 0.3 0.3 0.3 0.3 0.3 0.3l-0.1 0.3v0.3 0.2 0.3 0.3 0.2 0.3 0.3 0.3 0.3 0.3l-0.1 0.3v0.3h-0.1l-0.1 0.1-0.1 0.1h-0.1v0.1l-0.1 0.1h-0.1l-0.1 0.1-0.1 0.1h-0.1l-0.1 0.1v0.1l-0.1 0.3-0.1 0.1-0.1 0.1-0.1 0.1h-0.1l-0.1 0.1-0.1 0.1h-0.1l-0.1 0.1-0.1 0.1-0.1 0.1h-0.1l-0.1 0.1-0.1 0.1h-0.1l-0.1 0.1-0.1 0.1-0.1 0.1h-0.1v0.1h-0.1l-0.1 0.1h-0.1v0.1h-0.1l-0.1 0.1-0.1 0.1h-0.1v0.1h-0.1l-0.1 0.1h-0.1v0.1h-0.1l-0.1 0.1h-0.1v0.1h-0.1v0.1h-0.1-0.1-0.1-0.1l-0.1-0.1h-0.1-0.1l-0.1-0.1h-0.1v0.1h-0.1-0.1v0.1h-0.1v0.1 0.3 0.3 0.2 0.3 0.3 0.3l-0.1 0.3v0.3 0.3 0.3-0.2l-0.1-0.2-0.1-0.3v-0.3l-0.1-0.3-0.1-0.3v-0.3l-0.1-0.3-0.1-0.3v-0.3l-0.1-0.3h-0.1l-0.1-0.1h-0.1-0.1l-0.1-0.1h-0.1-0.1l-0.1-0.1h-0.1-0.1l-0.1-0.1h-0.1-0.1l-0.1-0.1h-0.1-0.1-0.1v-0.1h-0.1-0.1-0.1l-0.2-0.1h-0.1l-0.1-0.1h-0.1v-0.1l-0.1-0.3-0.1-0.1-0.1-0.2h-0.1l-0.1-0.1h-0.1-0.1l-0.1-0.1h-0.1-0.1-0.1v-0.1h-0.1-0.1-0.1l-0.1-0.1h-0.1-0.1l-0.1-0.1h-0.1v-0.1l-0.1-0.3-0.1-0.3-0.1-0.1h-0.1v-0.1h-0.1-0.1-0.1l-0.1-0.1h-0.1-0.1l-0.1-0.1h-0.1l-0.1-0.3v-0.3l-0.1-0.3h-0.1-0.1l-0.1-0.1v-0.1l-0.1-0.3-0.1-0.3v-0.3l-0.1-0.3-0.1-0.3-0.1-0.3v-0.3l-0.1-0.2-0.1-0.3v-0.3l-0.1-0.3-0.1-0.3v-0.3l-0.1-0.3-0.1-0.3-0.1-0.3-0.1-0.3v-0.3l-0.1-0.3-0.1-0.3-0.1-0.3v-0.3l-0.1-0.3v-0.1l-0.1-0.3-0.1-0.3-0.1-0.3-0.1-0.3v-0.3l-0.1-0.3-0.1-0.3-0.1-0.3v-0.3l-0.1-0.3-0.1-0.3-0.1-0.2-0.1-0.3-0.1-0.3v-0.3l-0.1-0.3-0.1-0.3v-0.1l-0.1-0.3-0.1-0.3-0.1-0.3-0.1-0.3v-0.3l-0.1-0.3-0.1-0.3-0.1-0.3-0.1-0.3v-0.2l-0.1-0.3-0.1-0.3-0.1-0.3-0.1-0.3-0.1-0.3-0.1-0.3v-0.3l-0.1-0.3-0.1-0.3-0.1-0.1v-0.3l-0.1-0.3-0.1-0.3-0.1-0.3-0.1-0.3-0.1-0.3-0.1-0.3-0.1-0.3-0.1-0.2-0.1-0.3-0.1-0.3-0.1-0.3-0.1-0.3v-0.3l-0.1-0.3-0.1-0.3-0.1-0.3-0.1-0.3-0.1-0.3-0.1-0.2-0.1-0.2-0.1-0.3-0.1-0.3-0.2-0.3-0.1-0.3v-0.1l-0.1-0.2-0.1-0.3-0.1-0.3-0.2-0.3-0.1-0.3v-0.1l-0.1-0.1-0.1-0.2-0.1-0.3-0.2-0.3-0.1-0.3-0.1-0.3-0.1-0.1-0.1-0.2v-0.1l-0.1-0.2-0.1-0.3-0.2-0.2-0.1-0.3-0.1-0.3-0.2-0.3-0.1-0.2-0.1-0.3-0.2-0.2-0.1-0.3-0.2-0.3-0.2-0.3-0.1-0.3-0.2-0.3-0.1-0.3-0.2-0.2-0.2-0.3-0.1-0.3-0.2-0.3-0.1-0.3-0.2-0.2-0.2-0.3-0.4-0.6-0.2-0.2-0.1-0.3-0.2-0.3-0.2-0.3-0.2-0.3-0.2-0.2-0.2-0.3-0.2-0.3-0.2-0.3-0.2-0.3-0.2-0.2-0.2-0.3-0.3-0.2-0.2-0.3-0.3-0.3-0.2-0.2-0.3-0.3-0.2-0.3-0.3-0.2-0.2-0.3-0.3-0.3-0.2-0.2-0.3-0.3-0.2-0.3h-0.1l-0.1 0.8c-0.1 0.7-0.2 1.4-0.5 2.1l-0.5 2q-0.6 2.1-1.2 4.2l-0.3 1q-0.2 0.6-0.4 1.1l-0.8 2.1-3 8.2 0.8 5.7q0 0 0 0.1l0.1 0.7 0.2 1.5 0.3 3.1q0.1 0.7 0 1.5l0.1 1.5v3l-0.2 3.1-0.1 1.5c-0.1 0.5-0.1 1-0.2 1.5q-0.2 1.5-0.5 3l-0.6 3.1-0.1 0.1-0.3 1.5h-0.1v0.1l-2.7 1-0.1 0.4v0.1h-0.1l-1 0.5-0.4 1.7-3.8 2.2-0.1 0.1h-0.1l-8.8-1h-0.1v-0.1l-0.2-2.1-1-0.2h-0.1v-0.1l-0.1-1-2.6-0.4h-0.1v-0.1l-0.2-1.8-0.1-0.1-0.2-3.4c-0.1-1.1-0.1-2.2-0.1-3.3v-1.7q-0.1-0.5 0-0.9v-0.8l0.2-3.4v-0.9l0.1-0.8 0.2-1.7 0.4-3.4q0.7-3.4 1.3-6.8l-1.3-4.5-1.1-4.5c-0.4-1.5-0.8-2.9-1.1-4.5l-0.6-3.7-0.1 0.1-0.2 0.7-0.2 0.7-0.2 0.7-0.2 0.7-0.2 0.7-0.2 0.7-0.2 0.7-0.2 0.7-0.2 0.7-0.2 0.7-0.2 0.7-0.2 0.7-0.2 0.8-0.3 0.7-0.2 0.7-0.2 0.7-0.2 0.7-0.2 0.7-0.2 0.7-0.2 0.7-0.2 0.7-0.2 0.7-0.2 0.7-0.2 0.7-0.2 0.7-0.2 0.8-0.3 0.7-0.2 0.7-0.2 0.7-0.2 0.7-0.2 0.7-0.2 0.7-0.2 0.7-0.2 0.7-0.2 0.7-0.2 0.7-0.3 0.9-0.1 0.3-0.5 0.3-0.8 0.3h-0.1l-0.1 0.7-0.1 0.8-0.2 0.7-0.1 0.7-0.1 0.7-0.2 0.7-0.1 0.7-0.1 0.7-0.2 0.7-0.1 0.7-0.1 0.8-0.1 0.7-0.2 0.7-0.1 0.7-0.1 0.7-0.2 0.7-0.1 0.7-0.1 0.7-0.2 0.7-0.1 0.8-0.1 0.7-0.1 0.7-0.2 0.7-0.1 0.7-0.1 0.7-0.2 0.7-0.1 0.7-0.1 0.8-0.1 0.7-0.2 0.7-0.1 0.7-0.1 0.7-0.1 0.4-0.1 0.4-0.4 0.3-0.6 0.3-0.5 0.2-0.1 0.7-0.1 0.7-0.1 0.7-0.1 0.7-0.1 0.7-0.1 0.7v0.7l-0.1 0.8-0.1 0.7-0.1 0.7-0.1 0.7-0.1 0.7-0.1 0.7-0.1 0.7-0.1 0.7-0.1 0.8-0.1 0.7-0.1 0.7-0.1 0.7-0.1 0.7-0.1 0.7v0.7l-0.1 0.7-0.1 0.8-0.1 0.7-0.1 0.7-0.1 0.7-0.1 0.7-0.1 0.7-0.1 0.7-0.1 0.7-0.1 0.8-0.1 0.7-0.1 0.7-0.1 0.7-0.1 0.7-0.1 0.7-0.1 0.7-0.1 0.7v0.7l-0.1 0.8-0.1 0.7-0.1 0.7-0.1 0.4 0.6 0.2 0.6 0.4 0.4 0.4 0.2 0.4v0.2l0.2 0.1 0.9 0.5 0.5 0.5 0.2 0.6v0.7l-0.1 0.7v0.7 0.8l-0.1 0.3-0.1 0.6-0.4 0.7-0.8 0.5-0.9 0.5h-0.2l-0.6 0.2v0.5l-0.4 0.4-0.5 0.4-0.7 0.3-1 0.3-1 0.3h-0.4l-0.4 0.7-0.3 0.5-0.1 0.7-0.1 0.7-0.1 0.7-0.2 0.7-0.1 0.7-0.1 0.8-0.2 0.7-0.1 0.7-0.1 0.7-0.2 0.7-0.1 0.7-0.1 0.7-0.2 0.7-0.1 0.7-0.1 0.8-0.2 0.7-0.1 0.7-0.1 0.7-0.2 0.7-0.1 0.7-0.1 0.7-0.2 0.7-0.1 0.7-0.1 0.8-0.2 0.7-0.1 0.7-0.1 0.7-0.1 0.3v-0.8-0.7-0.7-0.7-0.7-0.7l0.1-0.7v-0.7-0.7-0.8-0.7-0.7-0.7-0.7-0.7-0.7-0.7-0.7-0.8-0.7-0.7-0.7-0.7-0.7l0.1-0.7v-0.7-0.7-0.3l-0.3-0.7-0.2-0.5-0.9-0.1-1-0.3-0.7-0.3-0.6-0.4-0.3-0.4-0.1-0.5v-0.1l-1-0.4-0.1-0.1-0.8-0.5v-0.1l-0.5-0.6-0.1-0.6 0.1-0.7 0.1-0.7v-0.7l0.1-0.7 0.1-0.4 0.2-0.6 0.5-0.5 0.8-0.6 0.7-0.3 0.2-0.4 0.4-0.4 0.6-0.4 0.8-0.4h0.1v-0.7l0.1-0.7v-0.7l0.1-0.8v-0.7l0.1-0.7v-0.7-0.7l0.1-0.7v-0.7l0.1-0.7v-0.8l0.1-0.7v-0.7l0.1-0.7v-0.7-0.7l0.1-0.7v-0.7l0.1-0.7v-0.8l0.1-0.7v-0.7l0.1-0.7v-0.3q0 0 0 0v-0.2q0 0 0-0.1v-0.1-0.7l0.1-0.7v-0.7l0.1-0.8v-0.7l0.1-0.7v-0.7l0.1-0.7v-0.7-0.7l0.1-0.7v-0.8l0.1-0.7v-0.7-0.3q0 0 0 0l0.1-0.2q0-0.1 0-0.1v-0.1-0.7l0.1-0.7v-0.7-0.4l-0.2-0.1-0.6-0.2-0.4-0.4-0.1-0.3v-0.7-0.7-0.7-0.7-0.7-0.8-0.7-0.7-0.7-0.7-0.7-0.7l0.1-0.7v-0.7-0.8-0.7-0.7-0.7-0.7-0.7-0.7-0.7-0.7-0.8l0.1-0.7v-0.7-0.7-0.7-0.7-0.7-0.7-0.1q0-0.1 0-0.1v-0.5-0.7l-0.6-0.1-0.6-0.3-0.1-0.3-0.1-0.7-0.1-0.8v-0.7l-0.1-0.7-0.1-0.7v-0.7l-0.1-0.7-0.1-0.7-0.1-0.7v-0.7l-0.1-0.7-0.1-0.7v-0.7l-0.1-0.7-0.1-0.7-0.1-0.8v-0.7l-0.1-0.7-0.1-0.7v-0.7l-0.1-0.7-0.1-0.7-0.1-0.7v-0.7l-0.1-0.7-0.1-0.7v-0.7l-0.1-0.7-0.1-0.7-0.1-0.7v-0.8l-0.1-0.7-0.1-0.7v-0.7l-0.1-0.7-0.1-0.7-0.1-0.7v-0.5q0 0 0-0.1v-0.1l-0.1-0.7-0.1-0.7v-0.7l-0.1-0.7-0.1-0.7-0.1-0.7v-0.8l-0.1-0.7-0.1-0.7v-0.3l-0.8 8.2q-0.4 4.7-1 9.4l-1 9.4-4.2 37.6-2.6 1.9v0.1h-0.1l-0.9 0.6v0.3l-0.1 0.1-2.7 1.8-0.1 0.1-4.6 1.5-0.1 0.1h-0.1l-0.4-0.1-1.2 5.8-0.3 1.8-0.2-1.8-0.6-6.2-3.2-0.6h-0.1l-4.3-1.6h-0.2v-0.1-0.4l-0.9-0.3-0.1-0.1v-0.7l-2.4-0.9-0.2-0.1v-0.1l-0.2-38.1-0.1-9.6q0-4.7 0-9.5v-1.5l-0.1 0.8-0.1 0.7-0.1 0.5-0.1 0.3-0.1 0.5v0.4l-0.1 0.5-0.1 0.4v0.4l-0.2 0.7v0.2 0.3l-0.2 0.9v0.2 0.1l-0.5 2.7-0.1 0.5v0.4l-0.1 0.5-0.1 0.4v0.3l-0.2 0.8v0.2 0.2l-0.2 1v0.2 0.1l-0.7 4.2-2.6 0.3-0.1 0.4-0.1 0.6-0.1 0.7-0.1 0.7-0.1 0.6-0.1 0.7-0.1 0.6v0.1l-0.1 0.6-0.1 0.6v0.2l-0.1 0.5-0.1 0.6-0.1 0.3v0.5l-0.1 0.4-0.1 0.5v0.4l-0.1 0.4-0.1 0.6v0.3l-0.1 0.3-0.1 0.8v0.3l-0.1 0.6-0.2 0.7-0.1 0.6-0.1 0.7-0.1 0.7-0.1 0.6-0.1 0.7-0.1 0.7-0.1 0.6-0.1 0.6v0.1l-0.1 0.6-0.1 0.6v0.2l-0.1 0.6-0.1 0.5v0.3l-0.1 0.5-0.1 0.5v0.4l-0.1 0.4-0.1 0.4-0.1 0.6v0.4l-0.1 0.3-0.1 0.7v0.3 0.2l-0.2 0.9v0.2 0.2l-0.2 1v0.1 0.1l-0.2 1.2v0.1l-0.2 1.3-1 0.3-1 0.3-1 0.3h-0.3l-1 0.3-0.8 0.3v0.6l-0.1 0.7-0.1 0.7-0.1 0.6-0.1 0.7-0.1 0.7v0.1l1.1-0.2 1-0.3 1.1-0.2h0.1l-0.1 0.7-0.1 0.6-0.1 0.7-0.1 0.7-0.1 0.6-0.1 0.7-0.1 0.6v0.5l-0.1 0.3-0.1 0.6-0.1 0.6-0.1 0.7-0.1 0.7v0.2l-0.1 0.5-0.1 0.6-0.1 0.6-0.1 0.7v0.6l-0.3 1.8-0.1 0.3-0.1 0.6v0.4l-0.3 2.1v0.2l-0.1 0.6-0.1 0.2-0.1 1.2-3 0.7v0.7l-0.1 0.7-0.1 0.6-0.1 0.3-0.2 1.5v0.2 0.2l-0.4 2.9v0.2l-0.1 0.2-0.3 2.8-0.1 0.4v0.2l-0.1 1v0.1h-0.1l-0.2 1.6v0.4 0.3l-0.2 0.9v0.1l-0.1 0.7v0.5l-0.1 0.3v0.5l-0.1 0.3-0.1 0.8v0.2l-0.1 0.7-0.1 0.6-0.1 0.9-1 0.3-1 0.3-0.5 0.1-0.8 0.3-0.7 0.2-0.6 0.2-0.1 0.7-0.1 0.6v0.7l-0.1 0.6-0.1 0.7v0.7l-0.1 0.6-0.1 0.7v0.7l-0.1 0.6-0.1 0.7v0.7l-0.1 0.3-1 0.3-0.9 0.3-1 0.3-1 0.3-0.5 0.2-1 0.3-0.3 0.1-0.1 0.7-0.1 0.6-0.1 0.7-0.1 0.7-0.1 0.6-0.1 0.7-0.1 0.7-0.1 0.6-0.2 0.7-0.1 0.6-0.1 0.7-0.1 0.7-0.1 0.6-0.1 0.7-0.1 0.7-0.1 0.6-0.2 0.7-0.1 0.6-0.1 0.7-0.1 0.7-0.1 0.5v-0.7-0.6l-0.1-0.7v-0.7l-0.1-0.6v-0.7-0.6l-0.1-0.7v-0.7-0.6l-0.1-0.7v-0.7-0.6l-0.1-0.7v-0.6-0.7l-0.1-0.7v-0.6-0.7-0.2l-0.3 0.1-0.8-0.5-0.7-0.5-0.3-0.2-0.7-0.4-0.8-0.5-0.2-0.2-0.8-0.5-0.7-0.4-0.2-0.2v-0.6-0.7-0.7-0.6l0.1-0.7v-0.6-0.4l-0.6 0.2-1-0.1h-1.1-0.7v-0.6h-0.9v-0.7-0.7-0.6-0.7-0.7l-0.1-0.6v-0.7-0.7-0.6-0.7-0.6-0.7-0.7-0.6-0.7l-0.1-0.7v-0.6-0.7-0.7-0.6-0.7-0.6-0.7-0.7-0.6-0.7l-0.1-0.7v-0.6-0.8l-1.1 0.2h-0.4v-0.3l-1.1 0.1-0.1-0.7v-0.6-0.7-0.7-0.6l-0.1-0.7v-0.6-0.7-0.7-0.6l-0.1-0.7v-0.7-0.6-0.7-0.7l-0.1-0.6v-0.7-0.6-0.7-0.7l-0.1-0.6v-0.7-0.7-0.6-0.7l-0.1-0.8 1.1-0.3h0.2v-0.1l1-0.3 0.8-0.1-0.1-0.7v-0.7-0.6-0.7-0.7-0.4l-1.1 0.2-1 0.1-1.1 0.2-1.1 0.1-0.7 0.2 1-0.3 1-0.3 0.9-0.3-0.9 0.3-1 0.3-1 0.3-0.1-0.7v-0.7-0.6-0.7l-0.1-0.7v-0.6-0.7-0.6l-0.1-0.7v-0.7-0.6-0.7l-0.1-0.7v-0.6-0.7l-0.1-0.6v-0.7-0.7-0.6l-0.1-0.7v-0.7-0.6-0.7l-0.1-0.7v-0.6-0.7-0.6l-0.1-0.7v-0.7-0.6-0.7l-0.1-0.7v-0.6-0.7-0.6l-0.1-0.7v-0.7-0.6l-0.1-0.7v-0.7-0.6-0.7l-0.1-0.6v-0.7-0.7-0.6l-0.1-0.7v-0.7-0.6-0.7l-0.1-0.7v-0.6-0.7-0.6l-0.1-0.7v-0.7-0.6-0.9l-0.9-0.2v-0.6l-0.1-0.6-1-0.2-0.6-0.2v-0.6l-0.1-0.7v-0.7-0.6l-0.1-0.7v-0.6-0.7l-0.1-0.7v-0.6-0.7l-0.1-0.7v-0.6-0.7l-0.1-0.6v-0.7-0.7l-0.1-0.6v-0.7-0.7l-0.1-0.6v-0.7-0.6l-0.1-0.7v-0.7-0.6l-0.1-0.7v-0.7-0.6-0.7l-0.1-0.4-0.4 19.5-1 34.7-2 69.4-0.6 2.5v0.1h-0.1l-4.1 0.9-0.1 0.3-1.8 1.1-0.3 6.1-1 0.7-1 0.6-2.4-0.7v0.7l0.1 0.8v0.8 0.8 0.8l-0.2 0.1v0.8 0.8 0.8l0.1 0.8v0.8 0.8 0.8 0.9 0.8 0.8l0.1 0.8v0.8 0.8 0.8l-0.1-0.8-0.1-0.8-0.1-0.8-0.1-0.8-0.1-0.8-0.1-0.8-0.1-0.9-0.1-0.8-0.1-0.8v-0.8l-0.1-0.8-0.1-0.8-0.1-0.8-0.1-0.9h-0.2l-0.1-0.6-0.1-0.8-0.1-0.8-0.1-0.8-0.1-0.8-0.1-0.7-11-3.3-1.6-6.9-1.9-0.6-0.7-2.5-4.6-1.3-0.1-0.1-11.2-67.7-5.5-33.9-4.6-28.7c-0.1 2.3-0.3 4.7-0.4 7l-0.4 7v0.8l-0.1 0.9-0.3 1.7-0.5 3.5-1.2 6.9c-0.5 2.3-1.1 4.6-1.6 6.9l-1.7 6.8-2.1 6.8c0.8 3.5 1.4 6.9 2.1 10.3l0.6 5.2 0.3 2.6 0.1 1.3 0.1 1.3 0.2 5.2 0.1 1.3q0 0.6 0 1.3v2.6c-0.1 1.7-0.1 3.4-0.2 5.1l-0.4 5.2v0.1l-0.4 2.8v0.1h-0.2l-3.9 0.6-0.1 1.6v0.1h-0.2l-1.5 0.2-0.3 3.3v0.1h-0.2l-13.4 1.5h-0.1-0.1l-5.8-3.4h-0.1v-0.1l-0.5-2.5-1.7-0.8h-0.1v-0.1l-0.1-0.7-4.1-1.5-0.1-0.1v-0.1l-0.6-2.3h-0.1v-0.1l-1-4.6c-0.2-1.6-0.4-3.1-0.7-4.7-0.1-0.7-0.2-1.5-0.3-2.3l-0.1-2.3-0.4-4.6 0.1-4.7v-2.3c0.1-0.7 0.1-1.5 0.2-2.3l0.4-4.6 0.3-2.3 0.1-1.1q0-0.1 0-0.1l1.3-8.7-4.6-12.6-1.2-3.2c-0.2-0.5-0.4-1-0.6-1.6l-0.5-1.5q-0.8-2.9-1.6-5.9l-0.3 0.4-0.3 0.5-0.3 0.4-0.3 0.5-0.1 0.2-0.2 0.2-0.3 0.5-0.3 0.4-0.3 0.4-0.3 0.5-0.3 0.3-0.1 0.4-0.1 0.1-0.3 0.4-0.2 0.5-0.3 0.4-0.1 0.2-0.1 0.3-0.3 0.4-0.2 0.5-0.3 0.4-0.2 0.5-0.3 0.4-0.2 0.5-0.3 0.4-0.2 0.5-0.1 0.2-0.2 0.2-0.1 0.3-0.2 0.4-0.2 0.5-0.2 0.4-0.1 0.2-0.1 0.3-0.1 0.2-0.1 0.2-0.2 0.5-0.3 0.5-0.2 0.4-0.2 0.5-0.2 0.4-0.2 0.5-0.1 0.2-0.2 0.5-0.2 0.4-0.2 0.5-0.2 0.5-0.1 0.3-0.1 0.1-0.1 0.5-0.2 0.4-0.2 0.5-0.1 0.2-0.1 0.3-0.1 0.2-0.1 0.2-0.1 0.3-0.1 0.4-0.2 0.5-0.1 0.5-0.2 0.4-0.1 0.5-0.2 0.4-0.1 0.5-0.2 0.5-0.1 0.4-0.2 0.5-0.1 0.5-0.2 0.4-0.1 0.5-0.2 0.4-0.1 0.5-0.1 0.5-0.2 0.4-0.1 0.5-0.2 0.5v0.1l-0.2 0.5-0.1 0.5-0.1 0.4-0.2 0.5-0.1 0.4-0.1 0.5-0.2 0.5-0.1 0.4-0.1 0.5-0.2 0.4-0.1 0.4-0.1 0.5-0.1 0.5-0.2 0.4-0.1 0.5-0.1 0.5-0.2 0.4-0.1 0.5-0.1 0.5-0.1 0.1-0.1 0.5-0.1 0.5-0.2 0.4-0.1 0.5-0.1 0.4-0.1 0.5-0.2 0.5-0.1 0.4-0.1 0.5-0.1 0.4-0.2 0.5-0.1 0.4-0.1 0.5-0.1 0.5-0.1 0.4-0.2 0.5-0.1 0.5v0.2l-0.2 0.5-0.1 0.4-0.1 0.5-0.1 0.5-0.1 0.4-0.2 0.5-0.1 0.5-0.1 0.4v0.1l-0.1 0.4-0.1 0.5-0.2 0.5-0.1 0.4-0.1 0.5-0.1 0.5-0.1 0.4-0.1 0.4-0.1 0.5-0.1 0.4-0.1 0.5-0.2 0.5-0.1 0.4-0.1 0.5-0.1 0.5v0.2h-0.2l-0.1 0.1h-0.2l-0.1 0.5-0.1 0.4-0.1 0.5h-0.2l-0.1 0.1h-0.2l-0.2 0.1h-0.1l-0.2 0.1h-0.1l-0.2 0.1v0.1h-0.1l-0.1 0.1h-0.1l-0.2 0.5-0.1 0.4-0.1 0.2-0.1 0.1h-0.1-0.1l-0.2 0.1h-0.1l-0.1 0.1h-0.1-0.2l-0.1 0.1h-0.1l-0.1 0.1h-0.2-0.1l-0.1 0.1h-0.1l-0.2 0.1h-0.1-0.1l-0.1 0.1h-0.1l-0.1 0.3h-0.1v0.1h-0.1-0.1l-0.1 0.5v0.2h-0.1l-0.1 0.1h-0.1l-0.2 0.1h-0.2l-0.2 0.1h-0.1-0.1l-0.1 0.1h-0.1-0.1l-0.1 0.1h-0.1-0.1l-0.2 0.1h-0.1-0.1v0.1h-0.1-0.1l-0.1 0.1h-0.1-0.1l-0.1 0.1h-0.1-0.1-0.1l-0.1 0.1h-0.2l-0.1 0.1h-0.2l-0.2 0.1h-0.1l-0.1 0.5-0.1 0.5-0.1 0.4-0.1 0.5-0.1 0.5-0.1 0.4-0.2 0.5-0.1 0.4-0.1 0.5-0.1 0.5v0.2-0.4l-0.1-0.5v-0.5-0.4-0.5l-0.1-0.4v-0.5-0.5-0.4-0.5-0.1h-0.1l-0.1-0.1h-0.1v-0.1h-0.1v-0.1h-0.1l-0.1 0.1h-0.1-0.1-0.1l-0.2 0.1h-0.1l-0.1 0.1h-0.2l-0.1 0.1-0.1-0.1h-0.1l-0.1-0.1-0.1-0.1-0.1-0.1-0.1-0.1h-0.1l-0.1-0.1h-0.1v-0.1h-0.1l-0.1-0.1h-0.1v-0.1l-0.1-0.1h-0.1l-0.1-0.1-0.1-0.1h-0.1l-0.1-0.1h-0.1v-0.1h-0.1l-0.1-0.1-0.1-0.1-0.1-0.1h-0.1l-0.1-0.1-0.1-0.1-0.1-0.1-0.2-0.1-0.1-0.1h-0.1l-0.1-0.1-0.1-0.1-0.2-0.1-0.1-0.1-0.1-0.1-0.1-0.1-0.2-0.1h-0.1l-0.1-0.1-0.1-0.1-0.1-0.1-0.2-0.1-0.1-0.1-0.1-0.1h-0.1l-0.2-0.1-0.1-0.1-0.1-0.1-0.1-0.5v-0.2l-0.1-0.1-0.2-0.1-0.2-0.1-0.1-0.1-0.1-0.1-0.2-0.1-0.2-0.1-0.1-0.1-0.2-0.1-0.1-0.2-0.2-0.1v-0.4-0.5-0.4-0.5-0.5-0.4l-0.1-0.5v-0.2-0.5-0.5-0.4-0.5-0.5l-0.1-0.4v-0.5-0.4-0.5-0.4-0.5-0.4l-0.1-0.5v-0.2-0.3-0.4-0.5-0.1-0.5-0.4-0.5-0.5l-0.1-0.4v-0.5-0.4-0.5-0.3-0.5-0.4-0.5-0.5-0.4l-0.1-0.5v-0.4-0.5-0.2-0.3-0.5-0.4-0.5-0.4-0.5-0.5l-0.1-0.4v-0.5-0.5-0.2-0.5-0.4-0.5-0.4-0.5-0.5-0.4l-0.1-0.5v-0.2-0.3-0.4-0.5-0.5-0.4-0.5-0.5-0.4-0.5-0.4l-0.1-0.5v-0.5-0.2-0.5-0.5-0.4-0.5-0.5l-0.1-0.4v-0.5-0.4-0.5-0.5-0.4-0.1l-0.1-0.5v-0.5-0.4-0.5l-0.1-0.4v-0.5-0.5-0.4l-0.1-0.7v-0.3-0.4-0.4l-0.1-0.5-0.1-1.4-0.1-0.4v-0.5-0.5l-0.1-0.4v-0.3-0.2l-0.1-0.5v-0.4l-0.1-0.5v-0.3-0.4-0.1c-0.1-0.1-0.1-0.1-0.1-0.2v-0.2-0.2q0-0.1 0-0.1 0-0.1 0-0.1v-0.1l-0.1-0.4-0.1-0.5v-0.4l-0.1-0.5v-0.5l-0.1-0.4-0.1-0.5v-0.4l-0.1-0.5v-0.5l-0.1-0.2v-0.4l-0.1-0.5-0.1-0.5v-0.4l-0.1-0.5-0.1-0.4-0.1-0.5v-0.5l-0.1-0.4-0.1-0.5v-0.4l-0.1-0.5-0.1-0.5-0.1-0.4v-0.2l-0.1-0.5-0.1-0.4-0.1-0.5v-0.4l-0.1-0.5-0.1-0.4-0.1-0.5-0.1-0.4-0.1-0.5-0.1-0.5-0.1-0.4-0.1-0.5-0.1-0.4-0.1-0.5v-0.4l-0.1-0.2-0.1-0.4-0.1-0.5-0.1-0.4-0.1-0.5-0.1-0.5-0.1-0.4-0.1-0.5-0.2-0.4-0.1-0.5-0.1-0.4-0.1-0.5-0.1-0.4-0.1-0.5-0.1-0.4-0.1-0.5-0.1-0.4-0.1-0.2-0.1-0.5v-0.1q0-0.1 0-0.1l-0.1-0.2-0.1-0.5-0.1-0.4-0.1-0.5-0.1-0.5-0.1-0.4-0.1-0.5-0.1-0.4-0.1-0.5-0.1-0.4-0.1-0.5-0.1-0.4-0.1-0.5-0.1-0.4-0.1-0.5-0.1-0.5-0.1-0.2h0.8 0.7 0.2 0.6 0.8 0.8 0.8 0.8 0.8 0.1 0.1 0.7 0.8 0.1 0.7 0.2 0.7 0.2 0.1 0.6 0.2 0.6 0.3 0.8 0.7 0.4 0.8 0.2 0.7 0.3 0.7 0.3 0.5 0.5 0.7 0.3 0.8 0.3 0.7 0.3 0.8 0.3 0.8 0.3 0.7 0.4 0.1 0.8 0.3 0.7 0.3 0.8 0.4 0.8 0.3 0.8 0.4 0.8 0.4 0.5 0.4 0.5 0.5 0.4 0.5 0.5 0.4 0.5 0.6 0.8 0.4 0.5 0.4 0.5 0.6 0.6 0.5 0.3 0.5 0.6 0.7 0.1 0.5 0.6 0.7 0.6 0.7 0.6 0.7 0.7 0.6 0.7 0.5 0.5 0.6 0.2 0.3 0.5 0.5 0.5 0.5 0.5 0.5 0.6 0.5 0.5 0.5 0.5 0.5 0.5 0.5 0.5 0.4 0.5 0.5 0.5 0.2 0.7 0.1 0.1 0.4 0.4 0.5 0.5 0.5 0.5 0.4 0.5 0.5 0.4 0.5 0.4 0.5 0.4 0.1 0.4 0.3 0.5 0.1 0.5 0.1 0.8 0.4 0.5 0.4 0.4 0.5 0.4 0.1 0.4 0.4 0.1 0.7 0.5 0.4 0.4 0.4 0.5 0.2 0.7 0.7l-0.2 0.1h0.6 1 1.1 0.7 1 1 0.7 1 1.1 0.6 1 1 0.3 1 0.3 0.8 1 0.5 1 0.4 0.4 0.9 0.2 1q0 1 0.1 1.9h0.4l1.3 0.1h0.3l-0.1-1-0.1-1h1.3 1.4 1.3 0.5 1.3 1.4 0.2 1.4l1.3 0.1h0.3 1.4 1.3 1.4 1.3 1.3 1.4l1.3-0.1h1.4 1.3 1.4 1.3 1.3 1.4 1.3 1.4 1.3 1.4 1.3 1.3 1.4 1.3 1.4 1.3 1.4 1.3 1.3 1.4 1.3 1.4 1.3 1.4 0.6v0.5l0.1 1v0.6h0.2 1.3 1.1v-0.2l-0.1-0.6v-0.7-0.6h1.1 1.1 1.1 1 1.1 0.8-1.1-1.1-1.1-1.1 0.4 1.1 1l1.1 0.1h1.1 0.3 1.1 1 1.1 1.1 1.1 1.1 0.5 1 1.1 1.1 1.1 1.1 1.1 1.1 0.3 1.1 1.1 1.1 1.1 1.1 1.1 1.1 1.1 1.1 1.1 1.1 1.1 1.1 1 1.1 1.1 1.1 1.3l1.1-0.1h1 1.1 1.1 1.1 1.1 1.1 1.1 0.6 1.1 1.1 1.1 0.5 1.1 1.1 1.1 0.3 0.7 0.2 0.6 0.9 0.2 0.1 0.9 0.9 1 0.9 1 0.9 1 0.9 0.9 0.9 0.4 0.6 0.2 0.9 0.2 0.3 0.6 0.3 1 0.2 0.9 0.1 0.5 0.5 0.1 0.8 0.1 0.9 0.9 1 0.9 0.1 0.8 0.5 0.5 0.4 1 0.9 0.2 0.9 0.5 0.1 0.2 0.5 0.5 1.2 0.5 1.2 1.2 0.2 1.2 1.1 0.9 1.2 1.2 1.1 0.4 1.1 1.2 1.2 0.7 1.1 1.2 1.2 0.8 1.2 1.1 1.2 0.7 1.2 1.2 1.2 0.3 1.2 1.2 1 0.2q0 0 0 0h0.7 0.1 0.6 0.3 0.2 0.7 0.3 0.7 0.5 0.2 0.6 0.2 0.7 0.7 0.4 0.6 0.7 0.4 0.7 0.7 0.5 0.6 0.7 0.5 0.7 0.7 0.5 0.7 0.1 0.6 0.7 0.6 0.4 0.6 0.7 0.4 0.5 0.1 0.7 0.6 0.4 0.7 0.1 0.6 0.7 0.7 0.5 0.7 0.7 0.6 0.5 0.7 0.7 0.6 0.5 0.5 0.6 0.7 0.6 0.5 0.7 0.6 0.6 0.3 0.3 0.3 0.3 0.4 0.2 0.1 0.3 0.4 0.3 0.4 0.4 0.5 0.4 0.4 0.4 0.4 0.4 0.4 0.4 0.1 0.4 0.4 0.3 0.2 0.3 0.3 0.1 0.4 0.3 0.2 0.3 0.3 0.5 0.4 0.3 0.3 0.3 0.3 0.3 0.3 0.3 0.3 0.3 0.2 0.5 0.3 0.5 0.2 0.5 0.2 0.5 0.3 0.4 0.2 0.5 0.1 0.2 0.5 0.2 0.5 0.2 0.4 0.2 0.5 0.2 0.5 0.2 0.4 0.4 0.3 0.1 0.5 0.2 0.5 0.1 0.5 0.2 0.5 0.5 0.2 0.4 0.1 0.4 0.1 0.5 0.1 0.5 0.1 0.4 0.5 0.1 0.5 0.1 0.4 0.1 0.5 0.5 0.5 0.4 0.1 0.4 0.5zm-343.9 66.2h0.1v-0.1l-1.3-32.5-0.3-8.1q-0.2-4.1-0.4-8.1l-0.9-16.3h-0.9-0.9-0.9 0.9v-0.3l-0.1-0.5v-0.5h-0.6-0.2-0.6-0.9-0.2-0.9-0.9-0.9-0.9-0.9-0.9-0.9-0.9-0.9-0.8-0.4-0.6-0.2-0.9-0.1-0.3-0.6-0.3-0.9-0.2-0.9-0.6-0.4-0.1-0.8-0.1-0.8-0.9-0.9-0.1-0.8-0.1-0.8-0.5-0.4-0.4-0.9-0.1-0.8-0.1-0.1-0.9-0.5-0.2-0.6l0.1 0.3 0.1 0.5v0.5h0.5-0.5-0.9-0.3-0.6l2.6 16q0.6 4 1.3 8l1.4 8 5.4 32v0.1h0.1l2.5 1.6h0.1l0.9 0.6v0.2l0.1 0.1 2.7 1.6h0.1l4.5 1.3 0.1 0.1 0.1-0.1h0.3l1.4 5 0.4 1.4 0.1-1.4 0.3-5.4 3.1-0.5 4.1-1.3h0.1v-0.1-0.3l0.9-0.3h0.1v-0.1-0.6z"/><path class="d" d="m-103.6 351.1l144.7-0.4 144.7-0.3 289.4-0.2 289.4 0.2 144.7 0.3 144.7 0.4-144.7 0.5-144.7 0.3-289.4 0.2-289.4-0.2-144.7-0.3z"/></g></svg>