<svg width="102" height="58" viewBox="0 0 102 58" fill="none" xmlns="http://www.w3.org/2000/svg">
<path d="M23.1488 3.81892L3.92234 23.7997C1.12811 26.7035 1.1281 31.2965 3.92234 34.2003L23.1488 54.1811C24.5627 55.6505 26.514 56.4808 28.5532 56.4808L73.4468 56.4808C75.486 56.4808 77.4373 55.6505 78.8512 54.1811L98.0777 34.2003C100.872 31.2965 100.872 26.7035 98.0777 23.7997L78.8512 3.81892C77.4373 2.34955 75.486 1.51924 73.4468 1.51924L28.5532 1.51924C26.514 1.51924 24.5627 2.34955 23.1488 3.81892Z" fill="url(#paint0_linear_327_15)" fill-opacity="0.75" stroke="url(#paint1_linear_327_15)" stroke-width="3"/>
<defs>
<linearGradient id="paint0_linear_327_15" x1="1" y1="29" x2="101" y2="29" gradientUnits="userSpaceOnUse">
<stop stop-color="#C21292"/>
<stop offset="1" stop-color="#59178C"/>
</linearGradient>
<linearGradient id="paint1_linear_327_15" x1="101" y1="59" x2="0.999995" y2="-0.999999" gradientUnits="userSpaceOnUse">
<stop stop-color="#59178C"/>
<stop offset="1" stop-color="#C21292"/>
</linearGradient>
</defs>
</svg>


