<svg width="300" height="300" viewBox="0 0 300 300" fill="none" xmlns="http://www.w3.org/2000/svg">
<g clip-path="url(#clip0_334_2)">
<path style="mix-blend-mode:color-dodge" fill-rule="evenodd" clip-rule="evenodd" d="M153.75 211.462C167.363 211.462 181.012 214.65 191.4 221.025C212.212 233.737 212.212 254.362 191.4 267.075C181.012 273.412 167.363 276.6 153.75 276.6C140.138 276.6 126.488 273.412 116.1 267.075C95.2875 254.362 95.2875 233.737 116.1 221.025C126.488 214.65 140.138 211.462 153.75 211.462ZM153.75 209.962C139.237 209.962 125.587 213.45 115.312 219.712C104.775 226.162 99 234.787 99 244.05C99 253.275 104.775 261.9 115.312 268.35C125.587 274.65 139.237 278.1 153.75 278.1C168.262 278.1 181.912 274.65 192.188 268.35C202.725 261.9 208.5 253.275 208.5 244.05C208.5 234.787 202.725 226.162 192.188 219.712C181.912 213.45 168.262 209.962 153.75 209.962Z" fill="url(#paint0_linear_334_2)"/>
<g style="mix-blend-mode:color-dodge">
<path d="M190.575 244.275C190.575 244.525 190.575 244.775 190.575 245.025V245.1C190.125 249.45 186.525 253.8 179.812 257.138C165.412 264.3 142.087 264.3 127.687 257.138C121.5 254.063 117.975 250.163 117.112 246.15C117.012 245.525 116.962 244.9 116.962 244.275C116.962 238.838 120.9 233.775 128.062 230.025C134.962 226.463 144.075 224.475 153.787 224.475C163.462 224.475 172.575 226.463 179.475 230.025C186.637 233.775 190.575 238.838 190.575 244.275Z" fill="#E7E7E7" fill-opacity="0.75"/>
</g>
<path style="mix-blend-mode:color-dodge" fill-rule="evenodd" clip-rule="evenodd" d="M153.788 222.525C164.025 222.525 174.263 224.625 182.1 228.825C197.738 237.225 197.738 250.837 182.1 259.237C174.263 263.437 164.025 265.537 153.788 265.537C143.513 265.537 133.275 263.437 125.438 259.237C109.8 250.837 109.8 237.225 125.438 228.825C133.275 224.625 143.513 222.525 153.788 222.525ZM153.788 219.337C142.575 219.337 131.963 221.737 123.938 226.012C115.275 230.662 110.513 237.075 110.513 244.05C110.513 251.025 115.275 257.4 123.938 262.05C131.963 266.362 142.575 268.725 153.788 268.725C165 268.725 175.575 266.362 183.6 262.05C192.263 257.4 197.025 251.025 197.025 244.05C197.025 237.075 192.263 230.662 183.6 226.012C175.575 221.737 165 219.337 153.788 219.337Z" fill="url(#paint1_linear_334_2)"/>
<g style="mix-blend-mode:color-dodge" opacity="0.5">
<path d="M131.212 140.212V117.562C144.487 114.15 159.6 113.925 173.1 116.925V139.575C159.6 136.575 144.487 136.8 131.212 140.212Z" fill="#5977FF"/>
</g>
<g style="mix-blend-mode:color-dodge" opacity="0.5">
<path d="M155.288 139.462V99.6374C177.863 99.4124 200.588 104.25 217.8 114.225C218.6 114.675 219.363 115.137 220.088 115.612V155.4C219.338 154.95 218.588 154.5 217.8 154.012C200.588 144.075 177.863 139.2 155.288 139.462Z" fill="#5977FF"/>
</g>
<path d="M115.725 140.775C114.525 140.663 112.275 144.788 113.85 146.55L114.525 146.85H117L116.625 141.413L115.725 140.775Z" fill="#191F65"/>
<path d="M118.575 142.425L116.4 147.863C116.4 147.863 111.712 144.825 110.175 144C108.9 143.25 107.775 142.2 107.1 142.388C106.012 142.725 103.537 143.213 102.525 142.725C101.512 142.2 103.05 141.6 103.05 141.6C102.3 141.6 101.662 141.675 101.175 141.525C99.4499 141.075 101.025 140.325 101.025 140.325C100.462 140.325 99.5249 139.95 99.8249 139.275C100.012 138.825 100.687 138.713 101.175 138.525C100.95 138.488 100.762 138.413 100.65 138.3C100.237 137.925 100.612 137.325 101.25 137.138C102.037 136.913 105.862 136.725 107.325 136.538C107.662 136.5 108 136.538 108.337 136.613C108.362 136.613 108.375 136.613 108.375 136.613H108.412C108.512 136.638 108.637 136.675 108.787 136.725C109.2 136.875 109.575 137.063 109.837 137.213C110.325 137.438 110.775 137.738 111.225 138.038C111.3 138.088 111.375 138.125 111.45 138.15C113.175 139.35 114.525 140.663 114.525 140.663L117.75 142.05L118.575 142.425Z" fill="#EDC59D"/>
<path d="M114.525 140.663C114.525 140.663 113.063 139.238 111.225 138.038C110.775 137.738 110.325 137.438 109.838 137.213C109.575 137.063 109.2 136.875 108.788 136.725C108.638 136.675 108.513 136.638 108.413 136.613H108.375C108.375 136.613 108.363 136.613 108.338 136.613C108 136.538 107.663 136.5 107.325 136.538C105.863 136.725 102.038 136.913 101.25 137.138C100.613 137.325 100.238 137.925 100.65 138.3C100.613 138.188 100.463 137.888 100.913 137.7C101.4 137.513 107.325 137.063 107.738 137.288C108.9 137.7 109.913 138.975 109.388 139.463C108.825 140.025 104.813 137.513 104.25 139.388C103.988 140.288 107.663 141.488 108.413 141.9C109.5 142.463 109.838 143.213 113.175 143.213C113.175 143.213 115.875 144.338 116.663 144.338C117.188 144.338 117.225 143.475 117.75 142.05L114.525 140.663Z" fill="#CC936D"/>
<g style="mix-blend-mode:color-dodge">
<path d="M205.613 154.5C205.425 154.5 205.275 154.35 205.238 154.2C203.55 145.763 197.1 138.075 186.638 132.038C171.375 123.225 149.588 119.325 128.363 121.613C128.175 121.65 127.95 121.5 127.95 121.275C127.913 121.088 128.063 120.9 128.288 120.863C149.663 118.575 171.638 122.513 187.013 131.4C197.663 137.55 204.225 145.388 205.988 154.05C206.025 154.238 205.913 154.425 205.688 154.463C205.663 154.488 205.638 154.5 205.613 154.5Z" fill="url(#paint2_linear_334_2)"/>
</g>
<path d="M148.95 126.188C148.95 126.188 148.65 126.937 148.2 128.212C146.325 132.975 141.825 144.712 140.925 147.112C139.8 150.112 138.338 153.563 131.738 153.6C125.438 153.638 113.85 146.587 113.85 146.587V146.55C114.188 146.7 114.563 146.7 114.975 146.475C115.5 146.213 115.95 145.575 116.25 144.825C116.513 144.15 116.625 143.362 116.588 142.612C116.513 141.712 116.175 141.075 115.725 140.775C118.425 142.05 127.913 146.325 131.4 144.712C135.15 142.987 135.6 138.825 138.075 133.275C141 126.712 148.95 126.188 148.95 126.188Z" fill="url(#paint3_linear_334_2)"/>
<path d="M148.95 126.188C148.95 126.188 148.65 126.937 148.2 128.212L140.25 145.05C140.25 145.05 139.425 147.75 133.163 149.625C126.9 151.462 116.25 144.825 116.25 144.825C116.513 144.15 116.625 143.362 116.588 142.612C116.513 141.712 116.175 141.075 115.725 140.775C118.425 142.05 127.913 146.325 131.4 144.712C135.15 142.987 135.6 138.825 138.075 133.275C141 126.712 148.95 126.188 148.95 126.188Z" fill="#E6E7E8"/>
<path d="M151.05 226.837C151.05 226.837 153.113 227.475 153.113 230.85C153.113 234.225 153.113 240.6 153.113 240.6H151.8C151.8 240.6 151.725 235.275 151.35 235.275C150.938 235.275 150.525 240.037 150.525 240.6C150.525 241.2 148.95 243.262 147.188 244.2C145.425 245.1 142.575 245.437 142.05 244.912C141.525 244.387 141.038 241.087 144.225 238.8L151.05 226.837Z" fill="url(#paint4_linear_334_2)"/>
<path d="M151.35 226.163C151.35 227.85 152.1 227.888 151.013 230.325C149.475 233.85 149.925 238.2 147.9 240.225C146.738 241.35 145.125 241.425 144.188 240.975C143.475 240.675 143.175 240.075 143.775 239.438C145.275 237.975 145.538 230.85 145.538 226.425C145.538 223.913 145.238 216.3 144.975 210.225C144.788 205.575 144.6 201.825 144.6 201.825L154.65 201.075C154.65 217.988 151.35 224.475 151.35 226.163Z" fill="#E8B18B"/>
<path d="M162.675 232.612C162.675 232.612 163.875 232.537 163.875 236.25C163.875 239.962 164.738 244.5 164.288 246.525C163.838 248.55 161.625 252.187 158.625 252.187C155.625 252.187 157.013 244.275 157.013 242.175C157.013 240.075 157.688 233.587 157.688 233.587L162.675 232.612Z" fill="url(#paint5_linear_334_2)"/>
<path d="M163.05 225.187C163.05 227.137 162.375 231.6 162.788 233.175C163.238 234.75 162.788 239.662 162.788 242.175C162.788 244.425 161.813 246.6 159.975 246.9C159.75 246.95 159.513 246.962 159.263 246.937C157.688 246.787 157.613 244.462 157.575 241.65C157.538 238.275 157.688 234.375 157.688 233.587C157.688 232.837 156.75 224.1 155.85 215.85C155.025 208.2 154.2 200.962 154.2 200.962L163.913 201.112C166.238 210.6 163.088 222.337 163.05 225.187Z" fill="#E8B18B"/>
<path d="M165.338 204.488C165.338 204.488 165 209.25 155.025 209.25C145.013 209.25 144 204.488 144 204.488C144 204.488 143.775 204 143.475 203.025H143.438C142.538 200.25 140.663 193.688 139.913 184.05C138.863 171.038 143.738 165 143.738 165L151.388 164.663L165.75 164.775C165.75 164.775 169.463 169.65 169.463 178.088C169.425 190.725 165.338 204.488 165.338 204.488Z" fill="url(#paint6_linear_334_2)"/>
<path d="M168.375 136.537C168.375 139.125 167.775 145.575 167.175 151.65C166.5 158.4 165.75 164.7 165.75 164.775C165.6 166.162 164.663 167.475 162.488 168.45C158.175 170.512 151.125 170.587 146.813 168.45C143.925 167.062 143.55 164.775 143.55 164.775C142.425 161.625 141.15 157.05 140.288 152.662C139.425 148.5 138.9 144.525 139.163 142.162C139.163 141.975 139.2 141.787 139.238 141.637C139.913 137.7 144.825 129.225 146.925 127.237C149.813 124.5 161.025 125.925 161.025 125.925C161.025 125.925 162.975 127.312 164.85 129.375C166.65 131.325 168.375 133.912 168.375 136.537Z" fill="url(#paint7_linear_334_2)"/>
<path opacity="0.8" d="M164.85 129.375C162.9 137.4 158.925 153.187 158.513 150.45C157.913 146.85 152.25 145.087 147.45 142.837C143.025 140.737 139.65 141.975 139.163 142.162C139.163 141.975 139.2 141.787 139.238 141.637C139.913 137.7 144.825 129.225 146.925 127.237C149.813 124.5 161.025 125.925 161.025 125.925C161.025 125.925 162.975 127.312 164.85 129.375Z" fill="#E6E7E8"/>
<path d="M150.675 125.925C150.638 125.925 147.15 129.562 148.913 134.325C151.2 140.512 159.45 132.45 160.613 130.312C161.813 128.137 161.213 126.187 161.213 126.187L150.675 125.925Z" fill="#E8B18B"/>
<path d="M170.325 92.5125C170.325 97.3125 166.462 101.175 161.662 101.175C156.862 101.175 152.962 97.3125 152.962 92.5125C152.962 91.6125 153.112 90.75 153.375 89.925C154.462 86.4 157.762 83.8125 161.662 83.8125C162.512 83.8125 163.325 83.9375 164.1 84.1875C167.7 85.2375 170.325 88.575 170.325 92.5125Z" fill="#9C2C76"/>
<path d="M170.325 92.5125C170.325 97.3125 166.463 101.175 161.663 101.175C156.863 101.175 152.85 92.4 153.113 91.6125C153.113 91.6125 157.875 92.2125 161.213 89.9625C164.1 88.05 164.363 84.9 164.1 84.1875C167.7 85.2375 170.325 88.575 170.325 92.5125Z" fill="#B83B8E"/>
<path d="M150.675 126.187L150.638 115.462H161.213V126.187C161.25 127.012 160.725 127.8 159.675 128.437C157.613 129.637 154.275 129.637 152.213 128.437C151.163 127.8 150.638 127.012 150.638 126.187H150.675Z" fill="#E8B18B"/>
<path d="M167.438 111.412C164.737 118.762 160.538 119.55 160.538 119.55L159.75 113.625L159.375 110.7C159.337 110.4 159.3 110.1 159.263 109.837L159.038 108.15L158.587 104.85L152.812 101.137L149.812 99.7874L142.312 103.162C142.312 103.162 142.462 92.3249 155.4 91.1624C156.5 91.0624 157.538 91.0749 158.513 91.1999C168.6 92.3999 169.913 104.7 167.438 111.412Z" fill="#9C2C76"/>
<path d="M164.55 111.637C163.912 117.3 161.475 117.337 161.4 117.337C161.4 118.162 161.025 118.912 160.462 119.662C160.425 119.662 160.425 119.662 160.425 119.662C160.012 120.15 159.525 120.6 158.962 121.05C158.362 121.537 157.687 121.987 156.975 122.437C154.987 123.712 151.687 125.55 149.062 124.725C148.537 124.575 148.087 124.387 147.637 124.125C143.475 121.875 142.237 116.175 142.05 111.112C142.012 110.962 142.012 110.85 142.012 110.85C141.862 106.162 142.575 102.112 142.575 102.112C148.762 97.4998 153.375 99.1873 156.487 102.187C156.862 102.525 157.162 102.9 157.5 103.237C158.512 104.437 159.337 105.75 159.975 106.912C161.025 108.825 161.55 110.362 161.55 110.362C161.55 110.362 161.587 110.287 161.625 110.212C161.85 109.912 162.3 109.275 162.787 109.012C163.725 108.525 164.85 108.975 164.55 111.637Z" fill="#EDC59D"/>
<path d="M158.475 107.55C158.475 108.325 158.438 109.15 158.363 110.025C158.363 110.025 157.238 110.625 155.363 111C154.688 111.15 153.938 111.3 153.075 111.338C153.038 111.338 153 111.15 152.963 110.85C152.85 110.1 152.738 108.525 152.663 107.175C152.625 106.65 152.588 106.163 152.55 105.75C152.55 105.6 152.55 105.45 152.55 105.3C152.513 104.925 152.475 104.7 152.475 104.7C152.475 104.7 152.475 104.925 152.438 105.338C152.438 105.488 152.4 105.6 152.4 105.788C152.363 106.2 152.325 106.688 152.288 107.213C152.175 108.525 152.025 109.988 151.875 110.775C151.838 111.15 151.763 111.338 151.725 111.338C150.525 111.3 149.25 111 147.825 110.7C144.6 110.063 142.875 108.675 142.05 107.813C141.563 107.325 141.375 106.988 141.375 106.988C141.375 106.988 141.363 106.888 141.338 106.688C141.3 105.975 141.225 104.025 141.863 102.113C141.863 102.113 141.863 102.113 141.9 102.075C142.125 101.363 142.463 100.65 142.913 100.013C143.1 99.7501 143.325 99.4876 143.55 99.2626C147.15 95.5501 153.15 95.7001 153.15 95.7001C153.15 95.7001 153.375 95.7376 153.675 95.8501V95.8876C154.125 96.0751 154.913 96.5251 155.7 97.3501C156.263 97.9876 156.825 98.8501 157.313 99.9751C157.588 100.65 157.825 101.438 158.025 102.338C158.025 102.338 158.025 102.35 158.025 102.375C158.15 102.975 158.25 103.625 158.325 104.325C158.363 104.475 158.363 104.588 158.4 104.7C158.425 105 158.438 105.313 158.438 105.638C158.488 106.238 158.5 106.875 158.475 107.55Z" fill="#9C2C76"/>
<path d="M161.663 110.25C161.663 110.25 161.4 114.15 160.2 114.15C159.488 114.15 159.563 111.787 159.263 109.837C159.188 109.387 159.038 108.937 158.925 108.562C158.663 107.812 158.363 107.325 158.363 107.325L155.7 102.112L156.488 102.187L160.013 102.562L160.688 105.75L161.625 110.212L161.663 110.25Z" fill="#9C2C76"/>
<path d="M160.763 113.775C160.613 114 160.425 114.15 160.2 114.15C160.1 114.15 160.025 114.112 159.975 114.037L160.763 113.775Z" fill="#B83B8E"/>
<path d="M167.438 111.413C164.738 118.763 160.538 119.55 160.538 119.55C161.1 118.838 161.4 118.125 161.4 117.338C161.475 117.338 163.613 117.3 164.4 112.688C167.55 107.7 166.163 99.2252 164.588 96.2252C163.538 94.1627 161.213 92.5127 158.513 91.2002C168.6 92.4002 169.913 104.7 167.438 111.413Z" fill="#B83B8E"/>
<path d="M149.063 230.738C148.163 236.513 146.138 239.55 144.188 240.975C143.475 240.675 143.175 240.075 143.775 239.438C145.275 237.975 145.538 230.85 145.538 226.425C145.538 223.913 145.238 216.3 144.975 210.225C145.238 210.638 150.788 219.713 149.063 230.738Z" fill="#EDC59D"/>
<path d="M159.975 246.9C159.75 246.95 159.513 246.963 159.263 246.938C157.688 246.788 157.613 244.463 157.575 241.65C157.538 238.275 157.688 234.375 157.688 233.588C157.688 232.838 156.75 224.1 155.85 215.85C155.85 215.85 161.1 217.463 161.1 226.163C161.1 233.25 161.625 242.25 159.975 246.9Z" fill="#EDC59D"/>
<path d="M161.55 108.563L161.362 108.863L161.1 109.238L159.487 111.713L159.45 111.75L158.662 112.95L156.562 111.075C156.562 111.075 156.112 111.075 155.362 111C154.725 111 153.937 110.925 152.962 110.85C152.612 110.825 152.25 110.8 151.875 110.775C150.937 110.7 149.887 110.588 148.8 110.475C145.912 110.1 143.362 108.338 142.05 107.325V107.288C141.75 107.025 141.3 106.838 141.15 106.688C141.112 105.975 141.225 104.025 141.862 102.113C141.862 102.113 141.862 102.113 141.9 102.075C141.975 102.3 142.087 102.638 142.312 102.975C142.337 103.025 142.362 103.075 142.387 103.125C142.387 103.125 142.4 103.138 142.425 103.163C142.987 104.025 144 105.038 145.762 105.563C147.825 106.163 150.3 106.013 152.4 105.788C152.475 105.75 152.512 105.75 152.55 105.75C153.937 105.6 155.137 105.413 156 105.375C156.487 105.338 156.937 105.375 157.35 105.413C157.762 105.45 158.1 105.525 158.437 105.638C158.55 105.675 158.625 105.713 158.7 105.75C159 105.85 159.275 105.975 159.525 106.125C160.237 106.5 160.725 107.025 161.062 107.475C161.4 107.925 161.55 108.338 161.55 108.563Z" fill="url(#paint8_linear_334_2)"/>
<path d="M160.537 111.112C160.537 110.4 157.912 109.125 155.55 109.125C153.262 109.125 150 109.838 146.625 108.6C142.425 107.1 141.187 106.125 141.187 106.125L141.15 106.5C141.15 106.5 144.375 111.9 148.537 112.388C152.7 112.913 156.3 113.025 156.3 113.025L158.437 114.9L160.537 111.112Z" fill="#808285"/>
<path d="M164.062 109.012L162.15 109.425C162.15 109.425 163.237 100.237 160.912 97.5C160.2 96.6375 158.4 94.95 155.587 93.975C153.037 93.1125 150.262 92.8875 148.8 93.15C148.575 93.1875 148.387 93.2625 148.237 93.3C148.237 93.3 147.112 94.05 146.625 94.4625C146.575 94.5125 146.525 94.55 146.475 94.575C146.062 95.025 146.287 93.8625 146.55 93.075C146.85 92.25 147.787 91.3875 149.212 91.0875C150.337 90.8625 154.087 91.2 156.712 91.9875C159.337 92.775 162.375 94.95 163.312 96.825C165 100.237 164.062 109.012 164.062 109.012Z" fill="url(#paint9_linear_334_2)"/>
<path d="M148.8 93.1499C148.575 93.1874 148.387 93.2624 148.237 93.2999C148.237 93.2999 147.112 94.0499 146.625 94.4624C146.625 94.3874 146.625 94.0499 146.812 93.6749C147 93.2999 148.8 93.1499 148.8 93.1499Z" fill="#58595B"/>
<path d="M167.363 110.4C167.363 112.987 165.563 116.25 163.013 117.712C160.425 119.212 157.763 118.312 157.763 115.762C157.763 113.212 159.225 110.025 161.738 108.45C164.888 106.5 167.363 107.85 167.363 110.4Z" fill="#29299E"/>
<path d="M167.362 110.925C167.362 112.987 165.675 115.65 163.612 116.85C161.55 118.05 159.862 117.337 159.862 115.237C159.862 113.175 161.55 110.55 163.612 109.35C165.675 108.15 167.362 108.862 167.362 110.925Z" fill="url(#paint10_linear_334_2)"/>
<path d="M157.913 114.375V114.6C157.875 116.288 157.2 118.95 152.962 118.8C152.762 118.8 152.562 118.8 152.362 118.8C149.55 118.65 146.587 118.088 144.15 117C143.65 116.775 143.162 116.525 142.688 116.25C142.163 115.913 141.675 115.575 141.225 115.163C141.1 115.038 140.975 114.913 140.85 114.788L140.625 107.1C140.625 107.1 143.662 109.35 147.675 110.4C148.387 110.588 149.175 110.738 149.962 110.85C150.712 110.925 151.5 110.925 152.25 110.888H152.325C158.325 110.513 157.913 113.025 157.913 114.375Z" fill="#191F65"/>
<path style="mix-blend-mode:color-dodge" d="M157.912 114.375V114.6L152.362 118.8C149.55 118.65 146.587 118.087 144.15 117L152.25 110.887H152.325C158.325 110.512 157.912 113.025 157.912 114.375Z" fill="url(#paint11_linear_334_2)"/>
<path style="mix-blend-mode:color-dodge" d="M149.963 110.85L142.688 116.25C142.163 115.912 141.675 115.575 141.225 115.162L147.675 110.4C148.388 110.587 149.175 110.737 149.963 110.85Z" fill="url(#paint12_linear_334_2)"/>
<path d="M158.25 111.187C157.2 110.175 155.325 109.8 152.475 109.95C147.6 110.287 142.838 107.587 141.15 106.5L141.225 104.962C141 104.812 140.775 104.925 140.55 105.075C140.4 105.187 139.913 105.525 139.688 106.012C139.65 106.012 139.65 106.05 139.65 106.05C139.575 106.2 139.525 106.375 139.5 106.575C139.463 106.95 139.575 107.287 139.875 107.55C139.95 107.625 140.038 107.687 140.138 107.737C141.825 108.862 147 111.9 152.55 111.562C155.475 111.375 156.675 111.862 157.163 112.35C157.688 112.8 157.688 113.512 157.688 114.187V114.487C157.688 115.35 157.538 116.587 156.713 117.375C156 118.125 154.8 118.65 153.225 118.612C147.75 118.425 143.138 116.85 140.738 114.45C140.438 114.15 140.063 114.037 139.725 114.337C139.425 114.675 139.425 115.162 139.725 115.462C142.425 118.162 147.3 119.812 153.15 120C153.275 120 153.4 120 153.525 120C155.4 120 156.825 119.512 157.838 118.537C158.813 117.562 159.3 116.175 159.3 114.45V114.187C159.3 113.362 159.3 112.125 158.25 111.187Z" fill="url(#paint13_linear_334_2)"/>
<path d="M135.488 153.187C134.063 152.925 132.488 157.237 133.763 158.512L134.888 158.85L138.225 156.675L136.238 153.6L135.488 153.187Z" fill="#191F65"/>
<path d="M136.988 157.5L134.438 158.438C134.438 158.438 131.775 156.975 131.025 156.6C129.6 155.888 128.138 156 126.713 156.263C125.25 156.563 124.425 156.75 124.2 156.487C123.825 156.15 124.388 155.663 124.388 155.663C124.388 155.638 124.388 155.625 124.388 155.625L124.35 155.663C124.088 155.7 121.313 156.375 120.675 156.15C119.963 155.887 120.488 155.288 120.488 155.288C120.488 155.288 119.213 155.363 118.8 154.95C118.613 154.763 118.763 154.537 119.025 154.312C119.025 154.287 119.038 154.275 119.063 154.275C119.138 154.2 119.175 154.125 119.25 154.087C119.4 153.975 119.513 153.9 119.625 153.862C119.625 153.862 119.625 153.825 119.663 153.825C119.738 153.775 119.775 153.75 119.775 153.75C119.775 153.75 118.8 153.15 119.138 152.625C119.138 152.6 119.15 152.575 119.175 152.55C119.7 152.025 126.15 149.812 128.1 149.812C129.15 149.812 133.2 152.4 133.725 152.737C133.75 152.762 133.763 152.775 133.763 152.775L136.238 153.75L136.95 157.35L136.988 157.5Z" fill="#EDC59D"/>
<path d="M136.95 157.35L135.45 157.163C135.45 157.163 131.625 155.025 129.975 155.025C128.325 155.025 125.213 156 124.8 156C124.425 156 124.388 155.738 124.388 155.663C124.388 155.638 124.388 155.625 124.388 155.625L126.338 154.8C126.075 154.837 121.538 155.963 120.863 155.812C120.3 155.7 120.488 155.288 120.488 155.288L122.925 154.388C122.025 154.688 119.588 155.363 118.988 154.763C118.838 154.65 118.875 154.463 119.025 154.312C119.025 154.287 119.038 154.275 119.063 154.275C119.138 154.2 119.175 154.125 119.25 154.087C119.4 153.975 119.513 153.9 119.625 153.862C119.625 153.862 119.625 153.825 119.663 153.825C119.738 153.788 119.775 153.75 119.775 153.75L122.7 152.925C122.325 153 120.6 153.338 119.663 153.263C119.138 153.225 119.063 152.85 119.138 152.625C119.138 152.6 119.15 152.575 119.175 152.55C119.7 152.025 126.15 149.812 128.1 149.812C129.15 149.812 133.2 152.4 133.725 152.737C133.75 152.762 133.763 152.775 133.763 152.775L136.238 153.75L136.95 157.35Z" fill="#CC936D"/>
<path d="M170.475 144.712C170.325 147.825 169.425 151.312 166.988 155.025C162 162.712 156.375 167.1 145.613 163.612C137.438 160.95 133.763 158.512 133.763 158.512C134.038 158.562 134.338 158.475 134.663 158.25C135.038 157.987 135.375 157.575 135.638 157.087C136.05 156.337 136.275 155.4 136.2 154.612C136.125 153.9 135.863 153.375 135.488 153.187C136.463 153.562 148.763 158.325 154.65 156C159.3 154.2 160.05 142.125 160.05 141.712C160.05 141.3 163.875 128.362 163.875 128.362C163.875 128.362 168.788 131.287 169.575 135.525C169.95 137.775 170.775 140.962 170.475 144.712Z" fill="url(#paint14_linear_334_2)"/>
<path d="M170.475 144.712C168.825 150.187 162.337 161.7 153.75 162.037C144.637 162.412 135.637 157.087 135.637 157.087C136.05 156.337 136.275 155.4 136.2 154.612C136.125 153.9 135.862 153.375 135.487 153.187C136.462 153.562 148.762 158.325 154.65 156C159.3 154.2 160.05 142.125 160.05 141.712C160.05 141.3 163.875 128.362 163.875 128.362C163.875 128.362 168.787 131.287 169.575 135.525C169.95 137.775 170.775 140.962 170.475 144.712Z" fill="#E6E7E8"/>
<path style="mix-blend-mode:color-dodge" d="M240.038 96.5996C240.038 100.875 236.588 104.325 232.35 104.325C228.113 104.325 224.663 100.875 224.663 96.5996C224.663 92.3621 228.113 88.9121 232.35 88.9121C236.588 88.9121 240.038 92.3621 240.038 96.5996Z" fill="url(#paint15_radial_334_2)"/>
<path style="mix-blend-mode:color-dodge" d="M103.838 65.4746C103.838 69.7496 100.388 73.1996 96.1503 73.1996C91.8753 73.1996 88.4253 69.7496 88.4253 65.4746C88.4253 61.2371 91.8753 57.7871 96.1503 57.7871C100.388 57.7871 103.838 61.2371 103.838 65.4746Z" fill="url(#paint16_radial_334_2)"/>
<path style="mix-blend-mode:color-dodge" d="M203.663 177.6C203.663 180.375 201.375 182.662 198.6 182.662C195.788 182.662 193.538 180.375 193.538 177.6C193.538 174.787 195.788 172.537 198.6 172.537C201.375 172.537 203.663 174.787 203.663 177.6Z" fill="url(#paint17_radial_334_2)"/>
<path style="mix-blend-mode:color-dodge" d="M185.138 59.6997C185.138 62.5122 182.888 64.7622 180.075 64.7622C177.3 64.7622 175.013 62.5122 175.013 59.6997C175.013 56.9247 177.3 54.6372 180.075 54.6372C182.888 54.6372 185.138 56.9247 185.138 59.6997Z" fill="url(#paint18_radial_334_2)"/>
<path style="mix-blend-mode:color-dodge" d="M123.488 189.787C123.488 192.562 121.2 194.85 118.425 194.85C115.613 194.85 113.363 192.562 113.363 189.787C113.363 186.975 115.613 184.725 118.425 184.725C121.2 184.725 123.488 186.975 123.488 189.787Z" fill="url(#paint19_radial_334_2)"/>
<path style="mix-blend-mode:color-dodge" d="M85.2754 138.75C85.2754 141.3 83.2129 143.362 80.6629 143.362C78.1504 143.362 76.0879 141.3 76.0879 138.75C76.0879 136.237 78.1504 134.175 80.6629 134.175C83.2129 134.175 85.2754 136.237 85.2754 138.75Z" fill="url(#paint20_radial_334_2)"/>
<path style="mix-blend-mode:color-dodge" d="M116.513 84.75C116.513 85.875 115.613 86.775 114.488 86.775C113.325 86.775 112.425 85.875 112.425 84.75C112.425 83.5875 113.325 82.6875 114.488 82.6875C115.613 82.6875 116.513 83.5875 116.513 84.75Z" fill="url(#paint21_radial_334_2)"/>
<path style="mix-blend-mode:color-dodge" d="M215.4 145.912C215.4 147.075 214.463 147.975 213.338 147.975C212.213 147.975 211.275 147.075 211.275 145.912C211.275 144.787 212.213 143.887 213.338 143.887C214.463 143.887 215.4 144.787 215.4 145.912Z" fill="url(#paint22_radial_334_2)"/>
<path style="mix-blend-mode:color-dodge" d="M202.688 60.2622C202.688 61.3872 201.788 62.3247 200.625 62.3247C199.5 62.3247 198.6 61.3872 198.6 60.2622C198.6 59.1372 199.5 58.1997 200.625 58.1997C201.788 58.1997 202.688 59.1372 202.688 60.2622Z" fill="url(#paint23_radial_334_2)"/>
<path style="mix-blend-mode:color-dodge" d="M98.25 167.85C98.25 168.975 97.3125 169.912 96.1875 169.912C95.0625 169.912 94.125 168.975 94.125 167.85C94.125 166.725 95.0625 165.787 96.1875 165.787C97.3125 165.787 98.25 166.725 98.25 167.85Z" fill="url(#paint24_radial_334_2)"/>
<path style="mix-blend-mode:color-dodge" d="M77.2876 70.7998C77.2876 71.9248 76.3501 72.8248 75.2251 72.8248C74.1001 72.8248 73.1626 71.9248 73.1626 70.7998C73.1626 69.6373 74.1001 68.7373 75.2251 68.7373C76.3501 68.7373 77.2876 69.6373 77.2876 70.7998Z" fill="url(#paint25_radial_334_2)"/>
<path style="mix-blend-mode:color-dodge" d="M174.375 147.975C174.375 149.775 172.912 151.275 171.112 151.275C169.275 151.275 167.812 149.775 167.812 147.975C167.812 146.175 169.275 144.712 171.112 144.712C172.912 144.712 174.375 146.175 174.375 147.975Z" fill="url(#paint26_radial_334_2)"/>
<path style="mix-blend-mode:color-dodge" d="M247.988 169.912C247.988 171.037 247.05 171.975 245.925 171.975C244.8 171.975 243.863 171.037 243.863 169.912C243.863 168.787 244.8 167.85 245.925 167.85C247.05 167.85 247.988 168.787 247.988 169.912Z" fill="url(#paint27_radial_334_2)"/>
<path style="mix-blend-mode:color-dodge" d="M251.288 68.7373C251.288 69.8623 250.35 70.7998 249.225 70.7998C248.1 70.7998 247.163 69.8623 247.163 68.7373C247.163 67.6123 248.1 66.6748 249.225 66.6748C250.35 66.6748 251.288 67.6123 251.288 68.7373Z" fill="url(#paint28_radial_334_2)"/>
<path style="mix-blend-mode:color-dodge" d="M137.325 28.9873C137.325 30.1123 136.425 31.0498 135.3 31.0498C134.175 31.0498 133.238 30.1123 133.238 28.9873C133.238 27.8623 134.175 26.9248 135.3 26.9248C136.425 26.9248 137.325 27.8623 137.325 28.9873Z" fill="url(#paint29_radial_334_2)"/>
<path style="mix-blend-mode:color-dodge" d="M50.7002 96.5997C50.7002 97.7622 49.7627 98.6622 48.6377 98.6622C47.5127 98.6622 46.5752 97.7622 46.5752 96.5997C46.5752 95.4747 47.5127 94.5747 48.6377 94.5747C49.7627 94.5747 50.7002 95.4747 50.7002 96.5997Z" fill="url(#paint30_radial_334_2)"/>
<path style="mix-blend-mode:color-dodge" d="M196.875 118.725C196.875 119.437 196.313 120 195.6 120C194.925 120 194.363 119.437 194.363 118.725C194.363 118.05 194.925 117.487 195.6 117.487C196.313 117.487 196.875 118.05 196.875 118.725Z" fill="url(#paint31_radial_334_2)"/>
<path style="mix-blend-mode:color-dodge" d="M105.075 118.725C105.075 119.437 104.512 120 103.837 120C103.125 120 102.562 119.437 102.562 118.725C102.562 118.05 103.125 117.487 103.837 117.487C104.512 117.487 105.075 118.05 105.075 118.725Z" fill="url(#paint32_radial_334_2)"/>
<path style="mix-blend-mode:color-dodge" d="M111.75 141.075C111.75 141.787 111.188 142.35 110.513 142.35C109.8 142.35 109.238 141.787 109.238 141.075C109.238 140.362 109.8 139.8 110.513 139.8C111.188 139.8 111.75 140.362 111.75 141.075Z" fill="url(#paint33_radial_334_2)"/>
<path style="mix-blend-mode:color-dodge" d="M229.388 50.9249C229.388 51.5999 228.825 52.1624 228.112 52.1624C227.437 52.1624 226.875 51.5999 226.875 50.9249C226.875 50.2124 227.437 49.6499 228.112 49.6499C228.825 49.6499 229.388 50.2124 229.388 50.9249Z" fill="url(#paint34_radial_334_2)"/>
<path style="mix-blend-mode:color-dodge" d="M77.7376 43.6124C77.7376 44.2874 77.1751 44.8499 76.5001 44.8499C75.7876 44.8499 75.2251 44.2874 75.2251 43.6124C75.2251 42.8999 75.7876 42.3374 76.5001 42.3374C77.1751 42.3374 77.7376 42.8999 77.7376 43.6124Z" fill="url(#paint35_radial_334_2)"/>
<path style="mix-blend-mode:color-dodge" d="M220.95 121.575C220.95 122.25 220.387 122.812 219.675 122.812C219 122.812 218.438 122.25 218.438 121.575C218.438 120.862 219 120.3 219.675 120.3C220.387 120.3 220.95 120.862 220.95 121.575Z" fill="url(#paint36_radial_334_2)"/>
<path style="mix-blend-mode:color-dodge" d="M169.088 177.6C169.088 178.275 168.525 178.837 167.813 178.837C167.138 178.837 166.575 178.275 166.575 177.6C166.575 176.887 167.138 176.325 167.813 176.325C168.525 176.325 169.088 176.887 169.088 177.6Z" fill="url(#paint37_radial_334_2)"/>
<path style="mix-blend-mode:color-dodge" d="M126.9 138.6C126.9 139.312 126.338 139.875 125.663 139.875C124.95 139.875 124.388 139.312 124.388 138.6C124.388 137.925 124.95 137.362 125.663 137.362C126.338 137.362 126.9 137.925 126.9 138.6Z" fill="url(#paint38_radial_334_2)"/>
<path style="mix-blend-mode:color-dodge" d="M220.95 175.162C220.95 175.875 220.387 176.437 219.675 176.437C219 176.437 218.438 175.875 218.438 175.162C218.438 174.45 219 173.887 219.675 173.887C220.387 173.887 220.95 174.45 220.95 175.162Z" fill="url(#paint39_radial_334_2)"/>
<path style="mix-blend-mode:color-dodge" d="M254.7 132.562C254.7 133.275 254.138 133.837 253.463 133.837C252.75 133.837 252.188 133.275 252.188 132.562C252.188 131.887 252.75 131.325 253.463 131.325C254.138 131.325 254.7 131.887 254.7 132.562Z" fill="url(#paint40_radial_334_2)"/>
<path style="mix-blend-mode:color-dodge" d="M71.1003 117.487C71.1003 118.162 70.5378 118.725 69.8253 118.725C69.1128 118.725 68.5503 118.162 68.5503 117.487C68.5503 116.775 69.1128 116.212 69.8253 116.212C70.5378 116.212 71.1003 116.775 71.1003 117.487Z" fill="url(#paint41_radial_334_2)"/>
<path style="mix-blend-mode:color-dodge" d="M208.275 76.1998C208.275 76.8748 207.713 77.4373 207.038 77.4373C206.325 77.4373 205.763 76.8748 205.763 76.1998C205.763 75.4873 206.325 74.9248 207.038 74.9248C207.713 74.9248 208.275 75.4873 208.275 76.1998Z" fill="url(#paint42_radial_334_2)"/>
<path style="mix-blend-mode:color-dodge" d="M175.65 32.2873C175.65 32.9998 175.088 33.5623 174.375 33.5623C173.7 33.5623 173.138 32.9998 173.138 32.2873C173.138 31.6123 173.7 31.0498 174.375 31.0498C175.088 31.0498 175.65 31.6123 175.65 32.2873Z" fill="url(#paint43_radial_334_2)"/>
<path style="mix-blend-mode:color-dodge" d="M86.55 98.6623C86.55 99.3748 85.95 99.9373 85.275 99.9373C84.5625 99.9373 84 99.3748 84 98.6623C84 97.9873 84.5625 97.4248 85.275 97.4248C85.95 97.4248 86.55 97.9873 86.55 98.6623Z" fill="url(#paint44_radial_334_2)"/>
<path style="mix-blend-mode:color-dodge" d="M69.8253 158.475C69.8253 159.637 68.8878 160.537 67.7628 160.537C66.6378 160.537 65.7378 159.637 65.7378 158.475C65.7378 157.35 66.6378 156.45 67.7628 156.45C68.8878 156.45 69.8253 157.35 69.8253 158.475Z" fill="url(#paint45_radial_334_2)"/>
<path style="mix-blend-mode:color-dodge" d="M240.038 146.062C236.588 146.062 233.775 143.25 233.775 139.8C233.775 136.35 236.588 133.575 240.038 133.575C243.488 133.575 246.3 136.35 246.3 139.8C246.3 143.25 243.488 146.062 240.038 146.062Z" fill="url(#paint46_radial_334_2)"/>
<path style="mix-blend-mode:color-dodge" d="M183.562 113.362C181.312 113.362 179.438 111.525 179.438 109.237C179.438 106.987 181.312 105.15 183.562 105.15C185.85 105.15 187.688 106.987 187.688 109.237C187.688 111.525 185.85 113.362 183.562 113.362Z" fill="url(#paint47_radial_334_2)"/>
<path style="mix-blend-mode:color-dodge" d="M116.513 106.912C114.263 106.912 112.425 105.075 112.425 102.787C112.425 100.5 114.263 98.6621 116.513 98.6621C118.8 98.6621 120.638 100.5 120.638 102.787C120.638 105.075 118.8 106.912 116.513 106.912Z" fill="url(#paint48_radial_334_2)"/>
<path style="mix-blend-mode:color-dodge" d="M139.163 57.5997C137.1 57.5997 135.413 55.9497 135.413 53.8872C135.413 51.8247 137.1 50.1372 139.163 50.1372C141.225 50.1372 142.875 51.8247 142.875 53.8872C142.875 55.9497 141.225 57.5997 139.163 57.5997Z" fill="url(#paint49_radial_334_2)"/>
<path style="mix-blend-mode:color-dodge" d="M179.7 76.7999C178.8 76.7999 178.05 76.0499 178.05 75.1499C178.05 74.2124 178.8 73.4624 179.7 73.4624C180.638 73.4624 181.388 74.2124 181.388 75.1499C181.388 76.0499 180.638 76.7999 179.7 76.7999Z" fill="url(#paint50_radial_334_2)"/>
<path style="mix-blend-mode:color-dodge" d="M129.975 157.162C129.075 157.162 128.325 156.412 128.325 155.475C128.325 154.537 129.075 153.825 129.975 153.825C130.913 153.825 131.663 154.537 131.663 155.475C131.663 156.412 130.913 157.162 129.975 157.162Z" fill="url(#paint51_radial_334_2)"/>
<path style="mix-blend-mode:color-dodge" d="M199.575 146.85C198.675 146.85 197.925 146.1 197.925 145.162C197.925 144.262 198.675 143.512 199.575 143.512C200.513 143.512 201.263 144.262 201.263 145.162C201.263 146.1 200.513 146.85 199.575 146.85Z" fill="url(#paint52_radial_334_2)"/>
<path style="mix-blend-mode:color-dodge" d="M112.163 61.9498C111.225 61.9498 110.513 61.1998 110.513 60.2998C110.513 59.3623 111.225 58.6123 112.163 58.6123C113.1 58.6123 113.85 59.3623 113.85 60.2998C113.85 61.1998 113.1 61.9498 112.163 61.9498Z" fill="url(#paint53_radial_334_2)"/>
<path style="mix-blend-mode:color-dodge" d="M191.062 44.9249C190.125 44.9249 189.375 44.1749 189.375 43.2374C189.375 42.3374 190.125 41.5874 191.062 41.5874C191.963 41.5874 192.713 42.3374 192.713 43.2374C192.713 44.1749 191.963 44.9249 191.062 44.9249Z" fill="url(#paint54_radial_334_2)"/>
<path style="mix-blend-mode:color-dodge" d="M128.325 123.825C126.825 123.825 125.663 122.625 125.663 121.163C125.663 119.7 126.825 118.5 128.325 118.5C129.788 118.5 130.988 119.7 130.988 121.163C130.988 122.625 129.788 123.825 128.325 123.825Z" fill="url(#paint55_radial_334_2)"/>
<path style="mix-blend-mode:color-dodge" d="M110.513 183.637C109.575 183.637 108.825 182.887 108.825 181.95C108.825 181.05 109.575 180.3 110.513 180.3C111.413 180.3 112.163 181.05 112.163 181.95C112.163 182.887 111.413 183.637 110.513 183.637Z" fill="url(#paint56_radial_334_2)"/>
<path style="mix-blend-mode:color-dodge" d="M213.15 201.787C212.213 201.787 211.463 201.037 211.463 200.137C211.463 199.2 212.213 198.45 213.15 198.45C214.05 198.45 214.8 199.2 214.8 200.137C214.8 201.037 214.05 201.787 213.15 201.787Z" fill="url(#paint57_radial_334_2)"/>
<path style="mix-blend-mode:color-dodge" d="M225 93.7125C224.1 93.7125 223.35 92.9625 223.35 92.0625C223.35 91.125 224.1 90.375 225 90.375C225.938 90.375 226.688 91.125 226.688 92.0625C226.688 92.9625 225.938 93.7125 225 93.7125Z" fill="url(#paint58_radial_334_2)"/>
<path style="mix-blend-mode:color-dodge" d="M170.062 23.3248C169.125 23.3248 168.375 22.5748 168.375 21.6373C168.375 20.7373 169.125 19.9873 170.062 19.9873C170.963 19.9873 171.712 20.7373 171.712 21.6373C171.712 22.5748 170.963 23.3248 170.062 23.3248Z" fill="url(#paint59_radial_334_2)"/>
<path style="mix-blend-mode:color-dodge" d="M152.063 142.087C151.5 142.087 151.05 141.638 151.05 141.075C151.05 140.513 151.5 140.062 152.063 140.062C152.625 140.062 153.113 140.513 153.113 141.075C153.113 141.638 152.625 142.087 152.063 142.087Z" fill="url(#paint60_radial_334_2)"/>
<path style="mix-blend-mode:color-dodge" d="M160.688 64.0122C160.125 64.0122 159.675 63.5247 159.675 62.9622C159.675 62.3997 160.125 61.9497 160.688 61.9497C161.288 61.9497 161.738 62.3997 161.738 62.9622C161.738 63.5247 161.288 64.0122 160.688 64.0122Z" fill="url(#paint61_radial_334_2)"/>
<path style="mix-blend-mode:color-dodge" d="M119.775 75.5249C119.175 75.5249 118.725 75.0749 118.725 74.5124C118.725 73.9499 119.175 73.4624 119.775 73.4624C120.338 73.4624 120.788 73.9499 120.788 74.5124C120.788 75.0749 120.338 75.5249 119.775 75.5249Z" fill="url(#paint62_radial_334_2)"/>
<path style="mix-blend-mode:color-dodge" d="M207.188 168.525C206.625 168.525 206.175 168.075 206.175 167.512C206.175 166.95 206.625 166.462 207.188 166.462C207.75 166.462 208.238 166.95 208.238 167.512C208.238 168.075 207.75 168.525 207.188 168.525Z" fill="url(#paint63_radial_334_2)"/>
<path style="mix-blend-mode:color-dodge" d="M149.775 161.662C149.213 161.662 148.763 161.212 148.763 160.65C148.763 160.087 149.213 159.637 149.775 159.637C150.338 159.637 150.788 160.087 150.788 160.65C150.788 161.212 150.338 161.662 149.775 161.662Z" fill="url(#paint64_radial_334_2)"/>
<path style="mix-blend-mode:color-dodge" d="M159.675 111.412C159.113 111.412 158.663 110.962 158.663 110.4C158.663 109.837 159.113 109.387 159.675 109.387C160.238 109.387 160.688 109.837 160.688 110.4C160.688 110.962 160.238 111.412 159.675 111.412Z" fill="url(#paint65_radial_334_2)"/>
<path style="mix-blend-mode:color-dodge" d="M143.925 86.4371C143.362 86.4371 142.875 85.9871 142.875 85.4246C142.875 84.8621 143.362 84.4121 143.925 84.4121C144.487 84.4121 144.938 84.8621 144.938 85.4246C144.938 85.9871 144.487 86.4371 143.925 86.4371Z" fill="url(#paint66_radial_334_2)"/>
<path style="mix-blend-mode:color-dodge" d="M106.237 161.662C105.675 161.662 105.188 161.212 105.188 160.65C105.188 160.087 105.675 159.637 106.237 159.637C106.8 159.637 107.25 160.087 107.25 160.65C107.25 161.212 106.8 161.662 106.237 161.662Z" fill="url(#paint67_radial_334_2)"/>
<path style="mix-blend-mode:color-dodge" d="M140.85 189.112C140.288 189.112 139.8 188.662 139.8 188.062C139.8 187.5 140.288 187.05 140.85 187.05C141.413 187.05 141.863 187.5 141.863 188.062C141.863 188.662 141.413 189.112 140.85 189.112Z" fill="url(#paint68_radial_334_2)"/>
<path style="mix-blend-mode:color-dodge" d="M153.112 39.8999C152.55 39.8999 152.062 39.4124 152.062 38.8499C152.062 38.2874 152.55 37.8374 153.112 37.8374C153.675 37.8374 154.125 38.2874 154.125 38.8499C154.125 39.4124 153.675 39.8999 153.112 39.8999Z" fill="url(#paint69_radial_334_2)"/>
<path style="mix-blend-mode:color-dodge" d="M186.675 151.387C186.112 151.387 185.625 150.937 185.625 150.375C185.625 149.775 186.112 149.325 186.675 149.325C187.237 149.325 187.688 149.775 187.688 150.375C187.688 150.937 187.237 151.387 186.675 151.387Z" fill="url(#paint70_radial_334_2)"/>
<path style="mix-blend-mode:color-dodge" d="M232.35 146.962C231.788 146.962 231.338 146.475 231.338 145.912C231.338 145.35 231.788 144.9 232.35 144.9C232.913 144.9 233.363 145.35 233.363 145.912C233.363 146.475 232.913 146.962 232.35 146.962Z" fill="url(#paint71_radial_334_2)"/>
<path style="mix-blend-mode:color-dodge" d="M215.288 32.3248C214.725 32.3248 214.275 31.8748 214.275 31.3123C214.275 30.7498 214.725 30.2998 215.288 30.2998C215.85 30.2998 216.3 30.7498 216.3 31.3123C216.3 31.8748 215.85 32.3248 215.288 32.3248Z" fill="url(#paint72_radial_334_2)"/>
<path style="mix-blend-mode:color-dodge" d="M119.775 38.8497C118.838 38.8497 118.088 38.0997 118.088 37.1997C118.088 36.2622 118.838 35.5122 119.775 35.5122C120.675 35.5122 121.425 36.2622 121.425 37.1997C121.425 38.0997 120.675 38.8497 119.775 38.8497Z" fill="url(#paint73_radial_334_2)"/>
<g style="mix-blend-mode:color-dodge">
<path fill-rule="evenodd" clip-rule="evenodd" d="M85.2752 98.8502L48.6377 96.7877C48.5627 96.7877 48.4877 96.7502 48.4502 96.6752C48.4502 96.6002 48.4502 96.5252 48.5252 96.4877L75.1127 70.6502C75.1502 70.6127 75.2252 70.5752 75.2627 70.6127C75.3377 70.6127 75.3877 70.6502 75.4127 70.7252L85.4627 98.6252C85.4627 98.6752 85.4502 98.7252 85.4252 98.7752C85.3752 98.8252 85.3252 98.8502 85.2752 98.8502ZM49.0877 96.4502L85.0127 98.4752L75.1502 71.1377L49.0877 96.4502Z" fill="#27AAE1"/>
</g>
<g style="mix-blend-mode:color-dodge" opacity="0.7">
<path d="M78.3374 150.412V116.4C82.3499 110.7 88.3874 105.337 96.4124 100.687C105.3 95.5874 115.687 91.8749 126.787 89.5874V123.6C115.687 125.887 105.3 129.6 96.4124 134.7C88.3874 139.35 82.3499 144.712 78.3374 150.412Z" fill="#5977FF"/>
</g>
<g style="mix-blend-mode:color-dodge">
<path fill-rule="evenodd" clip-rule="evenodd" d="M240.038 139.988C239.988 139.988 239.95 139.975 239.925 139.95L219.6 121.725L195.6 118.913C195.525 118.913 195.475 118.888 195.45 118.838C195.425 118.788 195.413 118.738 195.413 118.688L206.85 76.1251C206.875 76.0751 206.913 76.0376 206.963 76.0126C207.038 75.9751 207.113 76.0126 207.15 76.0501L232.463 96.4876C232.513 96.5126 232.538 96.5501 232.538 96.6001L240.225 139.725C240.225 139.75 240.225 139.775 240.225 139.8C240.225 139.913 240.15 139.988 240.038 139.988ZM195.825 118.575L219.713 121.388C219.763 121.388 219.8 121.4 219.825 121.425L239.775 139.313L232.163 96.7126L207.15 76.5001L195.825 118.575Z" fill="#27AAE1"/>
</g>
<g style="mix-blend-mode:color-dodge">
<path fill-rule="evenodd" clip-rule="evenodd" d="M160.687 63.15C160.662 63.15 160.65 63.15 160.65 63.15L139.087 54.0375C139.062 54.0375 139.05 54.0375 139.05 54.0375L119.662 37.35C119.612 37.3 119.587 37.2375 119.587 37.1625C119.587 37.1125 119.625 37.0625 119.7 37.0125L135.187 28.8C135.262 28.775 135.325 28.775 135.375 28.8L153.112 38.6625L174.337 32.1C174.387 32.1 174.437 32.1125 174.487 32.1375C174.537 32.1625 174.562 32.2 174.562 32.25L180.262 59.6625C180.262 59.7125 180.25 59.7625 180.225 59.8125C180.2 59.8625 180.162 59.8875 180.112 59.8875L160.725 63.15C160.725 63.15 160.712 63.15 160.687 63.15ZM139.275 53.7375L160.725 62.775L179.85 59.55L174.225 32.55L153.15 39.0375C153.1 39.0625 153.05 39.0625 153 39.0375L135.3 29.2125L120.112 37.2375L139.275 53.7375Z" fill="#27AAE1"/>
</g>
<g style="mix-blend-mode:color-dodge">
<path d="M149.137 115.012C146.862 115.012 144.587 114.937 142.312 114.787C127.65 113.887 113.812 110.1 103.387 104.062C91.0874 96.9749 84.3374 87.5249 84.3374 77.5124C84.3374 67.4624 91.0874 58.0124 103.387 50.9249C103.462 50.8874 103.575 50.9249 103.65 50.9999C103.687 51.1124 103.65 51.2249 103.575 51.2624C91.4249 58.2749 84.7124 67.6124 84.7124 77.5124C84.7124 87.4124 91.4249 96.7124 103.575 103.725C124.987 116.1 157.875 118.237 183.487 108.937C183.6 108.9 183.712 108.937 183.75 109.05C183.787 109.162 183.712 109.237 183.637 109.275C173.325 113.025 161.287 115.012 149.137 115.012Z" fill="url(#paint74_linear_334_2)"/>
</g>
<g style="mix-blend-mode:color-dodge">
<path d="M153.525 84.3752C136.313 84.3752 119.063 80.5877 105.975 73.0127C102.225 70.8752 98.9625 68.4752 96.225 65.8877C96.1125 65.8502 96.1125 65.7002 96.1875 65.6252C96.2625 65.5502 96.375 65.5502 96.45 65.6252C99.1875 68.1752 102.45 70.5752 106.163 72.7127C132.263 87.7877 174.788 87.7877 200.888 72.7127C214.088 65.0627 221.213 54.5627 220.388 43.8002C220.388 43.6877 220.463 43.6127 220.575 43.5752C220.688 43.5752 220.763 43.6502 220.763 43.7627C221.588 54.6752 214.425 65.3252 201.075 73.0127C187.988 80.5877 170.738 84.3752 153.525 84.3752Z" fill="url(#paint75_linear_334_2)"/>
</g>
<g style="mix-blend-mode:color-dodge">
<path d="M144.075 200.55C129.3 200.55 114.487 197.288 103.237 190.8C92.2499 184.463 86.2124 175.988 86.2124 166.988C86.2124 157.988 92.2499 149.55 103.237 143.213C110.587 138.938 119.775 135.938 129.787 134.475C130.012 134.438 130.2 134.588 130.237 134.775C130.275 134.963 130.125 135.188 129.9 135.188C120 136.65 110.887 139.65 103.612 143.85C92.8874 150.038 86.9624 158.25 86.9624 166.988C86.9624 175.725 92.8874 183.938 103.612 190.125C125.925 203.025 162.225 203.025 184.537 190.125C190.837 186.488 195.45 182.175 198.262 177.338C198.375 177.15 198.6 177.113 198.787 177.188C198.975 177.3 199.012 177.525 198.9 177.713C196.05 182.663 191.325 187.088 184.912 190.8C173.662 197.288 158.85 200.55 144.075 200.55Z" fill="url(#paint76_linear_334_2)"/>
</g>
<g style="mix-blend-mode:color-dodge" opacity="0.5">
<path d="M148.725 135.713V187.913C119.1 188.25 89.3249 181.875 66.7124 168.825C65.6999 168.225 64.6874 167.625 63.7124 167.025V114.825C64.6874 115.425 65.6999 116.025 66.7124 116.625C89.3249 129.675 119.1 136.05 148.725 135.713Z" fill="#5977FF"/>
</g>
<g style="mix-blend-mode:color-dodge" opacity="0.5">
<path d="M217.275 138.038V168.788C213.675 173.925 208.237 178.763 201 182.963C192.975 187.575 183.562 190.95 173.55 192.975V162.263C183.562 160.238 192.975 156.863 201 152.25C208.237 148.05 213.675 143.213 217.275 138.038Z" fill="#5977FF"/>
</g>
</g>
<defs>
<linearGradient id="paint0_linear_334_2" x1="98.9985" y1="209.968" x2="208.502" y2="209.968" gradientUnits="userSpaceOnUse">
<stop stop-color="#939598"/>
<stop offset="0.451" stop-color="#272425"/>
<stop offset="1" stop-color="#A7A9AC"/>
</linearGradient>
<linearGradient id="paint1_linear_334_2" x1="110.527" y1="219.35" x2="197.024" y2="219.35" gradientUnits="userSpaceOnUse">
<stop stop-color="white"/>
<stop offset="0.451" stop-color="#272425"/>
<stop offset="1" stop-color="#FCFDFF"/>
</linearGradient>
<linearGradient id="paint2_linear_334_2" x1="194.358" y1="174.643" x2="120.983" y2="132.28" gradientUnits="userSpaceOnUse">
<stop/>
<stop offset="0.257" stop-color="#070707"/>
<stop offset="1" stop-color="#A7A9AC"/>
</linearGradient>
<linearGradient id="paint3_linear_334_2" x1="156.82" y1="131.297" x2="130.72" y2="170.882" gradientUnits="userSpaceOnUse">
<stop stop-color="#324DE6"/>
<stop offset="1" stop-color="#F076C7"/>
</linearGradient>
<linearGradient id="paint4_linear_334_2" x1="132.683" y1="245.149" x2="132.683" y2="226.819" gradientUnits="userSpaceOnUse">
<stop stop-color="#567199"/>
<stop offset="1" stop-color="#162463"/>
</linearGradient>
<linearGradient id="paint5_linear_334_2" x1="136.47" y1="231.965" x2="150.113" y2="218.322" gradientUnits="userSpaceOnUse">
<stop stop-color="#567199"/>
<stop offset="1" stop-color="#162463"/>
</linearGradient>
<linearGradient id="paint6_linear_334_2" x1="187.753" y1="127.394" x2="188.498" y2="207.927" gradientUnits="userSpaceOnUse">
<stop stop-color="#324DE6"/>
<stop offset="1" stop-color="#F076C7"/>
</linearGradient>
<linearGradient id="paint7_linear_334_2" x1="187.514" y1="126.651" x2="188.268" y2="208.158" gradientUnits="userSpaceOnUse">
<stop stop-color="#324DE6"/>
<stop offset="1" stop-color="#F076C7"/>
</linearGradient>
<linearGradient id="paint8_linear_334_2" x1="148.452" y1="112.967" x2="148.452" y2="102.092" gradientUnits="userSpaceOnUse">
<stop stop-color="#D1D3D4"/>
<stop offset="1" stop-color="#939598"/>
</linearGradient>
<linearGradient id="paint9_linear_334_2" x1="146.247" y1="91.029" x2="164.326" y2="91.029" gradientUnits="userSpaceOnUse">
<stop stop-color="#939598"/>
<stop offset="0.731" stop-color="#BCBEC0"/>
<stop offset="1" stop-color="#989A9D"/>
</linearGradient>
<linearGradient id="paint10_linear_334_2" x1="154.898" y1="112.465" x2="162.979" y2="104.384" gradientUnits="userSpaceOnUse">
<stop stop-color="#F1F2F2"/>
<stop offset="1" stop-color="#939598"/>
</linearGradient>
<linearGradient id="paint11_linear_334_2" x1="144.15" y1="110.857" x2="157.922" y2="110.857" gradientUnits="userSpaceOnUse">
<stop stop-color="#A7A9AC"/>
<stop offset="1"/>
</linearGradient>
<linearGradient id="paint12_linear_334_2" x1="141.24" y1="110.401" x2="149.97" y2="110.401" gradientUnits="userSpaceOnUse">
<stop stop-color="#A7A9AC"/>
<stop offset="1"/>
</linearGradient>
<linearGradient id="paint13_linear_334_2" x1="136.051" y1="118.012" x2="147.539" y2="98.1138" gradientUnits="userSpaceOnUse">
<stop stop-color="#F1F2F2"/>
<stop offset="1" stop-color="#939598"/>
</linearGradient>
<linearGradient id="paint14_linear_334_2" x1="187.116" y1="139.205" x2="155.787" y2="186.721" gradientUnits="userSpaceOnUse">
<stop stop-color="#324DE6"/>
<stop offset="1" stop-color="#F076C7"/>
</linearGradient>
<radialGradient id="paint15_radial_334_2" cx="0" cy="0" r="1" gradientUnits="userSpaceOnUse" gradientTransform="translate(232.349 96.6172) scale(7.68975)">
<stop stop-color="white"/>
<stop offset="1"/>
</radialGradient>
<radialGradient id="paint16_radial_334_2" cx="0" cy="0" r="1" gradientUnits="userSpaceOnUse" gradientTransform="translate(96.1323 65.4919) scale(7.69012)">
<stop stop-color="white"/>
<stop offset="1"/>
</radialGradient>
<radialGradient id="paint17_radial_334_2" cx="0" cy="0" r="1" gradientUnits="userSpaceOnUse" gradientTransform="translate(198.588 177.596) scale(5.06437)">
<stop stop-color="white"/>
<stop offset="1"/>
</radialGradient>
<radialGradient id="paint18_radial_334_2" cx="0" cy="0" r="1" gradientUnits="userSpaceOnUse" gradientTransform="translate(180.082 59.714) scale(5.06437)">
<stop stop-color="white"/>
<stop offset="1"/>
</radialGradient>
<radialGradient id="paint19_radial_334_2" cx="0" cy="0" r="1" gradientUnits="userSpaceOnUse" gradientTransform="translate(118.411 189.78) scale(5.064 5.06399)">
<stop stop-color="white"/>
<stop offset="1"/>
</radialGradient>
<radialGradient id="paint20_radial_334_2" cx="0" cy="0" r="1" gradientUnits="userSpaceOnUse" gradientTransform="translate(80.6794 138.76) scale(4.59412)">
<stop stop-color="white"/>
<stop offset="1"/>
</radialGradient>
<radialGradient id="paint21_radial_334_2" cx="0" cy="0" r="1" gradientUnits="userSpaceOnUse" gradientTransform="translate(114.472 84.7387) scale(2.05238 2.05237)">
<stop stop-color="white"/>
<stop offset="1"/>
</radialGradient>
<radialGradient id="paint22_radial_334_2" cx="0" cy="0" r="1" gradientUnits="userSpaceOnUse" gradientTransform="translate(213.329 145.926) scale(2.05275 2.05275)">
<stop stop-color="white"/>
<stop offset="1"/>
</radialGradient>
<radialGradient id="paint23_radial_334_2" cx="0" cy="0" r="1" gradientUnits="userSpaceOnUse" gradientTransform="translate(200.641 60.2697) scale(2.05238 2.05237)">
<stop stop-color="white"/>
<stop offset="1"/>
</radialGradient>
<radialGradient id="paint24_radial_334_2" cx="0" cy="0" r="1" gradientUnits="userSpaceOnUse" gradientTransform="translate(96.1856 167.854) scale(2.05275)">
<stop stop-color="white"/>
<stop offset="1"/>
</radialGradient>
<radialGradient id="paint25_radial_334_2" cx="0" cy="0" r="1" gradientUnits="userSpaceOnUse" gradientTransform="translate(75.2333 70.7829) scale(2.05275 2.05275)">
<stop stop-color="white"/>
<stop offset="1"/>
</radialGradient>
<radialGradient id="paint26_radial_334_2" cx="0" cy="0" r="1" gradientUnits="userSpaceOnUse" gradientTransform="translate(171.101 147.979) scale(3.28013)">
<stop stop-color="white"/>
<stop offset="1"/>
</radialGradient>
<radialGradient id="paint27_radial_334_2" cx="0" cy="0" r="1" gradientUnits="userSpaceOnUse" gradientTransform="translate(245.921 169.906) scale(2.05275)">
<stop stop-color="white"/>
<stop offset="1"/>
</radialGradient>
<radialGradient id="paint28_radial_334_2" cx="0" cy="0" r="1" gradientUnits="userSpaceOnUse" gradientTransform="translate(249.227 68.7306) scale(2.05237)">
<stop stop-color="white"/>
<stop offset="1"/>
</radialGradient>
<radialGradient id="paint29_radial_334_2" cx="0" cy="0" r="1" gradientUnits="userSpaceOnUse" gradientTransform="translate(135.29 28.9809) scale(2.05238 2.05237)">
<stop stop-color="white"/>
<stop offset="1"/>
</radialGradient>
<radialGradient id="paint30_radial_334_2" cx="0" cy="0" r="1" gradientUnits="userSpaceOnUse" gradientTransform="translate(48.6414 96.6177) scale(2.05275 2.05275)">
<stop stop-color="white"/>
<stop offset="1"/>
</radialGradient>
<radialGradient id="paint31_radial_334_2" cx="0" cy="0" r="1" gradientUnits="userSpaceOnUse" gradientTransform="translate(195.605 118.742) scale(1.25963)">
<stop stop-color="white"/>
<stop offset="1"/>
</radialGradient>
<radialGradient id="paint32_radial_334_2" cx="0" cy="0" r="1" gradientUnits="userSpaceOnUse" gradientTransform="translate(103.822 118.742) scale(1.25963)">
<stop stop-color="white"/>
<stop offset="1"/>
</radialGradient>
<radialGradient id="paint33_radial_334_2" cx="0" cy="0" r="1" gradientUnits="userSpaceOnUse" gradientTransform="translate(110.496 141.074) scale(1.25963 1.25963)">
<stop stop-color="white"/>
<stop offset="1"/>
</radialGradient>
<radialGradient id="paint34_radial_334_2" cx="0" cy="0" r="1" gradientUnits="userSpaceOnUse" gradientTransform="translate(228.128 50.9084) scale(1.25963)">
<stop stop-color="white"/>
<stop offset="1"/>
</radialGradient>
<radialGradient id="paint35_radial_334_2" cx="0" cy="0" r="1" gradientUnits="userSpaceOnUse" gradientTransform="translate(76.493 43.5993) scale(1.25962)">
<stop stop-color="white"/>
<stop offset="1"/>
</radialGradient>
<radialGradient id="paint36_radial_334_2" cx="0" cy="0" r="1" gradientUnits="userSpaceOnUse" gradientTransform="translate(219.688 121.563) scale(1.25963)">
<stop stop-color="white"/>
<stop offset="1"/>
</radialGradient>
<radialGradient id="paint37_radial_334_2" cx="0" cy="0" r="1" gradientUnits="userSpaceOnUse" gradientTransform="translate(167.821 177.596) scale(1.25962)">
<stop stop-color="white"/>
<stop offset="1"/>
</radialGradient>
<radialGradient id="paint38_radial_334_2" cx="0" cy="0" r="1" gradientUnits="userSpaceOnUse" gradientTransform="translate(125.65 138.617) scale(1.25962 1.25963)">
<stop stop-color="white"/>
<stop offset="1"/>
</radialGradient>
<radialGradient id="paint39_radial_334_2" cx="0" cy="0" r="1" gradientUnits="userSpaceOnUse" gradientTransform="translate(219.688 175.162) scale(1.25925 1.25925)">
<stop stop-color="white"/>
<stop offset="1"/>
</radialGradient>
<radialGradient id="paint40_radial_334_2" cx="0" cy="0" r="1" gradientUnits="userSpaceOnUse" gradientTransform="translate(253.447 132.567) scale(1.25963 1.25962)">
<stop stop-color="white"/>
<stop offset="1"/>
</radialGradient>
<radialGradient id="paint41_radial_334_2" cx="0" cy="0" r="1" gradientUnits="userSpaceOnUse" gradientTransform="translate(69.8242 117.483) scale(1.25963 1.25963)">
<stop stop-color="white"/>
<stop offset="1"/>
</radialGradient>
<radialGradient id="paint42_radial_334_2" cx="0" cy="0" r="1" gradientUnits="userSpaceOnUse" gradientTransform="translate(207.029 76.1811) scale(1.25925 1.25925)">
<stop stop-color="white"/>
<stop offset="1"/>
</radialGradient>
<radialGradient id="paint43_radial_334_2" cx="0" cy="0" r="1" gradientUnits="userSpaceOnUse" gradientTransform="translate(174.382 32.2929) scale(1.25962 1.25962)">
<stop stop-color="white"/>
<stop offset="1"/>
</radialGradient>
<radialGradient id="paint44_radial_334_2" cx="0" cy="0" r="1" gradientUnits="userSpaceOnUse" gradientTransform="translate(85.2731 98.6702) scale(1.25963 1.25963)">
<stop stop-color="white"/>
<stop offset="1"/>
</radialGradient>
<radialGradient id="paint45_radial_334_2" cx="0" cy="0" r="1" gradientUnits="userSpaceOnUse" gradientTransform="translate(67.7718 158.492) scale(2.05275)">
<stop stop-color="white"/>
<stop offset="1"/>
</radialGradient>
<radialGradient id="paint46_radial_334_2" cx="0" cy="0" r="1" gradientUnits="userSpaceOnUse" gradientTransform="translate(240.038 139.815) rotate(90) scale(6.24862 6.24862)">
<stop stop-color="white"/>
<stop offset="1"/>
</radialGradient>
<radialGradient id="paint47_radial_334_2" cx="0" cy="0" r="1" gradientUnits="userSpaceOnUse" gradientTransform="translate(183.569 109.251) rotate(90) scale(4.11525)">
<stop stop-color="white"/>
<stop offset="1"/>
</radialGradient>
<radialGradient id="paint48_radial_334_2" cx="0" cy="0" r="1" gradientUnits="userSpaceOnUse" gradientTransform="translate(116.525 102.785) rotate(90) scale(4.11525 4.11525)">
<stop stop-color="white"/>
<stop offset="1"/>
</radialGradient>
<radialGradient id="paint49_radial_334_2" cx="0" cy="0" r="1" gradientUnits="userSpaceOnUse" gradientTransform="translate(139.16 53.8797) rotate(90) scale(3.7335 3.7335)">
<stop stop-color="white"/>
<stop offset="1"/>
</radialGradient>
<radialGradient id="paint50_radial_334_2" cx="0" cy="0" r="1" gradientUnits="userSpaceOnUse" gradientTransform="translate(179.707 75.1417) rotate(90) scale(1.668 1.668)">
<stop stop-color="white"/>
<stop offset="1"/>
</radialGradient>
<radialGradient id="paint51_radial_334_2" cx="0" cy="0" r="1" gradientUnits="userSpaceOnUse" gradientTransform="translate(129.983 155.477) rotate(90) scale(1.668)">
<stop stop-color="white"/>
<stop offset="1"/>
</radialGradient>
<radialGradient id="paint52_radial_334_2" cx="0" cy="0" r="1" gradientUnits="userSpaceOnUse" gradientTransform="translate(199.591 145.167) rotate(90) scale(1.66837 1.66838)">
<stop stop-color="white"/>
<stop offset="1"/>
</radialGradient>
<radialGradient id="paint53_radial_334_2" cx="0" cy="0" r="1" gradientUnits="userSpaceOnUse" gradientTransform="translate(112.164 60.2814) rotate(90) scale(1.668)">
<stop stop-color="white"/>
<stop offset="1"/>
</radialGradient>
<radialGradient id="paint54_radial_334_2" cx="0" cy="0" r="1" gradientUnits="userSpaceOnUse" gradientTransform="translate(191.048 43.2543) rotate(90) scale(1.66838 1.66838)">
<stop stop-color="white"/>
<stop offset="1"/>
</radialGradient>
<radialGradient id="paint55_radial_334_2" cx="0" cy="0" r="1" gradientUnits="userSpaceOnUse" gradientTransform="translate(128.315 121.162) rotate(90) scale(2.6655 2.6655)">
<stop stop-color="white"/>
<stop offset="1"/>
</radialGradient>
<radialGradient id="paint56_radial_334_2" cx="0" cy="0" r="1" gradientUnits="userSpaceOnUse" gradientTransform="translate(110.496 181.964) rotate(90) scale(1.66838 1.66837)">
<stop stop-color="white"/>
<stop offset="1"/>
</radialGradient>
<radialGradient id="paint57_radial_334_2" cx="0" cy="0" r="1" gradientUnits="userSpaceOnUse" gradientTransform="translate(213.14 200.128) rotate(90) scale(1.66837)">
<stop stop-color="white"/>
<stop offset="1"/>
</radialGradient>
<radialGradient id="paint58_radial_334_2" cx="0" cy="0" r="1" gradientUnits="userSpaceOnUse" gradientTransform="translate(225.018 92.0595) rotate(90) scale(1.66762 1.66763)">
<stop stop-color="white"/>
<stop offset="1"/>
</radialGradient>
<radialGradient id="paint59_radial_334_2" cx="0" cy="0" r="1" gradientUnits="userSpaceOnUse" gradientTransform="translate(170.053 21.6448) rotate(90) scale(1.66838 1.66837)">
<stop stop-color="white"/>
<stop offset="1"/>
</radialGradient>
<radialGradient id="paint60_radial_334_2" cx="0" cy="0" r="1" gradientUnits="userSpaceOnUse" gradientTransform="translate(152.074 141.075) rotate(90) scale(1.02375 1.02375)">
<stop stop-color="white"/>
<stop offset="1"/>
</radialGradient>
<radialGradient id="paint61_radial_334_2" cx="0" cy="0" r="1" gradientUnits="userSpaceOnUse" gradientTransform="translate(160.705 62.9731) rotate(90) scale(1.02375)">
<stop stop-color="white"/>
<stop offset="1"/>
</radialGradient>
<radialGradient id="paint62_radial_334_2" cx="0" cy="0" r="1" gradientUnits="userSpaceOnUse" gradientTransform="translate(119.757 74.497) rotate(90) scale(1.02375)">
<stop stop-color="white"/>
<stop offset="1"/>
</radialGradient>
<radialGradient id="paint63_radial_334_2" cx="0" cy="0" r="1" gradientUnits="userSpaceOnUse" gradientTransform="translate(207.199 167.503) rotate(90) scale(1.02375)">
<stop stop-color="white"/>
<stop offset="1"/>
</radialGradient>
<radialGradient id="paint64_radial_334_2" cx="0" cy="0" r="1" gradientUnits="userSpaceOnUse" gradientTransform="translate(149.782 160.646) rotate(90) scale(1.02375)">
<stop stop-color="white"/>
<stop offset="1"/>
</radialGradient>
<radialGradient id="paint65_radial_334_2" cx="0" cy="0" r="1" gradientUnits="userSpaceOnUse" gradientTransform="translate(159.682 110.405) rotate(90) scale(1.02337)">
<stop stop-color="white"/>
<stop offset="1"/>
</radialGradient>
<radialGradient id="paint66_radial_334_2" cx="0" cy="0" r="1" gradientUnits="userSpaceOnUse" gradientTransform="translate(143.917 85.4239) rotate(90) scale(1.02375 1.02375)">
<stop stop-color="white"/>
<stop offset="1"/>
</radialGradient>
<radialGradient id="paint67_radial_334_2" cx="0" cy="0" r="1" gradientUnits="userSpaceOnUse" gradientTransform="translate(106.224 160.646) rotate(90) scale(1.02337 1.02338)">
<stop stop-color="white"/>
<stop offset="1"/>
</radialGradient>
<radialGradient id="paint68_radial_334_2" cx="0" cy="0" r="1" gradientUnits="userSpaceOnUse" gradientTransform="translate(140.839 188.079) rotate(90) scale(1.02338)">
<stop stop-color="white"/>
<stop offset="1"/>
</radialGradient>
<radialGradient id="paint69_radial_334_2" cx="0" cy="0" r="1" gradientUnits="userSpaceOnUse" gradientTransform="translate(153.097 38.8589) rotate(90) scale(1.02375)">
<stop stop-color="white"/>
<stop offset="1"/>
</radialGradient>
<radialGradient id="paint70_radial_334_2" cx="0" cy="0" r="1" gradientUnits="userSpaceOnUse" gradientTransform="translate(186.661 150.357) rotate(90) scale(1.02375)">
<stop stop-color="white"/>
<stop offset="1"/>
</radialGradient>
<radialGradient id="paint71_radial_334_2" cx="0" cy="0" r="1" gradientUnits="userSpaceOnUse" gradientTransform="translate(232.348 145.926) rotate(90) scale(1.02412 1.02412)">
<stop stop-color="white"/>
<stop offset="1"/>
</radialGradient>
<radialGradient id="paint72_radial_334_2" cx="0" cy="0" r="1" gradientUnits="userSpaceOnUse" gradientTransform="translate(215.293 31.3164) rotate(90) scale(1.02375 1.02374)">
<stop stop-color="white"/>
<stop offset="1"/>
</radialGradient>
<radialGradient id="paint73_radial_334_2" cx="0" cy="0" r="1" gradientUnits="userSpaceOnUse" gradientTransform="translate(119.772 37.1907) rotate(90) scale(1.668 1.668)">
<stop stop-color="white"/>
<stop offset="1"/>
</radialGradient>
<linearGradient id="paint74_linear_334_2" x1="166.165" y1="145.477" x2="63.8546" y2="86.4076" gradientUnits="userSpaceOnUse">
<stop stop-color="#A7A9AC"/>
<stop offset="1"/>
</linearGradient>
<linearGradient id="paint75_linear_334_2" x1="96.1474" y1="84.382" x2="220.834" y2="84.382" gradientUnits="userSpaceOnUse">
<stop stop-color="#A7A9AC"/>
<stop offset="1"/>
</linearGradient>
<linearGradient id="paint76_linear_334_2" x1="180.03" y1="233.326" x2="66.8572" y2="167.985" gradientUnits="userSpaceOnUse">
<stop stop-color="#A7A9AC"/>
<stop offset="1"/>
</linearGradient>
<clipPath id="clip0_334_2">
<rect width="300" height="300" fill="white"/>
</clipPath>
</defs>
</svg>
