<svg version="1.2"
	xmlns="http://www.w3.org/2000/svg" viewBox="0 0 1400 800" width="1400" height="800">
	<title>carFuture</title>
	<defs>
		<radialGradient id="g1" cx="0" cy="0" r="1" gradientUnits="userSpaceOnUse" gradientTransform="matrix(83.631,0,0,83.631,1193.356,386.103)">
			<stop offset=".006" stop-color="#ff388b"/>
			<stop offset=".978" stop-color="#b62a9e"/>
		</radialGradient>
		<linearGradient id="g2" x2="1" gradientUnits="userSpaceOnUse" gradientTransform="matrix(38.596,0,0,21.631,1225.392,384.058)">
			<stop offset="0" stop-color="#31113b"/>
			<stop offset="1" stop-color="#925160"/>
		</linearGradient>
		<radialGradient id="g3" cx="0" cy="0" r="1" gradientUnits="userSpaceOnUse" gradientTransform="matrix(88.449,0,0,88.449,174.55,580.336)">
			<stop offset=".022" stop-color="#523e63"/>
			<stop offset=".994" stop-color="#3e1b40"/>
		</radialGradient>
		<radialGradient id="g4" cx="0" cy="0" r="1" gradientUnits="userSpaceOnUse" gradientTransform="matrix(103.484,0,0,103.484,636.954,565.345)">
			<stop offset=".022" stop-color="#523e63"/>
			<stop offset=".994" stop-color="#3e1b40"/>
		</radialGradient>
		<radialGradient id="g5" cx="0" cy="0" r="1" gradientUnits="userSpaceOnUse" gradientTransform="matrix(103.484,0,0,103.484,1134.096,565.345)">
			<stop offset=".022" stop-color="#523e63"/>
			<stop offset=".994" stop-color="#3e1b40"/>
		</radialGradient>
		<radialGradient id="g6" cx="0" cy="0" r="1" gradientUnits="userSpaceOnUse" gradientTransform="matrix(103.484,0,0,103.484,892.57,556.935)">
			<stop offset=".022" stop-color="#523e63"/>
			<stop offset=".994" stop-color="#3e1b40"/>
		</radialGradient>
		<radialGradient id="g7" cx="0" cy="0" r="1" gradientUnits="userSpaceOnUse" gradientTransform="matrix(437.281,0,0,437.281,332.624,468.588)">
			<stop offset=".006" stop-color="#9f2483"/>
			<stop offset=".978" stop-color="#8b1383"/>
		</radialGradient>
		<radialGradient id="g8" cx="0" cy="0" r="1" gradientUnits="userSpaceOnUse" gradientTransform="matrix(310.981,0,0,310.981,295.717,453.128)">
			<stop offset=".006" stop-color="#f53889"/>
			<stop offset=".978" stop-color="#ae1393"/>
		</radialGradient>
		<linearGradient id="g9" x2="1" gradientUnits="userSpaceOnUse" gradientTransform="matrix(-18.03,-123.507,479.719,-70.03,956.843,509.287)">
			<stop offset="0" stop-color="#a7738d"/>
			<stop offset="1" stop-color="#f7f3f8"/>
		</linearGradient>
		<radialGradient id="g10" cx="0" cy="0" r="1" gradientUnits="userSpaceOnUse" gradientTransform="matrix(125.024,0,0,125.024,141.16,475.593)">
			<stop offset=".006" stop-color="#ff388b"/>
			<stop offset=".978" stop-color="#b62a9e"/>
		</radialGradient>
		<linearGradient id="g11" x2="1" gradientUnits="userSpaceOnUse" gradientTransform="matrix(-29.806,-204.177,402.279,-58.726,321.959,652.44)">
			<stop offset="0" stop-color="#7b2d54"/>
			<stop offset="1" stop-color="#f7f3f8"/>
		</linearGradient>
		<radialGradient id="g12" cx="0" cy="0" r="1" gradientUnits="userSpaceOnUse" gradientTransform="matrix(232.356,0,0,232.356,833.49,432.489)">
			<stop offset=".011" stop-color="#fbd7d2"/>
			<stop offset="1" stop-color="#a49ac4"/>
		</radialGradient>
		<radialGradient id="g13" cx="0" cy="0" r="1" gradientUnits="userSpaceOnUse" gradientTransform="matrix(307.771,0,0,307.771,405.996,368.957)">
			<stop offset=".022" stop-color="#523e63"/>
			<stop offset=".994" stop-color="#3e1b40"/>
		</radialGradient>
		<radialGradient id="g14" cx="0" cy="0" r="1" gradientUnits="userSpaceOnUse" gradientTransform="matrix(144.003,0,0,144.003,953.552,366.221)">
			<stop offset=".022" stop-color="#37204b"/>
			<stop offset=".994" stop-color="#3a163c"/>
		</radialGradient>
		<linearGradient id="g15" x2="1" gradientUnits="userSpaceOnUse" gradientTransform="matrix(-28.284,-193.746,60.988,-8.903,1029.417,637.616)">
			<stop offset="0" stop-color="#a7738d"/>
			<stop offset="1" stop-color="#f7f3f8"/>
		</linearGradient>
		<radialGradient id="g16" cx="0" cy="0" r="1" gradientUnits="userSpaceOnUse" gradientTransform="matrix(68.255,0,0,68.255,1149.655,495.771)">
			<stop offset="0" stop-color="#ff60d3"/>
			<stop offset="1" stop-color="#000000"/>
		</radialGradient>
		<radialGradient id="g17" cx="0" cy="0" r="1" gradientUnits="userSpaceOnUse" gradientTransform="matrix(85.31,0,0,85.31,672.752,519.71)">
			<stop offset="0" stop-color="#a4596a"/>
			<stop offset="1" stop-color="#4f0045"/>
		</radialGradient>
		<radialGradient id="g18" cx="0" cy="0" r="1" gradientUnits="userSpaceOnUse" gradientTransform="matrix(80.659,0,0,80.659,1156.457,513.075)">
			<stop offset="0" stop-color="#a4596a"/>
			<stop offset="1" stop-color="#4f0045"/>
		</radialGradient>
		<linearGradient id="g19" x2="1" gradientUnits="userSpaceOnUse" gradientTransform="matrix(297.697,0,0,11.213,787.187,589.063)">
			<stop offset="0" stop-color="#a7738d"/>
			<stop offset="1" stop-color="#f7f3f8"/>
		</linearGradient>
		<radialGradient id="g20" cx="0" cy="0" r="1" gradientUnits="userSpaceOnUse" gradientTransform="matrix(101.26,0,0,101.26,942.139,574.295)">
			<stop offset="0" stop-color="#a4596a"/>
			<stop offset="1" stop-color="#4f0045"/>
		</radialGradient>
		<radialGradient id="g21" cx="0" cy="0" r="1" gradientUnits="userSpaceOnUse" gradientTransform="matrix(196.297,0,0,196.297,213.358,571.626)">
			<stop offset=".022" stop-color="#37204b"/>
			<stop offset=".994" stop-color="#3a163c"/>
		</radialGradient>
		<radialGradient id="g22" cx="0" cy="0" r="1" gradientUnits="userSpaceOnUse" gradientTransform="matrix(-38.583,-6.258,6.258,-38.583,732.642,546.679)">
			<stop offset=".022" stop-color="#523e63"/>
			<stop offset=".994" stop-color="#3e1b40"/>
		</radialGradient>
		<radialGradient id="g23" cx="0" cy="0" r="1" gradientUnits="userSpaceOnUse" gradientTransform="matrix(-25.94,-4.207,4.207,-25.94,739.01,551.15)">
			<stop offset=".022" stop-color="#5246c9"/>
			<stop offset=".994" stop-color="#4f2f75"/>
		</radialGradient>
		<radialGradient id="g24" cx="0" cy="0" r="1" gradientUnits="userSpaceOnUse" gradientTransform="matrix(-36.572,-5.932,5.932,-36.572,1212.159,546.666)">
			<stop offset=".022" stop-color="#523e63"/>
			<stop offset=".994" stop-color="#3e1b40"/>
		</radialGradient>
		<radialGradient id="g25" cx="0" cy="0" r="1" gradientUnits="userSpaceOnUse" gradientTransform="matrix(-24.589,-3.988,3.988,-24.589,1218.195,550.905)">
			<stop offset=".022" stop-color="#5246c9"/>
			<stop offset=".994" stop-color="#4f2f75"/>
		</radialGradient>
		<linearGradient id="g26" x2="1" gradientUnits="userSpaceOnUse" gradientTransform="matrix(-21.317,-146.024,455.956,-66.561,950.704,534.498)">
			<stop offset="0" stop-color="#a7738d"/>
			<stop offset="1" stop-color="#f7f3f8"/>
		</linearGradient>
		<linearGradient id="g27" x2="1" gradientUnits="userSpaceOnUse" gradientTransform="matrix(65.199,0,0,16.93,633.291,508.977)">
			<stop offset="0" stop-color="#31113b"/>
			<stop offset="1" stop-color="#925160"/>
		</linearGradient>
		<linearGradient id="g28" x2="1" gradientUnits="userSpaceOnUse" gradientTransform="matrix(34.481,0,0,16.54,758.356,504.751)">
			<stop offset="0" stop-color="#31113b"/>
			<stop offset="1" stop-color="#925160"/>
		</linearGradient>
		<linearGradient id="g29" x2="1" gradientUnits="userSpaceOnUse" gradientTransform="matrix(196.364,0,0,16.261,795.369,503.544)">
			<stop offset="0" stop-color="#925160"/>
			<stop offset="1" stop-color="#31113b"/>
		</linearGradient>
		<linearGradient id="g30" x2="1" gradientUnits="userSpaceOnUse" gradientTransform="matrix(95.455,0,0,36.274,994.46,503.349)">
			<stop offset="0" stop-color="#31113b"/>
			<stop offset="1" stop-color="#925160"/>
		</linearGradient>
		<linearGradient id="g31" x2="1" gradientUnits="userSpaceOnUse" gradientTransform="matrix(70.39,0,0,21.503,1114.46,506.925)">
			<stop offset="0" stop-color="#31113b"/>
			<stop offset="1" stop-color="#925160"/>
		</linearGradient>
		<linearGradient id="g32" x2="1" gradientUnits="userSpaceOnUse" gradientTransform="matrix(19.86,0,0,12.111,1244.128,511.859)">
			<stop offset="0" stop-color="#31113b"/>
			<stop offset="1" stop-color="#925160"/>
		</linearGradient>
		<linearGradient id="g33" x2="1" gradientUnits="userSpaceOnUse" gradientTransform="matrix(269.722,0,0,30.677,251.053,457.201)">
			<stop offset="0" stop-color="#31113b"/>
			<stop offset="1" stop-color="#925160"/>
		</linearGradient>
		<linearGradient id="g34" x2="1" gradientUnits="userSpaceOnUse" gradientTransform="matrix(280.069,0,0,37.17,207.192,553.937)">
			<stop offset="0" stop-color="#f7f3f8"/>
			<stop offset="1" stop-color="#a7738d"/>
		</linearGradient>
		<linearGradient id="g35" x2="1" gradientUnits="userSpaceOnUse" gradientTransform="matrix(-22.157,-151.776,668.202,-97.546,640.61,434.342)">
			<stop offset="0" stop-color="#31113b"/>
			<stop offset="1" stop-color="#925160"/>
		</linearGradient>
		<radialGradient id="g36" cx="0" cy="0" r="1" gradientUnits="userSpaceOnUse" gradientTransform="matrix(34.601,0,0,34.601,898.467,583.228)">
			<stop offset="0" stop-color="#a4596a"/>
			<stop offset="1" stop-color="#4f0045"/>
		</radialGradient>
		<linearGradient id="g37" x2="1" gradientUnits="userSpaceOnUse" gradientTransform="matrix(37.652,0,0,36.718,682.758,464.728)">
			<stop offset="0" stop-color="#31113b"/>
			<stop offset="1" stop-color="#925160"/>
		</linearGradient>
		<linearGradient id="g38" x2="1" gradientUnits="userSpaceOnUse" gradientTransform="matrix(85.542,0,0,21.052,115.825,425.534)">
			<stop offset="0" stop-color="#cc7e86"/>
			<stop offset="1" stop-color="#4f0045"/>
		</linearGradient>
		<linearGradient id="g39" x2="1" gradientUnits="userSpaceOnUse" gradientTransform="matrix(128.853,0,0,33.495,818.415,425.275)">
			<stop offset="0" stop-color="#925160"/>
			<stop offset="1" stop-color="#31113b"/>
		</linearGradient>
		<linearGradient id="g40" x2="1" gradientUnits="userSpaceOnUse" gradientTransform="matrix(-31.739,-217.414,289.121,-42.207,589.257,639.281)">
			<stop offset="0" stop-color="#a19cd1"/>
			<stop offset="1" stop-color="#a7738d"/>
		</linearGradient>
		<radialGradient id="g41" cx="0" cy="0" r="1" gradientUnits="userSpaceOnUse" gradientTransform="matrix(136.095,0,0,136.095,566.748,472.321)">
			<stop offset=".006" stop-color="#ff388b"/>
			<stop offset=".978" stop-color="#b62a9e"/>
		</radialGradient>
		<linearGradient id="g42" x2="1" gradientUnits="userSpaceOnUse" gradientTransform="matrix(109.886,0,0,20.672,530.434,448.938)">
			<stop offset="0" stop-color="#31113b"/>
			<stop offset="1" stop-color="#925160"/>
		</linearGradient>
		<linearGradient id="g43" x2="1" gradientUnits="userSpaceOnUse" gradientTransform="matrix(68.321,0,0,84.222,557.582,522.992)">
			<stop offset="0" stop-color="#31113b"/>
			<stop offset="1" stop-color="#925160"/>
		</linearGradient>
		<radialGradient id="g44" cx="0" cy="0" r="1" gradientUnits="userSpaceOnUse" gradientTransform="matrix(68.254,0,0,68.254,572.081,490.031)">
			<stop offset="0" stop-color="#ff60d3"/>
			<stop offset="1" stop-color="#000000"/>
		</radialGradient>
		<radialGradient id="g45" cx="0" cy="0" r="1" gradientUnits="userSpaceOnUse" gradientTransform="matrix(7.322,0,0,7.322,994.834,523.699)">
			<stop offset=".006" stop-color="#ff9a65"/>
			<stop offset=".557" stop-color="#ff3885"/>
			<stop offset=".978" stop-color="#b62a9e"/>
		</radialGradient>
		<radialGradient id="g46" cx="0" cy="0" r="1" gradientUnits="userSpaceOnUse" gradientTransform="matrix(5.854,0,0,5.854,994.759,522.752)">
			<stop offset=".011" stop-color="#fbff59"/>
			<stop offset="1" stop-color="#ffa46a"/>
		</radialGradient>
		<radialGradient id="g47" cx="0" cy="0" r="1" gradientUnits="userSpaceOnUse" gradientTransform="matrix(7.92,-22.529,22.529,7.92,994.46,518.225)">
			<stop offset="0" stop-color="#ff333d"/>
			<stop offset="1" stop-color="#000000"/>
		</radialGradient>
		<linearGradient id="g48" x2="1" gradientUnits="userSpaceOnUse" gradientTransform="matrix(-16.437,-112.599,150.995,-22.043,1035.764,420.667)">
			<stop offset="0" stop-color="#31113b"/>
			<stop offset="1" stop-color="#925160"/>
		</linearGradient>
		<linearGradient id="g49" x2="1" gradientUnits="userSpaceOnUse" gradientTransform="matrix(-25.586,-175.271,42.098,-6.146,489.086,648.396)">
			<stop offset="0" stop-color="#a7738d"/>
			<stop offset="1" stop-color="#f7f3f8"/>
		</linearGradient>
		<radialGradient id="g50" cx="0" cy="0" r="1" gradientUnits="userSpaceOnUse" gradientTransform="matrix(19.962,-56.781,56.781,19.962,233.519,493.414)">
			<stop offset="0" stop-color="#005bff"/>
			<stop offset="1" stop-color="#000000"/>
		</radialGradient>
		<radialGradient id="g51" cx="0" cy="0" r="1" gradientUnits="userSpaceOnUse" gradientTransform="matrix(-17.911,-54.471,54.471,-17.911,497.06,503.544)">
			<stop offset="0" stop-color="#005bff"/>
			<stop offset="1" stop-color="#000000"/>
		</radialGradient>
		<linearGradient id="g52" x2="1" gradientUnits="userSpaceOnUse" gradientTransform="matrix(227.614,0,0,9.972,379.168,414.754)">
			<stop offset="0" stop-color="#31113b"/>
			<stop offset="1" stop-color="#925160"/>
		</linearGradient>
		<linearGradient id="g53" x2="1" gradientUnits="userSpaceOnUse" gradientTransform="matrix(20.747,0,0,55.289,999.314,435.286)">
			<stop offset="0" stop-color="#31113b"/>
			<stop offset="1" stop-color="#925160"/>
		</linearGradient>
		<radialGradient id="g54" cx="0" cy="0" r="1" gradientUnits="userSpaceOnUse" gradientTransform="matrix(2.912,-59.86,59.86,2.912,732.231,549.216)">
			<stop offset="0" stop-color="#005bff"/>
			<stop offset="1" stop-color="#000000"/>
		</radialGradient>
		<radialGradient id="g55" cx="0" cy="0" r="1" gradientUnits="userSpaceOnUse" gradientTransform="matrix(2.912,-59.859,59.859,2.912,1217.909,537.806)">
			<stop offset="0" stop-color="#005bff"/>
			<stop offset="1" stop-color="#000000"/>
		</radialGradient>
		<linearGradient id="g56" x2="1" gradientUnits="userSpaceOnUse" gradientTransform="matrix(136.239,0,0,105.344,758.344,308.802)">
			<stop offset="0" stop-color="#a19cd1"/>
			<stop offset="1" stop-color="#a7738d"/>
		</linearGradient>
	</defs>
	<style>
		.s0 { fill: #6a1a53 }
		.s1 { fill: url(#g1) }
		.s2 { fill: #9a285e }
		.s3 { fill: #ed61af }
		.s4 { mix-blend-mode: screen;fill: url(#g2) }
		.s5 { fill: #ffffff }
		.s6 { fill: url(#g3) }
		.s7 { fill: url(#g4) }
		.s8 { fill: url(#g5) }
		.s9 { fill: url(#g6) }
		.s10 { fill: url(#g7) }
		.s11 { fill: url(#g8) }
		.s12 { mix-blend-mode: multiply;fill: url(#g9) }
		.s13 { fill: url(#g10) }
		.s14 { opacity: .5;mix-blend-mode: multiply;fill: url(#g11) }
		.s15 { fill: url(#g12) }
		.s16 { fill: url(#g13) }
		.s17 { opacity: .8;fill: #ffffff }
		.s18 { fill: url(#g14) }
		.s19 { fill: #fb61b0 }
		.s20 { fill: #9a195e }
		.s21 { mix-blend-mode: multiply;fill: url(#g15) }
		.s22 { opacity: .5;mix-blend-mode: screen;fill: url(#g16) }
		.s23 { opacity: .8;mix-blend-mode: screen;fill: url(#g17) }
		.s24 { opacity: .8;mix-blend-mode: screen;fill: url(#g18) }
		.s25 { mix-blend-mode: multiply;fill: url(#g19) }
		.s26 { opacity: .8;mix-blend-mode: screen;fill: url(#g20) }
		.s27 { fill: url(#g21) }
		.s28 { fill: url(#g22) }
		.s29 { fill: url(#g23) }
		.s30 { fill: url(#g24) }
		.s31 { fill: url(#g25) }
		.s32 { mix-blend-mode: multiply;fill: url(#g26) }
		.s33 { mix-blend-mode: screen;fill: url(#g27) }
		.s34 { mix-blend-mode: screen;fill: url(#g28) }
		.s35 { mix-blend-mode: screen;fill: url(#g29) }
		.s36 { mix-blend-mode: screen;fill: url(#g30) }
		.s37 { mix-blend-mode: screen;fill: url(#g31) }
		.s38 { mix-blend-mode: screen;fill: url(#g32) }
		.s39 { mix-blend-mode: screen;fill: url(#g33) }
		.s40 { mix-blend-mode: multiply;fill: url(#g34) }
		.s41 { opacity: .5;mix-blend-mode: screen;fill: url(#g35) }
		.s42 { opacity: .8;mix-blend-mode: screen;fill: url(#g36) }
		.s43 { mix-blend-mode: screen;fill: url(#g37) }
		.s44 { opacity: .8;mix-blend-mode: screen;fill: url(#g38) }
		.s45 { mix-blend-mode: soft-light;fill: #ffffff }
		.s46 { mix-blend-mode: screen;fill: url(#g39) }
		.s47 { mix-blend-mode: multiply;fill: url(#g40) }
		.s48 { fill: url(#g41) }
		.s49 { mix-blend-mode: screen;fill: url(#g42) }
		.s50 { mix-blend-mode: screen;fill: url(#g43) }
		.s51 { opacity: .5;mix-blend-mode: screen;fill: url(#g44) }
		.s52 { fill: url(#g45) }
		.s53 { fill: url(#g46) }
		.s54 { mix-blend-mode: screen;fill: url(#g47) }
		.s55 { opacity: .5;mix-blend-mode: screen;fill: url(#g48) }
		.s56 { mix-blend-mode: multiply;fill: url(#g49) }
		.s57 { mix-blend-mode: screen;fill: url(#g50) }
		.s58 { mix-blend-mode: screen;fill: url(#g51) }
		.s59 { mix-blend-mode: screen;fill: url(#g52) }
		.s60 { mix-blend-mode: screen;fill: url(#g53) }
		.s61 { mix-blend-mode: screen;fill: url(#g54) }
		.s62 { mix-blend-mode: screen;fill: url(#g55) }
		.s63 { mix-blend-mode: multiply;fill: url(#g56) }
	</style>
	<path class="s0" d="m1260.3 398.8l-20.3 60.5-35.8-25.1 8-17.7z"/>
	<path class="s1" d="m1199.8 424.3c0 0 56.2-39 99.9-54.5l-134.1-3.6c0 0-67.1 20-80.9 50.3z"/>
	<path class="s2" d="m1299.7 369.8v27.4l-15-9c0 0-32.8 9-69.2 43.2l-15.7-7.1c0 0 41.7-35.9 99.9-54.5z"/>
	<path class="s3" d="m1165.6 366.2l70.9 32.6c0 0 31.7-19.5 63.2-29z"/>
	<path class="s4" d="m1225.4 405.7c0 0 10.8-19.4 38.6-21.6 0 0-22.7 10.5-38.6 21.6z"/>
	<path class="s5" d="m1240 396.9c0 0 3.3-17 24-12.8z"/>
	<path class="s6" d="m226.7 632.5c-33.7 0-61-27.3-61-61 0-33.8 27.3-61 61-61 33.7 0 60.9 27.2 60.9 61 0 33.7-27.2 61-60.9 61z"/>
	<path class="s7" d="m697.9 632.5c-39.4 0-71.3-35.1-71.3-78.6 0-43.4 31.9-78.5 71.3-78.5 39.5 0 71.4 35.1 71.4 78.5 0 43.5-31.9 78.6-71.4 78.6z"/>
	<path class="s8" d="m1195.1 632.5c-39.4 0-71.3-35.1-71.3-78.6 0-43.4 31.9-78.5 71.3-78.5 39.4 0 71.3 35.1 71.3 78.5 0 43.5-31.9 78.6-71.3 78.6z"/>
	<path class="s9" d="m953.6 624.1c-39.5 0-71.4-35.1-71.4-78.6 0-43.4 31.9-78.5 71.4-78.5 39.4 0 71.3 35.1 71.3 78.5 0 43.5-31.9 78.6-71.3 78.6z"/>
	<path class="s10" d="m1274.5 600.2h-0.4c-0.3 0-1 0.1-1.9 0.2-3.3 0.2-9.6 0.7-17.8 1.3l-2.6 0.2c-28.6 2-76.7 4.6-98.9 1.4-32.7-4.7-56.8-10.9-76.3-10.9-19.5 0-269.2 6.3-280.9 7.9-2.5 0.3-14.5 1.1-19.7 2.3l-6.4 1.4c-20.8 4.4-58.2 10.4-120.8 7.1 0 0-39.8-0.4-60.8 0.9-16.7 1.2-50.7 4.7-50.7 4.7 0 0-69.4 5.1-127.1 3.9v-8.8l-163.5-3.8-16.4 10.4h-70.6c0-0.1 0.1-0.2 0.1-0.2 0-0.1 0-0.3 0-0.5 0.1-0.3 0.2-0.8 0.3-1.5q0-0.5 0.2-1.3 0-0.5 0.1-1 0.2-1.1 0.4-2.4 0.2-1.4 0.5-2.9c4.1-24.3 17.4-88.6 47.2-133.3v-0.1q0.3-0.1 2.3-1.2c10.2-5.4 53.4-28.2 113.7-55.5q0.2-0.1 0.4-0.2c0.2-0.1 0.3-0.1 0.4-0.2q0.1 0 0.1 0c89.2-40.4 215.3-90.5 327.3-109.1 0 0 202-28.9 370.1 4.1q0.2 0 0.2 0c15.1 2.9 29.9 6.4 44.2 10.4 0 0 63.9 34.4 124.7 92.4q0 0 0.1 0c2.6 1.4 44.2 23.3 63.8 59.5 20.3 37.4 18.7 124.8 18.7 124.8z"/>
	<path class="s11" d="m1022.5 313.2c-6-0.6-161.9-15.3-192.5 3.5-31.1 19.1-100.5 96.7-100.5 96.7l-214.3 62.1c-91.9 7.9-307-0.1-307-0.1l0.1-0.1c3.8-2 246.2-133.2 444.1-166.2 0 0 202-28.9 370.1 4.1z"/>
	<path class="s12" d="m1157.8 415.9c-1.1 1-2.3 2-3.5 3.1-25 18.3-125.2 77.7-211 56.4-68.9-17.2-171.8-57.4-183.8-62.1l-0.3-0.5-0.4-0.7 2.1 0.6 26.8 8 204.9 41.2z"/>
	<path class="s13" d="m159.4 618.5c0 0-15.7-2.6-20.3-7.3-4.6-4.7-48-94.7-35.4-166.9 0 0 91-31.9 221.4-26.1 0 0-70.8 32.6-116.9 57.2 0 0-39.4 81.3-48.8 143.1z"/>
	<path class="s14" d="m537.3 616.7c-3.9-0.1-56.9 5.5-127.4 4v-8.8l-163.5-3.8-16.4 10.4h-70.6c0-0.1 0.1-0.2 0.1-0.3 0 0 0-0.2 0-0.4 0.1-0.3 0.2-0.8 0.3-1.5q0-0.5 0.2-1.3 0-0.5 0.1-1 0.2-1.1 0.4-2.4 0.2-1.4 0.5-2.9c4.3-26.8 17.4-102.1 35.3-141l14.2 6.4 2.8 1.3c0 0-0.8 0.5-2.2 1.9-2.1 2.2-5.4 6.3-9 13.5-0.4 0.8-0.8 1.7-1.2 2.6-6.6 14.2-6.2 82.9-6.2 82.9h256.8l35.2-30.8 43.7-69.1z"/>
	<path class="s15" d="m1157.8 415.9c-0.3 0.6-0.5 0.8-0.5 0.8-0.8 0.6-1.8 1.4-3 2.3-25 18.3-125.2 77.7-211 56.4-68.9-17.2-171.8-57.4-183.8-62.1q-1.1-0.5-1.1-0.5h0.8l1.7-0.1 387.1-18.5c11.7 13.5 10.7 19.7 9.8 21.7z"/>
	<path class="s16" d="m836.7 313.7c-24.3 18.7-53.7 46.1-74.3 66.2-15.4 14.9-25.9 25.8-25.9 25.8-150.9 16.9-368.3 11-364.1 2.1 4.1-8.8 43.8-28.4 43.8-28.4 0 0 18.6-7.9 46.9-18.5 37.1-13.9 90.8-32.3 140.7-43.1 11.3-2.4 22.5-4.5 33.2-6 64.5-9.1 121.3-7 157.6-3.7 26.4 2.5 42.1 5.6 42.1 5.6z"/>
	<path class="s5" d="m468 509.3c-2.4 9.5 42.4 7.9 52.7 1.9 10.3-6 4.2-28.9-2.2-29.9-6.5-0.9-46.6 12.5-50.5 28z"/>
	<path class="s17" d="m901.8 583.1l194.6-71.4-5 16.7-154.5 54.3z"/>
	<path class="s17" d="m869.4 581.2l-21.7-2.3 269.3-106.4c-7.3 10-11.5 17-16.4 28.4z"/>
	<path class="s5" d="m252.5 502c1.9 7.7-34.2 6.3-42.5 1.5-8.4-4.8-3.4-23.3 1.8-24.1 5.2-0.8 37.6 10.1 40.7 22.6z"/>
	<path class="s18" d="m1142.5 412.8c-9.4 6.1-86.5 16.6-169.9 8.6-41.6-4-95-6.1-138.1-7.3-43.3-1.1-76.2-1.3-76.2-1.3 1.6-14.2 60.6-86.8 86.5-95.7 10.6-3.6 27.5-6.9 49.8-8.3 24-1.5 54.4-0.7 89.8 4.3q0 0 0 0.1c12.1 1.7 24.9 3.9 38.1 6.7 62.6 13.4 99.6 45.3 115.7 62.6 6.6 7.1 9.8 11.7 9.8 11.7 0 0 3.9 12.6-5.5 18.6z"/>
	<path class="s19" d="m103.7 444.3c0 0 54.1 10.7 104.5 31.1l116.9-57.2c0 0-106.2-10.9-221.4 26.1z"/>
	<path class="s20" d="m325 418.2c-0.1 0.1-0.2 0.1-0.4 0.2q-0.2 0.1-0.4 0.2c-8.7 4.3-77.4 38.1-113.1 58.7q-1.5 0.9-2.9 1.7c0 0-2.3 4.2-6.1 11.8-0.4 0.8-0.8 1.7-1.2 2.6-11.1 22.9-31.8 70.5-41.4 124.8 0 0 0-0.2 0-0.4q0.1-0.5 0.3-1.5 0-0.5 0.2-1.3 0-0.5 0.1-1 0.2-1.1 0.4-2.4 0.2-1.4 0.5-2.9c4.3-26.8 17.4-102.1 35.3-141 0 0 71.4-30 128.7-49.5z"/>
	<path class="s21" d="m1274.2 600.3h-0.3l-2 0.2-17.8 1.3c11.1-99.1-25.9-117.8-25.9-117.8-9-44.2-34.5-66.3-36.5-68 2.6 1.4 44.2 23.3 63.8 59.5 20.3 37.4 18.7 124.8 18.7 124.8z"/>
	<path class="s22" d="m1149.7 564.1c-37.8 0-68.3-30.5-68.3-68.3 0-37.8 30.5-68.4 68.3-68.4 37.7 0 68.2 30.6 68.2 68.4 0 37.8-30.5 68.3-68.2 68.3z"/>
	<path class="s0" d="m548 612.7l46.7-0.9c0 0 18.7-86.9 36.3-120.7 17.5-33.9 68.5-65.7 101.6-65.6l-49.6 5.9-42.7 14.6-35.8 82.5z"/>
	<path class="s23" d="m661.7 611.8c0 0 0.8-149.1 87.3-131.9 0 0 4.2-29.6 0-48.5 0 0-32.2-17.5-89.2 23-52.9 37.5-65.1 157.4-65.1 157.4z"/>
	<path class="s24" d="m1142.4 601.8c0 0 7.1-127.9 85.8-117.8 0 0-9.7-41.6-28.4-59.7 0 0-60.2 6.9-91.6 61.3-27.2 47.2-23.3 107.2-23.3 107.2z"/>
	<path class="s25" d="m787.2 600.3c0 0 217.1-19.1 297.7-7.5z"/>
	<path class="s26" d="m1084.9 562.8c0 0-23.2 14.1-119.8 19.3-96.6 5.2-155.6-8.1-164.6-14.8l-1.1 17.8c0 0 192.8 2.5 285.5-2.1z"/>
	<path class="s0" d="m990.1 594.7l-1.3-0.9 6.4-8.6-6.5-4.3v-0.5l4.2-75.4 0.3-0.2c9.5-8.3 20.4-25.4 22-27.8-7-25-26.2-53.5-26.4-53.8l1.3-0.8c0.2 0.3 19.7 29.2 26.7 54.5l0.1 0.3-0.2 0.3c-0.1 0.2-11.9 19.1-22.2 28.2l-4.2 74.4 7.1 4.7z"/>
	<path class="s27" d="m480.9 589.1l7.9-35.2c0 0-192.8-5.4-271.6-8.4 0 0-20.8 14.1-25.3 43.6h56.6l7.3-8.8 161 2 0.9 8.8z"/>
	<path class="s0" d="m377.1 481.3c-8.2 0-16.5 0-24.6-0.1-94-0.3-95.1-2.3-95.8-3.5-2.1-3.9 2.4-20.7 4.3-27.2l3.7-2c-3.3 12.1-5.9 24.1-5.3 27.3 11.4 2.9 179.2 2.9 196.5 1.6 13.7-1 69.9-8.9 70.2-9v2.4c-1.2 0.2-56.1 8.7-70 9.7-6.1 0.5-41.6 0.8-79 0.8z"/>
	<path class="s0" d="m207.7 479.5l-11.9-11.2c-40-18-91.7-23.2-92.2-23.3l0.2-1.5c0.5 0 52.5 5.3 92.8 23.5l0.2 0.1 12 11.3z"/>
	<path class="s0" d="m1196.3 523.8c-18.4 0-32.7-0.7-33-0.7-24.9-6.9-58.6-22-61.8-23.5-4.1 1.1-52.9 13.7-108.3 16.8-56.3 3.1-191.6-13.2-199.5-14.1-7.6 6.6-23.4 16-24 16.4l-0.3 0.1c-27.8 3.4-88.3 1.7-88.9 1.7-16-1.5-53.4-14.1-53.8-14.2l0.5-1.5c0.4 0.1 37.7 12.6 53.4 14.1 0.6 0 60.7 1.8 88.4-1.7 1.6-0.9 17-10.1 24-16.3l0.2-0.3 0.4 0.1c1.4 0.1 142 17.3 199.5 14.1 57.4-3.2 107.7-16.6 108.2-16.8l0.3-0.1 0.2 0.2c0.4 0.1 36 16.3 61.8 23.5 0.4 0 53.6 2.4 86.7-2.2 1.2-0.8 10.8-7.1 15.6-11.8l1.1 1.1c-5.2 5.1-15.6 11.8-16 12.1l-0.4 0.1c-16.1 2.3-37 2.9-54.3 2.9z"/>
	<path class="s28" d="m701.6 541.6c-4.5 28.2 5.6 53.3 22.8 56.1 17.1 2.8 34.7-17.8 39.3-46 4.5-28.2-5.7-53.3-22.8-56-17.1-2.8-34.7 17.8-39.3 45.9z"/>
	<path class="s29" d="m707.6 544.4c-3 19 3.8 35.9 15.3 37.7 11.5 1.9 23.4-11.9 26.4-30.9 3.1-18.9-3.7-35.8-15.3-37.7-11.5-1.9-23.3 12-26.4 30.9z"/>
	<path class="s5" d="m709.2 545c-2.6 16.3 2 30.6 10.3 31.9 8.3 1.4 17.2-10.8 19.8-27 2.7-16.3-1.9-30.6-10.2-32-8.4-1.3-17.2 10.8-19.9 27.1z"/>
	<path class="s30" d="m1182.8 541.9c-4.4 26.7 5.3 50.5 21.5 53.1 16.3 2.7 32.9-16.8 37.3-43.6 4.3-26.7-5.4-50.5-21.6-53.1-16.2-2.6-32.9 16.9-37.2 43.6z"/>
	<path class="s31" d="m1188.5 544.5c-3 18 3.5 34 14.5 35.8 10.9 1.7 22.1-11.4 25-29.3 2.9-18-3.6-34-14.5-35.8-10.9-1.7-22.1 11.4-25 29.3z"/>
	<path class="s5" d="m1190 545c-2.5 15.5 1.8 29 9.7 30.3 7.9 1.3 16.3-10.2 18.8-25.6 2.5-15.5-1.9-29-9.7-30.3-7.9-1.3-16.3 10.2-18.8 25.6z"/>
	<path class="s32" d="m1154.3 419c-34.8 30.6-125 112.4-210.4 77-127.9-53-174.2-65-174.2-65l-10.2-17.7c12 4.7 114.9 44.9 183.8 62.1 85.8 21.3 186-38.1 211-56.4z"/>
	<path class="s33" d="m633.3 510.9c0 0 30.5 14.2 44.2 15l20.4-2.9 0.6-1.7c0 0-12.6-0.2-18.6-0.2 0 0-31.5-5.1-45.5-12.1z"/>
	<path class="s34" d="m758.4 521.3h11.8c0 0 17.6-10.1 22.6-16.5 0 0-16.9 11.6-22.9 14.9z"/>
	<path class="s35" d="m795.4 503.5c0 0 141.6 17.8 194.1 16.2l2.2-2.8c0 0-78.2-2.5-196.3-13.4z"/>
	<path class="s36" d="m994.5 539.6l1.3-21.8c0 0 60.2-6.8 94.1-14.5 0 0-37.4 10-90.6 16.4z"/>
	<path class="s37" d="m1114.5 506.9c0 0 28.5 17.3 45.8 21.5l24.5-2.8c0 0-13.6 0.1-22.2-1.5 0 0-29.3-10.5-48.1-17.2z"/>
	<path class="s38" d="m1244.1 522.5l6.7-1.4 13.2-9.2-12.4 12.1z"/>
	<path class="s39" d="m257.8 457.2c0 0-4.4 17.8-2.8 22.7 1.5 4.9 202.1 2.3 202.1 2.3l63.7-8.7-63.7 13.3c0 0-199.1 2.7-204.5-0.4-5.4-3.1 5.2-29.2 5.2-29.2z"/>
	<path class="s40" d="m207.2 589.1c0 0 2.2-19.5 17.1-35.2l263 7-6.4 28.2-63.2 2-0.9-8.8-161-2-7.3 8.8z"/>
	<path class="s41" d="m836.7 313.7c-24.3 18.7-53.7 46.1-74.3 66.2l-82 5.1c21.3-29.7 68.6-70.2 68.6-70.2l-27.6 0.2c-58.8 23.3-141.2 90.7-141.2 90.7h-23.6c45.3-47.3 105.9-84.3 105.9-84.3h-47.1c-51.4 14.1-96.6 38.2-96.6 38.2l-55.7 1.3c37.1-13.9 90.8-32.3 140.7-43.1 11.3-2.4 22.5-4.5 33.2-6 64.5-9.1 121.3-7 157.6-3.7 26.4 2.5 42.1 5.6 42.1 5.6z"/>
	<path class="s42" d="m884.6 582.2l5.3 2.4 84 0.5-3.6-3.9c0 0-59.1 3.8-85.7 1z"/>
	<path class="s43" d="m691.5 501.4c0 0-6-15.5-3.7-21.5 2.4-6-5.4-6.8-5-13.1 0.4-6.2 4.6 2.6 10.9 8.6 6.2 5.9 19.9 1.6 26.7 4 0 0-19.7 7.5-28.9 22z"/>
	<path class="s5" d="m691.5 501.4c0 0-4.8-27.7 28.9-22 0 0-20.5 9-28.9 22z"/>
	<path class="s5" d="m328 462.9l-19.4 12.5c0 0 69.5 2.3 110.6 0l30.6-12.7c0 0-49.2 2.4-121.8 0.2z"/>
	<path class="s5" d="m306.1 490l9.7 17.1c0 0 47.7 0.6 65.9-0.2l20.7-16.9c0 0-50.4 2.7-96.3 0z"/>
	<path class="s44" d="m115.8 440.5c0 0 48-6.1 69 2.3 36.4 14.5 1.5-17.3 1.5-17.3 0 0-26.9 2.3-70.5 15z"/>
	<path class="s45" d="m115.8 440.5c0 0 22.6-2.7 29.8-4.4 7.2-1.8 0.1-3.7 0.1-3.7z"/>
	<path class="s5" d="m189.1 461.6c0 0 10.3 4.7 16.4 2.2 6.1-2.4 5.4-4.5 5.4-4.5 0 0-7.7-5.7-21.8 2.3z"/>
	<path class="s46" d="m818.4 435.5c0 0 38.1 4.3 58.4 1.6 20.3-2.7 36.4-13.6 59.2-11.6 22.9 2.1 7.3 35.9-14.5 30.4-21.8-5.4-35.4 2.9-35.4 2.9 0 0-51-17.2-67.7-23.3z"/>
	<path class="s5" d="m824.8 437.1c0 0 28.9 0.1 49.1 4.9 20.3 4.9 12.2 16.8 12.2 16.8 0 0-49.8-15.4-61.3-21.7z"/>
	<path class="s47" d="m594.7 611.8h12.1c0 0 62.2-135.7 91.1-149.1 29-13.4 71.4-12.7 71.4-12.7l8.2 11.6-3.6-30.2-27.2-11.7-71.1 24.6-7.7 4.6-69.3 136.9-26.5 26z"/>
	<path class="s5" d="m1148.4 503.3c0 0-6.8-9.6 6.8-7.5 0 0 2.4 7.5-6.8 7.5z"/>
	<path class="s48" d="m773.9 431.4l-16.3-5.9c0 0-58.5 11.1-84.2 31.7 0 0-46 107.2-63.9 128.3-17.9 21-49.1 33-49.1 33h-22.6c0 0-25.7-85.3-11.7-151.6q0.1 0 0.1-0.1c2.8-1.6 95.1-55 211.7-53.9q8.2 0 16.6 0.5z"/>
	<path class="s20" d="m773.9 431.4l-16.3-5.9c0 0-58.5 11.1-84.2 31.7 0 0-46 107.2-63.9 128.3-17.9 21-49.1 33-49.1 33h-22.6c0 0 51.1-27 65.9-47 17.9-24.3 47.9-126.5 47.9-126.5 0 0 42-29.8 86.3-32.1 5.6-0.3 11.1-0.2 16.6 0.5 0 0 10.1 6.2 19.4 18z"/>
	<path class="s3" d="m754.5 413.4c-56.9 0.2-102.9 31.6-102.9 31.6-51.1 3.9-123.1 21.3-125.4 21.8 2.8-1.6 95.1-55 211.7-53.9q8.2 0 16.6 0.5z"/>
	<path class="s0" d="m526.4 467.6l-0.4-1.5c0.7-0.2 73-21.8 124.7-21.8q0.4 0 0.9 0v1.5q-0.5 0-0.9 0c-51.5 0-123.5 21.6-124.3 21.8z"/>
	<path class="s49" d="m530.4 469.6c0 0 60.6-15.4 109.9-20.7 0 0-64.8 1.9-109.9 20.7z"/>
	<path class="s45" d="m631.1 444.2c0 0 39.6-19.3 59.4-19.9l-34.6 17.9c0 0-18.8 0.9-24.8 2z"/>
	<path class="s5" d="m655.9 442.2l-9.9 0.6c0 0 14.4-7.3 22.8-7.3z"/>
	<path class="s50" d="m557.6 607.2c0 0 45.2-36.7 68.3-84.2 0 0-13.1 37.6-24.2 50.9-11.1 13.4-44.1 33.3-44.1 33.3z"/>
	<path class="s51" d="m572.1 558.4c-37.8 0-68.3-30.6-68.3-68.4 0-37.8 30.5-68.3 68.3-68.3 37.7 0 68.2 30.5 68.2 68.3 0 37.8-30.5 68.4-68.2 68.4z"/>
	<path class="s5" d="m564.5 486.9c2.8-7.1 15.4 0 15.4 0 0 0-4.7 8.5-8.6 9.4-3.9 0.9-8.2-5.7-6.8-9.4z"/>
	<path class="s52" d="m994.5 525c-3.4 0-6-2.7-6-6 0-3.4 2.6-6 6-6 3.3 0 6 2.6 6 6 0 3.3-2.7 6-6 6z"/>
	<path class="s53" d="m994.5 523.8c-2.7 0-4.8-2.2-4.8-4.8 0-2.7 2.1-4.8 4.8-4.8 2.6 0 4.8 2.1 4.8 4.8 0 2.6-2.2 4.8-4.8 4.8z"/>
	<path class="s54" d="m1002.4 495.7c11 3.9 16.5 17.1 12.1 29.6-4.4 12.4-16.9 19.4-28 15.5-11-3.9-16.5-17.2-12.1-29.6 4.4-12.5 16.9-19.4 28-15.5z"/>
	<path class="s55" d="m1138.2 382.5h-30.2c-5.8-11.8-23.3-27-23.3-27h-19.9c10.4 17.3 19.9 50.2 19.9 50.2h-42.5c-21.8-51.7-56.6-91.2-57.8-92.5 12.1 1.7 24.9 3.9 38.1 6.7 62.6 13.4 99.6 45.3 115.7 62.6z"/>
	<path class="s56" d="m749 431.4c0 0 12.1 21.8 0 48.5 0 0 45.9 24.5 25.2 123.1l21.5-2.7c0 0 23.2-121.4-46.7-168.9z"/>
	<path class="s57" d="m253.5 436.6c39.6 14 62.8 50.7 51.8 82.1-11 31.3-52.1 45.4-91.7 31.5-39.7-14-62.9-50.7-51.8-82 11-31.4 52-45.5 91.7-31.6z"/>
	<path class="s58" d="m479.2 449.1c38-12.5 76.8 1.7 86.7 31.8 9.9 30.1-12.9 64.6-50.9 77.1-38.1 12.5-76.9-1.7-86.8-31.8-9.9-30.1 12.9-64.6 51-77.1z"/>
	<path class="s59" d="m379.2 414.8c0 0 104.8 6.8 227.6 2.7 0 0-157 18-227.6-2.7z"/>
	<path class="s60" d="m999.3 435.3c0 0 17.6 29.7 18.2 41.5l-8.5 13.8c0 0 9.2-9.8 11.1-14.7 0 0-5.2-16.9-20.8-40.6z"/>
	<path class="s61" d="m735.1 489.4c30.7 1.4 54.3 29.5 52.6 62.5-1.6 33.1-27.7 58.7-58.4 57.2-30.6-1.5-54.2-29.5-52.6-62.6 1.6-33 27.8-58.6 58.4-57.1z"/>
	<path class="s62" d="m1220.8 477.9c30.7 1.5 54.2 29.6 52.6 62.6-1.6 33.1-27.7 58.7-58.4 57.2-30.7-1.5-54.2-29.5-52.6-62.6 1.6-33.1 27.8-58.6 58.4-57.2z"/>
	<path class="s63" d="m842.6 330c-29.6 29.4-43.2 82.1-43.2 82.1l35.1 2c-43.3-1.1-76.2-1.3-76.2-1.3 1.6-14.2 60.6-86.8 86.5-95.7 10.6-3.6 27.5-6.9 49.8-8.3-15.6 2.3-38.8 8.1-52 21.2z"/>
</svg>
