<svg version="1.2"
	xmlns="http://www.w3.org/2000/svg" viewBox="0 0 1400 800" width="1400" height="800">
	<title>carFutureGhost</title>
	<path fill="#ffffff" d="m1260.3 398.8l-20.3 60.5-35.8-25.1 8-17.7z"/>
	<path fill="#ffffff" d="m1199.8 424.3c0 0 56.2-39 99.9-54.5l-134.1-3.6c0 0-67.1 20-80.9 50.3z"/>
	<path fill="#ffffff" d="m1299.7 367.8v27.4l-15-9c0 0-32.8 9-69.2 43.2l-15.7-7.1c0 0 41.7-35.9 99.9-54.5z"/>
	<path fill="#ffffff" d="m1165.6 366.2l70.9 32.6c0 0 31.7-19.5 63.2-29z"/>
	<path fill="#ffffff" d="m226.7 632.5c-33.7 0-61-27.3-61-61 0-33.8 27.3-61 61-61 33.7 0 60.9 27.2 60.9 61 0 33.7-27.2 61-60.9 61z"/>
	<path fill="#ffffff" d="m697.9 632.5c-39.4 0-71.3-35.1-71.3-78.6 0-43.4 31.9-78.5 71.3-78.5 39.5 0 71.4 35.1 71.4 78.5 0 43.5-31.9 78.6-71.4 78.6z"/>
	<path fill="#ffffff" d="m1195.1 632.5c-39.4 0-71.3-35.1-71.3-78.6 0-43.4 31.9-78.5 71.3-78.5 39.4 0 71.3 35.1 71.3 78.5 0 43.5-31.9 78.6-71.3 78.6z"/>
	<path fill="#ffffff" d="m953.6 624.1c-39.5 0-71.4-35.1-71.4-78.6 0-43.4 31.9-78.5 71.4-78.5 39.4 0 71.3 35.1 71.3 78.5 0 43.5-31.9 78.6-71.3 78.6z"/>
	<path fill="#ffffff" d="m1274.5 600.2h-0.4c-0.3 0-1 0.1-1.9 0.2-3.3 0.2-9.6 0.7-17.8 1.3l-2.6 0.2c-28.6 2-76.7 4.6-98.9 1.4-32.7-4.7-56.8-10.9-76.3-10.9-19.5 0-269.2 6.3-280.9 7.9-2.5 0.3-14.5 1.1-19.7 2.3l-6.4 1.4c-20.8 4.4-58.2 10.4-120.8 7.1 0 0-39.8-0.4-60.8 0.9-16.7 1.2-50.7 4.7-50.7 4.7 0 0-69.4 5.1-127.1 3.9v-8.8l-163.5-3.8-16.4 10.4h-70.6c0-0.1 0.1-0.2 0.1-0.2 0-0.1 0-0.3 0-0.5q0.1-0.4 0.3-1.5 0-0.5 0.2-1.3 0-0.5 0.1-1 0.2-1.1 0.4-2.4 0.2-1.4 0.5-2.9c4.1-24.3 17.4-88.6 47.2-133.3v-0.1q0.3-0.1 2.3-1.2c10.2-5.4 53.4-28.2 113.7-55.5q0.2-0.1 0.4-0.2c0.2-0.1 0.3-0.1 0.4-0.2q0.1 0 0.1 0c89.2-40.4 215.3-90.5 327.3-109.1 0 0 202-28.9 370.1 4.1q0.2 0 0.2 0c15.1 2.9 29.9 6.4 44.2 10.4 0 0 63.9 34.4 124.7 92.4q0 0 0.1 0c2.6 1.4 44.2 23.3 63.8 59.5 20.3 37.4 18.7 124.8 18.7 124.8z"/>
	<path fill="#ffffff" d="m159.4 618.5c0 0-15.7-2.6-20.3-7.3-4.6-4.7-48-94.7-35.4-166.9 0 0 91-31.9 221.4-26.1 0 0-70.8 32.6-116.9 57.2 0 0-39.4 81.3-48.8 143.1z"/>
</svg>
