<svg version="1.2"
	xmlns="http://www.w3.org/2000/svg" viewBox="0 0 1500 1000" width="1500" height="1000">
	<title>carRetroGhost</title>
	<path fill="#ffffff" d="m1281.6 675.1l-344.1 48.9h-51.4l-77.5-177.9 58-22.7h415z"/>
	<path fill="#ffffff" d="m372 688.8c0-62.1-21.8-112.5-48.7-112.5h-77.5c-26.9 0-48.7 50.4-48.7 112.5 0 62.1 21.8 112.5 48.7 112.5 41.6 3.3 77.5 0 77.5 0 26.9 0 48.7-50.4 48.7-112.5z"/>
	<path fill="#ffffff" d="m363.3 714.5h44.1l13.6 11.4h72.8l12.6-11.4h26.9l25.9 26.5h87.8v-59.9h-290.7z"/>
	<path fill="#ffffff" d="m990.1 716.9c42.2 16.2 84.9 30.8 128.2 43.8 0-4.8 1.3-9.4 3.8-13.5-26.3-12.5-52.7-25.1-79-37.6-18.2 0.7-35.4 2.6-53 7.3z"/>
	<path fill="#ffffff" d="m805.4 690.4c0-62.1-21.8-112.5-48.7-112.5h-77.5c-26.9 0-48.7 50.4-48.7 112.5 0 62.1 21.8 112.5 48.7 112.5 41.7 3.3 77.5 0 77.5 0 26.9 0 48.7-50.4 48.7-112.5z"/>
	<path fill="#ffffff" d="m1200.7 688.8c0 62.1-21.9 112.5-48.8 112.5-26.9 0-48.7-50.4-48.7-112.5 0-62.1 21.8-112.5 48.7-112.5 26.9 0 48.8 50.4 48.8 112.5z"/>
	<path fill="#ffffff" d="m1151.9 576.3v225c41.6 3.3 77.5 0 77.5 0v-225z"/>
	<path fill="#ffffff" d="m1278.1 688.8c0 62.1-21.8 112.5-48.7 112.5-27 0-48.8-50.4-48.8-112.5 0-62.1 21.8-112.5 48.8-112.5 26.9 0 48.7 50.4 48.7 112.5z"/>
	<path fill="#ffffff" d="m857.4 688.8c0 62.1-21.9 112.5-48.8 112.5-26.9 0-48.7-50.4-48.7-112.5 0-62.1 21.8-112.5 48.7-112.5 26.9 0 48.8 50.4 48.8 112.5z"/>
	<path fill="#ffffff" d="m808.6 576.3v225c41.7 3.3 77.5 0 77.5 0v-225z"/>
	<path fill="#ffffff" d="m934.8 688.8c0 62.1-21.8 112.5-48.7 112.5-27 0-48.8-50.4-48.8-112.5 0-62.1 21.8-112.5 48.8-112.5 26.9 0 48.7 50.4 48.7 112.5z"/>
	<path fill="#ffffff" d="m1355.7 549.6q-0.1 2.9-0.2 5.8c-0.2 6.2-0.7 12.3-1.4 18.2q0 0.5-0.1 1c-3.5 30.7-11.6 56.7-11.6 56.7l-60.8 43.8c-0.5-46.8-9.6-79.6-25.5-97.4q-1.1-1.3-2.3-2.5c-6.1-6-12.9-10-20.6-11.9q-5.4-1.3-11.2-1.3c-4 0-7.7 1-11.1 2.8-4.6 2.4-8.8 6.2-12.5 11.2-0.9 1.1-1.8 2.4-2.6 3.6-27.1 41-34 139.4-50.9 139.4l-136.1 3.3-71.3 1.7c5.6-52.7 2.9-104.2-12.5-135.7q-2.4-5.1-5.4-9.4-2.2-3.3-4.7-6.2c-7.7-8.6-17.2-14-28.9-15q-1.2-0.1-2.4-0.2c-11.9-0.4-21.5 7-29.5 18.4q-2.9 4.2-5.5 9.1c-1.1 1.9-2.1 3.9-3.1 5.9-19.7 40.6-28.6 103.9-43.1 103.9h-648.4c0 0-8.5-24.4 15.5-40.3l-14.6-8.1c-72.1-14-64.1-110.1-35.4-128.8 103.4-65.6 331.5-65.2 331.5-65.2 0 0 49.4-95.3 137.7-122 88.2-26.7 407.7-16.2 504.7 25 97 41.2 122.8 80.7 122.8 80.7l57.4 28.5h46.8c6.9 0 13.1 4.2 15.6 10.6 3.4 8.7 8.1 20.4 10.7 25.6 4.1 8.1 6.5 17.6 7.8 27.7 0.6 4.3 0.9 8.7 1.1 13.2q0.1 3.9 0.1 7.9z"/>
	<path fill="#ffffff" d="m1278 682.1h5.6l65.3-46c5.5-4.9-0.2-15.5-8.4-8.5l-59 42.5h-4c0.3 6.8 0.5 12 0.5 12z"/>
	<path fill="#ffffff" d="m703.1 660.9h-543.7c-4.4 0-8-3.6-8-7.9 0-4.4 3.6-8 8-8h543.7c4.4 0 8 3.6 8 8 0 4.3-3.6 7.9-8 7.9z"/>
	<path fill="#ffffff" d="m600.9 463.5c-2.9 1.7-65.7 13.3-69.5 13.8-3.7 0.6-168.7 1.2-175.6-4.3-6.8-5.5-14.4-60.8 0.5-69.1 11.1-6.3 155.1-2.6 166.4-2.6 11.4 0 73.2 13.9 78.2 20 4.9 6.1 2.9 40.4 0 42.2z"/>
	<path fill="#ffffff" d="m1109.7 747.9l-22.4 6.7c-7.7 2.3-16 1.8-23.3-1.4l-68.4-30 62-1.4 63-15z"/>
	<path fill="#ffffff" d="m1082.9 747.9l-22.3 6.7c-7.7 2.3-16 1.8-23.3-1.4l-68.5-30 62-1.4 63.1-15z"/>
</svg>
