<svg version="1.2"
	xmlns="http://www.w3.org/2000/svg" viewBox="0 0 1500 1000" width="1500" height="1000">
	<title>carRetro</title>
	<style>
		.s0 { fill: #301225 }
		.s1 { fill: #49213b }
		.s2 { fill: #f5e7d8 }
		.s3 { fill: #f2c6ab }
		.s4 { fill: #f05042 }
		.s5 { fill: #e88069 }
		.s6 { fill: #8ab295 }
		.s7 { opacity: .5;mix-blend-mode: soft-light;fill: #ffffff }
		.s8 { fill: #b7dec3 }
		.s9 { fill: none;stroke: #49213b;stroke-linecap: round;stroke-linejoin: round;stroke-width: 2.2 }
		.s10 { fill: none;stroke: #301225;stroke-miterlimit:10;stroke-width: 6.6 }
	</style>
	<path class="s0" d="m1281.6 675.1l-344.1 48.9h-51.4l-77.5-177.9 58-22.7h415z"/>
	<path class="s0" d="m372 688.8c0-62.1-21.8-112.5-48.7-112.5h-77.5c-26.9 0-48.7 50.4-48.7 112.5 0 62.1 21.8 112.5 48.7 112.5 41.6 3.3 77.5 0 77.5 0 26.9 0 48.7-50.4 48.7-112.5z"/>
	<path class="s0" d="m363.3 714.5h44.1l13.6 11.4h72.8l12.6-11.4h26.9l25.9 26.5h87.8v-59.9h-290.7z"/>
	<path class="s0" d="m990.1 716.9c42.2 16.2 84.9 30.8 128.2 43.8 0-4.8 1.3-9.4 3.8-13.5-26.3-12.5-52.7-25.1-79-37.6-18.2 0.7-35.4 2.6-53 7.3z"/>
	<path class="s0" d="m805.4 690.4c0-62.1-21.8-112.5-48.7-112.5h-77.5c-26.9 0-48.7 50.4-48.7 112.5 0 62.1 21.8 112.5 48.7 112.5 41.7 3.3 77.5 0 77.5 0 26.9 0 48.7-50.4 48.7-112.5z"/>
	<path class="s0" d="m1200.7 688.8c0 62.1-21.9 112.5-48.8 112.5-26.9 0-48.7-50.4-48.7-112.5 0-62.1 21.8-112.5 48.7-112.5 26.9 0 48.8 50.4 48.8 112.5z"/>
	<path class="s0" d="m1151.9 576.3v225c41.6 3.3 77.5 0 77.5 0v-225z"/>
	<path class="s1" d="m1278.1 688.8c0 62.1-21.8 112.5-48.7 112.5-27 0-48.8-50.4-48.8-112.5 0-62.1 21.8-112.5 48.8-112.5 26.9 0 48.7 50.4 48.7 112.5z"/>
	<path class="s2" d="m1260.4 688.8c0 37.9-11.3 68.6-25.2 68.6-5.9 0-11.3-5.5-15.6-14.5-5.9-12.6-9.7-32.1-9.7-54.1 0-21.9 3.8-41.5 9.7-54 4.3-9.1 9.7-14.5 15.6-14.5 13.9 0 25.2 30.7 25.2 68.5z"/>
	<path class="s3" d="m1229.4 688.8c0 22-3.8 41.5-9.8 54.1-4.4-9.5-7.7-23-9-38.5-0.5-5-0.7-10.2-0.7-15.6 0-5.9 0.3-11.6 0.8-17 1.4-14.9 4.6-27.8 8.9-37 6 12.5 9.8 32.1 9.8 54z"/>
	<path class="s2" d="m1226.9 689c0 9.5-9.5 13.7-16.3 15.4-0.5-5-0.7-10.2-0.7-15.6 0-5.9 0.3-11.6 0.8-17 6.7 2.3 16.2 7.4 16.2 17.2z"/>
	<path class="s0" d="m857.4 688.8c0 62.1-21.9 112.5-48.8 112.5-26.9 0-48.7-50.4-48.7-112.5 0-62.1 21.8-112.5 48.7-112.5 26.9 0 48.8 50.4 48.8 112.5z"/>
	<path class="s0" d="m808.6 576.3v225c41.7 3.3 77.5 0 77.5 0v-225z"/>
	<path class="s1" d="m934.8 688.8c0 62.1-21.8 112.5-48.7 112.5-27 0-48.8-50.4-48.8-112.5 0-62.1 21.8-112.5 48.8-112.5 26.9 0 48.7 50.4 48.7 112.5z"/>
	<path class="s2" d="m917.1 688.8c0 37.9-11.3 68.6-25.2 68.6-5.9 0-11.3-5.5-15.6-14.5-5.9-12.6-9.7-32.1-9.7-54.1 0-21.9 3.8-41.5 9.7-54 4.3-9.1 9.7-14.5 15.6-14.5 13.9 0 25.2 30.7 25.2 68.5z"/>
	<path class="s3" d="m886.1 688.8c0 22-3.8 41.5-9.8 54.1-4.4-9.5-7.7-23-9-38.5-0.5-5-0.7-10.2-0.7-15.6 0-5.9 0.3-11.6 0.8-17 1.4-14.9 4.6-27.8 8.9-37 6 12.5 9.8 32.1 9.8 54z"/>
	<path class="s2" d="m883.6 689c0 9.5-9.5 13.7-16.3 15.4-0.5-5-0.7-10.2-0.7-15.6 0-5.9 0.3-11.6 0.8-17 6.7 2.3 16.2 7.4 16.2 17.2z"/>
	<path class="s4" d="m451 414c-4.2-4.3-49.2-11.6-55.3-2.7-6.1 8.8-4.7 33.2 5.3 37 10.1 3.8 43.3-1 48.8-3.6 5.6-2.7 5.6-26.2 1.2-30.7z"/>
	<path class="s3" d="m445.8 431.4c2 11.2 21.1 23.2 21.1 23.2 5.5 4.5-2.2 15.8-10.6 8.9-3.1-16.8-20.3-21.7-20.3-21.7-7.8-7.2 3-19 9.8-10.4z"/>
	<path class="s1" d="m1335.4 462.6c-1.3-5.5-6.3-9.5-12-9.5h-81.1l18.8 28.5 80.6 7.9z"/>
	<path class="s4" d="m1363.9 549.2c0 13.8-6.1 25-10.7 25-4.5 0-17.4-11.2-17.4-25 0-13.8 12.9-25 17.4-25 4.6 0 10.7 11.2 10.7 25z"/>
	<path class="s1" d="m1357.8 586.6c0 6.3-2.8 11.4-4.8 11.4-2.1 0-8-5.1-8-11.4 0-6.3 5.9-11.4 8-11.4 2 0 4.8 5.1 4.8 11.4z"/>
	<path class="s5" d="m1355.7 549.6q-0.1 2.9-0.2 5.8c-0.2 6.2-0.7 12.3-1.4 18.2q0 0.5-0.1 1c-3.5 30.7-11.6 56.7-11.6 56.7l-60.8 43.8c-0.5-46.8-9.6-79.6-25.5-97.4q-1.1-1.3-2.3-2.5c-6.1-6-12.9-10-20.6-11.9q-5.4-1.3-11.2-1.3c-4 0-7.7 1-11.1 2.8-4.6 2.4-8.8 6.2-12.5 11.2-0.9 1.1-1.8 2.4-2.6 3.6-27.1 41-34 139.4-50.9 139.4l-136.1 3.3-71.3 1.7c5.6-52.7 2.9-104.2-12.5-135.7q-2.4-5.1-5.4-9.4-2.2-3.3-4.7-6.2c-7.7-8.6-17.2-14-28.9-15q-1.2-0.1-2.4-0.2c-11.9-0.4-21.5 7-29.5 18.4q-2.9 4.2-5.5 9.1c-1.1 1.9-2.1 3.9-3.1 5.9-19.7 40.6-28.6 103.9-43.1 103.9h-648.4c0 0-8.5-24.4 15.5-40.3l-14.6-8.1c-72.1-14-64.1-110.1-35.4-128.8 103.4-65.6 331.5-65.2 331.5-65.2 0 0 49.4-95.3 137.7-122 88.2-26.7 407.7-16.2 504.7 25 97 41.2 122.8 80.7 122.8 80.7l57.4 28.5h46.8c6.9 0 13.1 4.2 15.6 10.6 3.4 8.7 8.1 20.4 10.7 25.6 4.1 8.1 6.5 17.6 7.8 27.7 0.6 4.3 0.9 8.7 1.1 13.2q0.1 3.9 0.1 7.9z"/>
	<path class="s4" d="m1120.5 643.4c-10.2 3.3-18.2 12.3-20 22.8-1.9 10.4 1.8 21.9-3.3 31.2-3.4 6.2-10.3 10-17.3 11.3-7 1.3-14.3 0.5-21.3-0.5-7.1-1-14.2-2.2-21.3-1.5-11.1 1.1-21.5 6.9-28.5 15.6l-71.3 1.7c5.6-52.7 2.9-104.2-12.5-135.7q-2.4-5.1-5.4-9.4-2.2-3.3-4.7-6.2c-7.7-8.6-17.2-14-28.9-15 9.2-3.1 19.2-3.5 28.6-1.1 8.7 2.3 16.7 7 25.3 9.9 13 4.5 27.3 4.9 40.5 1.1 8.8-2.5 17.6-7.3 21.5-15.5 1.9 9.2-2.5 19.2-10.2 24.6-3.8 2.5-8.1 4-12.3 5.7-4.2 1.8-8.5 3.9-11.4 7.4-2.9 3.5-4.1 8.7-2 12.7 2 3.6 6.4 5.5 10.5 5.2 4.2-0.2 8-2.2 11.3-4.8 3.3-2.5 6.2-5.5 9.3-8.2 16.9-14.4 42.5-17.8 62.5-8.3-10-4.2-22.2-3.4-31.9 1.6-7 3.5-12.9 9.7-14.4 17.4-1.4 7.7 2.9 16.5 10.5 18.5 7.2 1.9 14.3-2.4 20.9-5.9 9.8-5.1 20.7-8.7 31.7-9.3 11.1-0.5 22.5 2.1 31.7 8.5-14.1-8.4-34.2-5.2-45.9 6.3-6 5.9-10.1 13.8-17.2 18.1-9 5.3-20.2 3.7-30.6 3.2-6.1-0.4-12.5-0.2-17.4 3.4-4.2 2.9-6.6 8-6.4 13.1 0.2 5.1 2.9 10 7.1 12.9 7.8 5.5 18.8 3.6 27-1.2 8.2-4.9 14.6-12.3 22-18.3 7.4-6 16.8-10.8 26.2-9-5 1.3-9.7 3.3-13.6 6.7-3.9 3.3-6.8 8.1-7.2 13.2-0.4 5.1 2 10.6 6.4 13.2 4.8 2.7 10.9 2 15.6-0.8 4.8-2.7 8.2-7.1 11.3-11.7 3.1-4.5 5.8-9.2 9.6-13.2 6.5-6.8 16.1-11 25.5-9.7z"/>
	<path class="s6" d="m1278 682.1h5.6l65.3-46c5.5-4.9-0.2-15.5-8.4-8.5l-59 42.5h-4c0.3 6.8 0.5 12 0.5 12z"/>
	<path class="s7" d="m1355.7 549.6l-440.8 23.1c-8.2-9.2-18.5-14.7-31.3-15.2-11.9-0.4-21.5 7-29.5 18.4l-138.4 7.3c0.7-19.5-1.6-42.2-11-63.4l649.8 8.7c0.9 6.8 1.2 13.9 1.2 21.1z"/>
	<path class="s3" d="m1198.4 576c3.7-5 7.9-8.8 12.5-11.2l-222.8 14.4z"/>
	<path class="s3" d="m1233.2 563.3c7.7 1.9 14.5 5.9 20.6 11.9l100.3-1.6c0.7-5.9 1.2-12 1.4-18.2z"/>
	<path class="s4" d="m154.1 525.6c204-13.8 489.7 0 489.7 0v104.6c-296.8 8.2-489.7 0-489.7 0z"/>
	<path class="s6" d="m827.8 660.9h-543.7c-4.4 0-8-3.6-8-7.9 0-4.4 3.6-8 8-8h543.7c4.4 0 8 3.6 8 8 0 4.3-3.6 7.9-8 7.9z"/>
	<path class="s8" d="m703.1 660.9h-543.7c-4.4 0-8-3.6-8-7.9 0-4.4 3.6-8 8-8h543.7c4.4 0 8 3.6 8 8 0 4.3-3.6 7.9-8 7.9z"/>
	<path class="s8" d="m952.8 377.5c0 6-0.4 12.4-1 18.8-2.7 28.6-10 57.8-10 57.8h-480c0 0 0.9-1.4 2.5-3.9 5.8-9.1 21.4-32.3 43-55.1 10.7-11.5 23-22.8 36.2-32.2 9.5-6.8 19.5-12.5 29.9-16.6 32.7-13 169.2-18.2 268.3-13.5 17.4 0.8 33.6 1.9 47.8 3.4 33.5 3.4 56.5 8.5 59.5 15.5q0.8 2 1.4 4.2c1.7 5.9 2.4 13.4 2.4 21.6z"/>
	<path class="s6" d="m952.8 377.5c-41.8-4.2-83.8-6.3-125.7-6.1-16.4 0.1-33.5 0.7-47.7 8.7-14.3 8.1-23.8 23-28.9 38.6-3.7 11.5-5.3 23.4-6.4 35.4h-76.3c1.7-11.5 3-23.1 1.7-34.7-1.5-13.7-7-27.6-17.7-36.3-8-6.4-18-9.5-27.9-12-26.2-6.5-53.4-9.3-80.4-8.2 9.5-6.8 19.5-12.5 29.9-16.6 51.8-20.5 364-21.8 375.6 5.4 2.7 6.5 3.8 15.6 3.8 25.8z"/>
	<path class="s3" d="m841.7 332.8q-167.2 31.1-334.4 62.3c-21.6 22.8-37.2 46-43 55.1 139.9-44.4 281.9-82.5 425.2-114-14.2-1.5-30.4-2.6-47.8-3.4z"/>
	<path class="s3" d="m950.4 355.9q-218.5 49.1-437.1 98.2h182q128.2-28.9 256.5-57.8c0.6-6.4 1-12.8 1-18.8 0-8.2-0.7-15.7-2.4-21.6z"/>
	<path class="s8" d="m1133.6 409.2c-1 5.1-3.6 8.4-3.6 8.4l-0.9 1.2-23.9 32-2.5 3.3h-142.9c7.8-18 8.9-40 9.9-59.4 0.3-5.5 0.6-10.9 1-15.8 1.4-16.7 4.4-29.2 14.7-31.6q1.5-0.4 3.2-0.6c26.4-3.9 90.9 11.8 123.7 30.5 20.8 11.8 22.9 24.1 21.3 32z"/>
	<path class="s6" d="m1133.6 409.2c-15.4-7.2-61.5-24.1-162.9-30.3 1.4-16.7 4.4-29.2 14.7-31.6 24.1-5.8 92.7 10.4 126.9 29.9 20.8 11.8 22.9 24.1 21.3 32z"/>
	<path class="s7" d="m1129.1 418.8l-23.9 32q-67.3-29-135.5-56.1c0.3-5.5 0.6-10.9 1-15.8 1.4-16.7 4.4-29.2 14.7-31.6q1.5-0.4 3.2-0.6 71 34.6 140.5 72.1z"/>
	<path class="s4" d="m1040 452.6c-3.2 1.2-8.7 1.6-14.9 1.4q-2.6-0.1-5.2-0.2-1.9-0.2-3.7-0.3c-4.2-0.4-8.4-1-12.2-1.5-6.1-1-11-2.1-12.8-3-5.5-2.6-5.5-26.1-1.2-30.6 2.6-2.6 19.9-6.3 34.6-6.9 5.6-0.2 10.8 0 14.7 0.9q2.4 0.6 4.1 1.5 1.2 0.7 1.9 1.7c1.4 1.9 2.3 4.5 2.9 7.5 2.3 10.9-0.3 26.6-8.2 29.5z"/>
	<path class="s3" d="m1024.6 411.5l-20.6 40.5c3.8 0.5 8 1.1 12.2 1.5l23.1-41.1c-3.9-0.9-9.1-1.1-14.7-0.9z"/>
	<path class="s3" d="m1045.3 415.6q-0.7-1-1.9-1.7l-23.5 39.9q2.6 0.1 5.2 0.2l23.1-30.9c-0.6-3-1.5-5.6-2.9-7.5z"/>
	<path fill-rule="evenodd" class="s3" d="m1026.8 450.7c-12 0-28.6-2.5-32.4-4.2-1.9-0.9-2.9-4.2-3.4-6.8-1.2-6.6-0.4-16.4 2.3-19.1 2.8-2.7 25.2-6.7 39-5.6 5.2 0.4 8.5 1.6 9.9 3.4 3.4 4.7 4.3 14.7 1.9 22.4-1 3.2-3 7.4-6.7 8.7-2.4 0.8-6.2 1.2-10.6 1.2zm0.4-35.3c-13.3 0-31.2 3.4-33.5 5.6-2.3 2.3-3.4 11.5-2.1 18.6 0.6 3.5 1.7 5.8 3.1 6.4 5 2.2 33.8 6 42.5 3 3.5-1.3 5.4-5.3 6.3-8.3 2.4-7.6 1.5-17.4-1.8-22-1.2-1.6-4.5-2.7-9.5-3.1q-2.3-0.2-5-0.2z"/>
	<path class="s1" d="m995.3 435.7c-2.1 11.2-21.1 23.3-21.1 23.3-5.5 4.5 2.1 15.7 10.5 8.8 3.1-16.7 20.4-21.6 20.4-21.6 7.8-7.2-3-19-9.8-10.5z"/>
	<path class="s9" d="m959.8 459c42.3 123.5-17.8 259.8-17.8 259.8"/>
	<path class="s9" d="m1108.9 459c80.4 132.2 25.1 253.2 25.1 253.2"/>
	<path class="s9" d="m959.8 707.2l185.9-3.1"/>
	<path class="s9" d="m707.3 634.8c0 0 7.5-22.3 8.4-51.6 0.7-19.5-1.6-42.2-11-63.4q-0.7-1.7-1.6-3.5c0 0 34.5-45.7 226.2-53.8"/>
	<path class="s9" d="m1113.2 451.8c41.8-24.2 97.2-15.1 97.2-15.1"/>
	<path class="s9" d="m822.4 617.5c17.2-63.7 47-76.5 66.2-74.3"/>
	<path class="s9" d="m569.5 344.1c57.2-26.9 356.1-25.7 381.6 0.7 11.9 12.2 6.1 43.9 6.1 43.9"/>
	<path class="s4" d="m681 577.9c0 28.8-16.6 52.3-37.2 52.3-20.5 0-37.1-23.5-37.1-52.3 0-28.9 16.6-52.3 37.1-52.3 20.6 0 37.2 23.4 37.2 52.3z"/>
	<path class="s2" d="m672.6 577.9q0 3.1-0.3 6.2c-2.1 21.6-15.4 38.3-31.4 38.3-7.6 0-14.6-3.8-20.1-10.2q-2.2-2.5-3.9-5.4-0.5-0.7-0.9-1.5c-2.6-4.6-4.6-10.1-5.7-16q-1-5.5-1-11.4c0-24.6 14.2-44.6 31.6-44.6 6 0 11.6 2.4 16.3 6.4 6.2 5.1 10.9 13.2 13.4 22.7q0.6 2.1 1 4.3c0.7 3.6 1 7.3 1 11.2z"/>
	<path class="s3" d="m643.3 614q-2.3 0.6-4.6 0.6c-4.8 0-9.3-1.8-13.1-5-2-1.6-3.8-3.5-5.4-5.8q-0.4-0.5-0.8-1.1c-3-4.6-5.1-10.3-6.2-16.6q-0.6-3.9-0.6-8.2c0-20.3 11.6-36.7 26.1-36.7q2.3 0 4.6 0.6c-11.9 3-21 17.5-21.4 35q0 0.5 0 1.1c0 7.2 1.5 14 4.1 19.6q0.3 0.8 0.7 1.6c1.4 2.7 3 5.2 4.9 7.3 3.3 3.8 7.3 6.5 11.7 7.6z"/>
	<path class="s3" d="m670.6 562.4q-22.3 17.6-44.6 35.1-3.3 2.6-6.6 5.2c-3-4.6-5.1-10.3-6.2-16.6q4.4-4.6 8.7-9.3 17.5-18.7 35.3-37.1c6.2 5.1 10.9 13.2 13.4 22.7z"/>
	<path class="s3" d="m672.6 577.9q0 3.1-0.3 6.2-20.2 11.3-40.7 22.3-3 1.6-6 3.2c-2-1.6-3.8-3.5-5.4-5.8q0.4-0.3 0.9-0.6 2.8-2.1 5.6-4.1c14.9-10.9 30-21.6 44.9-32.4 0.7 3.6 1 7.3 1 11.2z"/>
	<path class="s4" d="m191.3 577.9c0 28.8-16.7 52.3-37.2 52.3-20.6 0-37.2-23.5-37.2-52.3 0-28.9 16.6-52.3 37.2-52.3 20.5 0 37.2 23.4 37.2 52.3z"/>
	<path class="s2" d="m182.8 577.9c0 24.6-14.1 44.5-31.6 44.5-17.5 0-31.7-19.9-31.7-44.5 0-24.6 14.2-44.6 31.7-44.6 17.5 0 31.6 20 31.6 44.6z"/>
	<path class="s3" d="m132.7 577.9c0-18.1 9.2-33 21.4-36.1q-2.3-0.6-4.7-0.6c-14.4 0-26.1 16.4-26.1 36.7 0 20.2 11.7 36.7 26.1 36.7q2.4 0 4.7-0.6c-12.2-3.1-21.4-18.1-21.4-36.1z"/>
	<path class="s3" d="m181.8 562.4q-22.4 17.6-44.7 35.1-3.3 2.6-6.5 5.2c-3-4.6-5.2-10.3-6.2-16.6q4.3-4.6 8.7-9.3 17.5-18.7 35.3-37.1c6.1 5.1 10.9 13.2 13.4 22.7z"/>
	<path class="s3" d="m183.8 577.9q0 3.1-0.3 6.2-20.3 11.3-40.7 22.3-3 1.6-6.1 3.2c-1.9-1.6-3.7-3.5-5.3-5.8q0.4-0.3 0.8-0.6 2.8-2.1 5.6-4.1c15-10.9 30-21.6 45-32.4 0.6 3.6 1 7.3 1 11.2z"/>
	<path class="s0" d="m372.1 623.6c-57.1 0-106.1-1.7-149.8-5.2-6.4-0.5-11.4-5.9-11.4-12.4v-56.6c0-6.3 4.8-11.6 11-12.3 47.7-5.3 100.8-8 158-8 58.3 0 121.4 2.6 192.8 8.2 6.5 0.5 11.5 5.9 11.5 12.4v56.1c0 6.7-5.2 12.1-11.8 12.4-77.2 3.6-142.7 5.4-200.3 5.4q0 0 0 0z"/>
	<path class="s1" d="m572.3 542.8c-125.5-9.7-244.2-12-349.7-0.2-3.5 0.3-6.2 3.3-6.2 6.8v56.6c0 3.6 2.8 6.6 6.4 6.9 98.4 7.9 219.2 5.9 349.3-0.2 3.7-0.2 6.6-3.2 6.6-6.9v-56.1c0-3.7-2.8-6.7-6.4-6.9z"/>
	<path class="s10" d="m216.7 549.4l363.6 1.1"/>
	<path class="s10" d="m580 559.8l-365.6 3.5"/>
	<path class="s10" d="m214.8 578.4l364.4-0.4"/>
	<path class="s10" d="m581.9 596.6q-0.2 0-0.4 0l-366.7-0.4"/>
	<path class="s10" d="m215.2 600.9l364.8 7.7"/>
	<path class="s10" d="m215.6 586.5q3.1 0.2 6.2 0.4l358.2 0.8"/>
	<path class="s10" d="m580.2 569l-365.9 2.9"/>
	<path class="s10" d="m216.9 611.1q0.3 0 0.6 0l283.6 6"/>
	<path class="s10" d="m228.1 541.2c5.3 0.1 280.7-4.1 280.7-4.1"/>
	<path class="s10" d="m269.2 536.2l4.6 83.1"/>
	<path class="s10" d="m475.8 533.9q0 0.2 0 0.4l-8.5 85.5"/>
	<path class="s4" d="m642.4 682.4h-37.8c-4 0-7.3-3.3-7.3-7.3 0-4 3.3-7.3 7.3-7.3h37.8c4 0 7.3 3.3 7.3 7.3 0 4-3.3 7.3-7.3 7.3z"/>
	<path class="s4" d="m223.8 682.4h-37.8c-4.1 0-7.3-3.3-7.3-7.3 0-4 3.2-7.3 7.3-7.3h37.8c4 0 7.2 3.3 7.2 7.3 0 4-3.2 7.3-7.2 7.3z"/>
	<path class="s7" d="m131.9 517.6c265.7-22.8 560-1.3 560-1.3 0 0 32.9-53.2 245.5-57.3h-487.6c-67.3 0-235 14.5-317.9 58.6z"/>
	<path class="s7" d="m688.7 507.3l-125.6-3.9c0 0 78.4-29.2 237.6-39.2-91.2 13-112 43.1-112 43.1z"/>
	<path class="s4" d="m360.8 470.6c0 0-26.9 6-25.4 8.1 1.6 2.1 193.4 5.5 199.2 4.3 5.9-1.1 84.5-18.8 84-20.5-0.5-1.8-23.9-1.1-23.9-1.1z"/>
	<path class="s0" d="m600.9 463.5c-2.9 1.7-65.7 13.3-69.5 13.8-3.7 0.6-168.7 1.2-175.6-4.3-6.8-5.5-14.4-60.8 0.5-69.1 11.1-6.3 155.1-2.6 166.4-2.6 11.4 0 73.2 13.9 78.2 20 4.9 6.1 2.9 40.4 0 42.2z"/>
	<path class="s1" d="m600.9 463.5c-2.9 1.7-65.7 13.3-69.5 13.8 5.3-3.7-0.2-73.5-8.7-76 11.4 0 73.2 13.9 78.2 20 4.9 6.1 2.9 40.4 0 42.2z"/>
	<path class="s8" d="m403.4 439.3c0 16-8.7 28.9-19.5 28.9-10.8 0-19.5-12.9-19.5-28.9 0-16 8.7-28.9 19.5-28.9 10.8 0 19.5 12.9 19.5 28.9z"/>
	<path class="s0" d="m372.8 439.3c0-12.6 5.6-23.1 13-25.5q-1.6-0.5-3.2-0.5c-9 0-16.2 11.6-16.2 26 0 14.3 7.2 26 16.2 26q1.6 0 3.2-0.5c-7.4-2.4-13-12.9-13-25.5z"/>
	<path class="s8" d="m454.1 439.3c0 16-8.7 28.9-19.5 28.9-10.7 0-19.5-12.9-19.5-28.9 0-16 8.8-28.9 19.5-28.9 10.8 0 19.5 12.9 19.5 28.9z"/>
	<path class="s0" d="m423.5 439.3c0-12.6 5.6-23.1 13-25.5q-1.5-0.5-3.2-0.5c-8.9 0-16.2 11.6-16.2 26 0 14.3 7.3 26 16.2 26q1.7 0 3.2-0.5c-7.4-2.4-13-12.9-13-25.5z"/>
	<path class="s8" d="m504.9 439.3c0 16-8.8 28.9-19.5 28.9-10.8 0-19.5-12.9-19.5-28.9 0-16 8.7-28.9 19.5-28.9 10.7 0 19.5 12.9 19.5 28.9z"/>
	<path class="s0" d="m474.3 439.3c0-12.6 5.5-23.1 12.9-25.5q-1.5-0.5-3.2-0.5c-8.9 0-16.1 11.6-16.1 26 0 14.3 7.2 26 16.1 26q1.7 0 3.2-0.5c-7.4-2.4-12.9-12.9-12.9-25.5z"/>
	<path class="s3" d="m1109.7 747.9l-22.4 6.7c-7.7 2.3-16 1.8-23.3-1.4l-68.4-30 62-1.4 63-15z"/>
	<path class="s1" d="m1123.1 730c-3.7 11.2-10.3 19.2-14.6 17.8-4.4-1.5-4.9-11.8-1.2-23 3.7-11.3 10.2-19.2 14.6-17.8 4.4 1.4 4.9 11.7 1.2 23z"/>
	<path class="s3" d="m1082.9 747.9l-22.3 6.7c-7.7 2.3-16 1.8-23.3-1.4l-68.5-30 62-1.4 63.1-15z"/>
	<path class="s1" d="m1096.4 730c-3.8 11.2-10.3 19.2-14.7 17.8-4.3-1.5-4.9-11.8-1.1-23 3.7-11.3 10.2-19.2 14.6-17.8 4.3 1.4 4.9 11.7 1.2 23z"/>
</svg>
